# Blender 4.5.3 LTS
# www.blender.org
mtllib enemy1grey.mtl
o Cube
v 0.813814 1.048676 -1.987433
v 0.934899 -0.729513 -1.530803
v 0.814057 1.032118 1.917458
v 0.629283 -0.666303 2.019175
v 0.333609 5.848845 -0.424389
v 0.569099 -2.722171 0.366746
v 0.396849 -1.000000 0.655334
v 0.173217 1.029143 3.892548
v 0.173217 2.200603 4.124585
v 0.769480 1.203947 -0.307356
v 0.173217 -0.112091 2.849012
v 0.934899 -0.895235 0.373791
v 0.813814 -0.126559 -1.899816
v 0.396849 -1.000000 0.375891
v 0.699534 0.031039 2.788108
v 0.258910 1.355568 2.150751
v 1.323828 0.000000 0.000000
v 0.310944 -0.860778 -1.659215
v 0.434003 2.019678 4.029810
v 0.339529 1.412129 -2.264893
v 0.305926 5.320530 -2.220784
v 0.434003 1.080125 3.810151
v 0.285093 5.787924 -2.216399
v 0.956045 1.096285 0.988905
v 0.424086 1.435967 -0.240086
v 0.934899 -0.895235 0.653233
v 0.569099 -2.395437 0.375891
v 1.323828 0.089984 1.283344
v 0.569099 -2.382560 0.655334
v 0.723651 -2.722171 0.366746
v 0.312234 1.341870 1.199677
v 0.723651 -2.722171 0.655334
v 0.723651 -2.395437 0.375891
v 0.723651 -2.382560 0.655334
v 0.373133 -0.237192 -2.162973
v 1.002749 -2.722171 -1.187906
v 1.002749 -2.577119 -1.187906
v 0.408716 1.359033 -0.139472
v 0.373133 0.938043 -2.250591
v 0.565826 5.742607 -2.050543
v 0.587188 5.738890 -0.595366
v 0.310944 -0.824765 2.095983
v 0.653159 5.427969 -2.046205
v 0.000000 1.412129 -2.264893
v 0.000000 1.435967 -0.146692
v 0.640947 5.374386 -0.563835
v 0.698027 1.292043 -0.440121
v 0.200866 5.651824 -3.226765
v 0.281812 5.476283 -3.211171
v 0.795037 1.522762 -2.022583
v 0.000000 -0.907558 -1.706358
v 0.000000 1.379026 2.243289
v -0.000000 -0.824765 2.095983
v 0.000000 0.938043 -2.250591
v 0.000000 -1.000000 0.375891
v 0.000000 1.180926 0.093453
v 0.000000 -0.237192 -2.162973
v -0.000000 -0.112091 2.849012
v 0.650854 6.277966 -1.246308
v -0.000000 2.200603 4.124585
v -0.000000 1.029143 3.892548
v 0.000000 -1.000000 0.655334
v 0.000000 1.266178 1.566032
v 0.072861 -2.577119 -1.052134
v 0.072861 -2.722171 -1.052134
v 0.502407 -2.403040 0.612564
v 0.393684 -2.395437 0.333121
v 0.502407 -2.722171 0.612564
v 0.393684 -2.722171 0.323976
v -0.000000 5.848845 -0.344658
v -0.000000 5.787924 -2.216399
v -0.000000 5.320530 -2.220784
v -0.000000 5.534207 -0.302007
v -0.000000 5.637366 -3.334098
v -0.000000 5.492829 -3.316382
v 0.362046 5.534207 -0.386383
v 0.537805 -2.722171 -1.187906
v 0.537805 -2.577119 -1.187906
v 0.569099 -2.722171 0.655334
v 0.911412 -2.722171 0.323976
v 0.758259 -2.722171 0.612564
v 0.911412 -2.395437 0.333121
v 0.758259 -2.390124 0.612564
v 1.376510 -2.722171 -1.052134
v 1.376510 -2.577119 -1.052134
v 0.000000 0.350425 -2.206782
v -0.000000 1.524410 4.084812
v 0.373133 0.350425 -2.206782
v 1.173032 0.813112 0.895292
v 0.173217 1.524410 4.084812
v 0.613137 1.540819 3.988448
v 1.323828 0.500000 0.000000
v 0.880085 0.529206 2.776481
v 0.597163 -1.000000 0.655334
v 0.813814 0.461059 -1.943624
v 0.367241 -0.968327 -0.639724
v -0.000000 6.915695 -1.274946
v 0.790729 5.341055 -1.157864
v 1.325916 0.480529 -1.052063
v 0.915189 1.388901 -1.128904
v 0.748423 5.712222 -1.189216
v 0.426018 6.734768 -1.256327
v 0.251743 6.915695 -1.274946
v 1.323828 -0.063279 -1.018785
v 1.044097 1.019837 -1.088367
v 0.934899 -0.835781 -0.642367
v 0.597163 -1.000000 0.375891
v 0.000000 -0.995988 -0.670225
v 0.434625 6.666630 -0.880862
v 0.491090 6.312947 -0.644341
v 0.253717 6.850022 -0.857512
v 0.286049 6.510011 -0.563274
v -0.000000 6.510676 -0.490131
v -0.000000 6.850127 -0.857514
v 0.486277 6.311278 -1.983871
v 0.440187 6.636755 -1.632982
v 0.264897 6.528576 -2.060476
v 0.254836 6.826413 -1.709182
v -0.000000 6.826760 -1.709338
v -0.000000 6.530048 -2.060143
v 0.552442 -2.722171 -0.439608
v 0.966166 -2.722171 -0.439608
v 0.966166 -2.464767 -0.435759
v 0.552442 -2.464767 -0.435759
v 0.205276 -2.722171 -0.235360
v 0.205276 -2.464767 -0.231511
v 1.166577 -2.722171 -0.235360
v 1.166577 -2.464767 -0.231511
v 1.079094 0.944203 0.591123
v 1.250638 1.666224 0.008299
v 1.274055 1.788935 0.216414
v 1.290716 1.384997 0.350111
v 1.414776 1.739499 0.463831
v 3.350474 2.930337 -0.000362
v 3.397689 2.975905 0.164552
v 3.353235 2.401368 0.281008
v 3.400961 2.461512 0.433895
v 2.040725 1.234733 0.817397
v 2.049292 1.384649 0.984188
v 3.645429 1.555470 0.666134
v 3.683002 1.629878 0.804628
v 5.092605 3.694824 -0.761238
v 5.041952 3.621679 -0.942126
v 0.640612 1.437052 2.868237
v 1.135162 0.562783 1.937906
v 3.474425 1.992985 0.502082
v 1.617646 1.291699 0.602575
v 1.682357 1.594167 0.733296
v 3.512000 2.067394 0.640576
v 1.054762 0.064579 1.931885
v -0.000000 1.577231 2.922245
v 0.223547 1.536629 2.927469
v 0.799100 1.423083 0.776046
v 0.976529 1.153762 0.261523
v 0.894796 1.587340 0.222097
v 0.859253 1.396080 -0.067175
v 6.362556 4.203123 -1.920312
v 6.836462 3.902438 -1.906573
v 6.886742 4.007899 -1.714280
v 6.416646 4.303847 -1.723450
v 6.847283 3.434962 -1.631110
v 6.622356 3.153327 -1.387398
v 6.673375 3.272455 -1.209662
v 6.896945 3.558278 -1.453242
v 6.910758 3.003243 -1.114653
v 6.775794 3.116015 -1.141961
v 6.703240 3.008214 -1.317301
v 6.845930 2.892704 -1.289854
v 6.809804 2.564437 -1.068512
v 6.654223 2.410583 -0.919794
v 6.698918 2.536147 -0.751056
v 6.860424 2.690345 -0.900628
v 6.574460 2.260142 -0.823065
v 6.769196 2.097205 -0.793762
v 6.813954 2.220183 -0.628200
v 6.623203 2.381907 -0.655939
v 6.759344 1.688980 -0.550939
v 6.601620 1.535361 -0.409781
v 6.637476 1.668108 -0.253816
v 6.797138 1.824662 -0.395750
v 5.173232 2.832296 -0.534984
v 5.222605 2.921932 -0.369673
v 5.249761 2.256732 -0.190645
v 5.290896 2.356718 -0.037028
v 5.209879 2.181512 -0.142280
v 5.253038 2.279598 0.010530
v 5.345676 1.703941 0.293617
v 5.308961 1.600363 0.146387
v 5.273815 2.843712 -0.335822
v 5.213675 2.759739 -0.499935
v -0.813814 1.048676 -1.987433
v -0.934899 -0.729513 -1.530803
v -0.814057 1.032118 1.917458
v -0.629283 -0.666303 2.019175
v -0.333609 5.848845 -0.424389
v -0.569099 -2.722171 0.366746
v -0.396849 -1.000000 0.655334
v -0.173217 1.029143 3.892548
v -0.173217 2.200603 4.124585
v -0.769480 1.203947 -0.307356
v -0.173217 -0.112091 2.849012
v -0.934899 -0.895235 0.373791
v -0.813814 -0.126559 -1.899816
v -0.396849 -1.000000 0.375891
v -0.699534 0.031039 2.788108
v -0.258910 1.355568 2.150751
v -1.323828 0.000000 0.000000
v -0.310944 -0.860778 -1.659215
v -0.434003 2.019678 4.029810
v -0.339529 1.412129 -2.264893
v -0.305926 5.320530 -2.220784
v -0.434003 1.080125 3.810151
v -0.285093 5.787924 -2.216399
v -0.956045 1.096285 0.988905
v -0.424086 1.435967 -0.240086
v -0.934899 -0.895235 0.653233
v -0.569099 -2.395437 0.375891
v -1.323828 0.089984 1.283344
v -0.569099 -2.382560 0.655334
v -0.723651 -2.722171 0.366746
v -0.312234 1.341870 1.199678
v -0.723651 -2.722171 0.655334
v -0.723651 -2.395437 0.375891
v -0.723651 -2.382560 0.655334
v -0.373133 -0.237192 -2.162973
v -1.002749 -2.722171 -1.187906
v -1.002749 -2.577119 -1.187906
v -0.408716 1.359033 -0.139472
v -0.373133 0.938043 -2.250591
v -0.565826 5.742607 -2.050543
v -0.587188 5.738890 -0.595366
v -0.310944 -0.824765 2.095983
v -0.653159 5.427969 -2.046205
v -0.640947 5.374386 -0.563835
v -0.698027 1.292043 -0.440121
v -0.200866 5.651824 -3.226765
v -0.281812 5.476283 -3.211171
v -0.795037 1.522762 -2.022583
v -0.650854 6.277966 -1.246308
v -0.072861 -2.577119 -1.052134
v -0.072861 -2.722171 -1.052134
v -0.502407 -2.403040 0.612564
v -0.393684 -2.395437 0.333121
v -0.502407 -2.722171 0.612564
v -0.393684 -2.722171 0.323976
v -0.362046 5.534207 -0.386383
v -0.537805 -2.722171 -1.187906
v -0.537805 -2.577119 -1.187906
v -0.569099 -2.722171 0.655334
v -0.911412 -2.722171 0.323976
v -0.758259 -2.722171 0.612564
v -0.911412 -2.395437 0.333121
v -0.758259 -2.390124 0.612564
v -1.376510 -2.722171 -1.052134
v -1.376510 -2.577119 -1.052134
v -0.373133 0.350425 -2.206782
v -1.173032 0.813112 0.895292
v -0.173217 1.524410 4.084812
v -0.613137 1.540819 3.988448
v -1.323828 0.500000 0.000000
v -0.880085 0.529206 2.776481
v -0.597163 -1.000000 0.655334
v -0.813814 0.461059 -1.943624
v -0.367241 -0.968327 -0.639724
v -0.790729 5.341055 -1.157864
v -1.325916 0.480529 -1.052063
v -0.915189 1.388901 -1.128904
v -0.748423 5.712222 -1.189216
v -0.426018 6.734768 -1.256327
v -0.251743 6.915695 -1.274946
v -1.323828 -0.063279 -1.018785
v -1.044097 1.019837 -1.088367
v -0.934899 -0.835781 -0.642367
v -0.597163 -1.000000 0.375891
v -0.434625 6.666630 -0.880862
v -0.491090 6.312947 -0.644341
v -0.253717 6.850022 -0.857512
v -0.286049 6.510011 -0.563274
v -0.486277 6.311278 -1.983871
v -0.440187 6.636755 -1.632982
v -0.264897 6.528576 -2.060476
v -0.254836 6.826413 -1.709182
v -0.552442 -2.722171 -0.439608
v -0.966166 -2.722171 -0.439608
v -0.966166 -2.464767 -0.435759
v -0.552442 -2.464767 -0.435759
v -0.205276 -2.722171 -0.235360
v -0.205276 -2.464767 -0.231511
v -1.166577 -2.722171 -0.235360
v -1.166577 -2.464767 -0.231511
v -1.079094 0.944203 0.591123
v -1.250638 1.666224 0.008299
v -1.274055 1.788935 0.216414
v -1.290716 1.384997 0.350111
v -1.414776 1.739499 0.463831
v -3.350474 2.930337 -0.000361
v -3.397689 2.975904 0.164552
v -3.353235 2.401368 0.281009
v -3.400961 2.461512 0.433895
v -2.040725 1.234733 0.817397
v -2.049292 1.384649 0.984188
v -3.645428 1.555470 0.666134
v -3.683002 1.629879 0.804628
v -5.092605 3.694824 -0.761238
v -5.041952 3.621678 -0.942125
v -0.640612 1.437052 2.868237
v -1.135162 0.562783 1.937906
v -3.474425 1.992985 0.502082
v -1.617646 1.291699 0.602575
v -1.682357 1.594167 0.733296
v -3.511999 2.067394 0.640576
v -1.054762 0.064579 1.931885
v -0.223547 1.536629 2.927469
v -0.799100 1.423084 0.776046
v -0.976530 1.153762 0.261523
v -0.894796 1.587340 0.222097
v -0.859253 1.396080 -0.067175
v -6.362557 4.203124 -1.920311
v -6.836462 3.902437 -1.906573
v -6.886743 4.007900 -1.714280
v -6.416647 4.303847 -1.723450
v -6.847284 3.434962 -1.631110
v -6.622356 3.153327 -1.387398
v -6.673376 3.272455 -1.209662
v -6.896946 3.558278 -1.453242
v -6.910758 3.003242 -1.114652
v -6.775794 3.116014 -1.141960
v -6.703240 3.008213 -1.317300
v -6.845930 2.892704 -1.289853
v -6.809804 2.564437 -1.068511
v -6.654223 2.410582 -0.919794
v -6.698918 2.536146 -0.751055
v -6.860424 2.690345 -0.900627
v -6.574460 2.260142 -0.823065
v -6.769196 2.097205 -0.793762
v -6.813954 2.220183 -0.628200
v -6.623203 2.381907 -0.655939
v -6.759344 1.688980 -0.550940
v -6.601620 1.535361 -0.409782
v -6.637476 1.668108 -0.253816
v -6.797138 1.824662 -0.395750
v -5.173232 2.832296 -0.534983
v -5.222605 2.921932 -0.369672
v -5.249761 2.256732 -0.190645
v -5.290896 2.356719 -0.037028
v -5.209879 2.181512 -0.142280
v -5.253038 2.279598 0.010530
v -5.345676 1.703941 0.293617
v -5.308961 1.600363 0.146387
v -5.273815 2.843711 -0.335822
v -5.213675 2.759738 -0.499935
v 0.332809 2.193809 -2.256071
v 0.326088 2.975489 -2.247249
v 0.319367 3.757170 -2.238427
v 0.312647 4.538850 -2.229606
v 0.411678 2.255615 -0.269345
v 0.399270 3.075263 -0.298605
v 0.386862 3.894911 -0.327864
v 0.374454 4.714559 -0.357124
v 0.686611 2.108511 -0.464864
v 0.675195 2.924980 -0.489607
v 0.663779 3.741449 -0.514350
v 0.652363 4.557918 -0.539092
v 0.681534 4.646928 -2.041481
v 0.709910 3.865886 -2.036757
v 0.738286 3.084845 -2.032032
v 0.766662 2.303803 -2.027308
v 0.000000 2.255615 -0.177755
v 0.000000 3.075263 -0.208818
v 0.000000 3.894911 -0.239881
v 0.000000 4.714559 -0.270944
v 0.000000 2.193809 -2.256071
v 0.000000 2.975489 -2.247249
v 0.000000 3.757170 -2.238427
v -0.000000 4.538850 -2.229606
v 0.890297 2.179332 -1.134696
v 0.865405 2.969763 -1.140488
v 0.840513 3.760194 -1.146280
v 0.815621 4.550625 -1.152072
v -0.332809 2.193809 -2.256071
v -0.326088 2.975489 -2.247249
v -0.319367 3.757170 -2.238427
v -0.312647 4.538850 -2.229606
v -0.411678 2.255615 -0.269345
v -0.399270 3.075263 -0.298605
v -0.386862 3.894911 -0.327864
v -0.374454 4.714559 -0.357124
v -0.686611 2.108511 -0.464864
v -0.675195 2.924980 -0.489607
v -0.663779 3.741449 -0.514350
v -0.652363 4.557918 -0.539092
v -0.681534 4.646928 -2.041481
v -0.709910 3.865886 -2.036757
v -0.738286 3.084845 -2.032032
v -0.766662 2.303803 -2.027308
v -0.890297 2.179332 -1.134696
v -0.865405 2.969763 -1.140488
v -0.840513 3.760194 -1.146280
v -0.815621 4.550625 -1.152072
v 2.321976 1.893183 0.315560
v 2.407869 2.100505 0.448863
v 2.300556 2.298280 0.003969
v 2.335872 2.382420 0.190483
v 2.843077 1.395101 0.741765
v 2.866147 1.507264 0.894408
v 2.597178 1.830781 0.686936
v 2.546035 1.642342 0.552328
v -2.321976 1.893182 0.315560
v -2.407869 2.100505 0.448863
v -2.300556 2.298280 0.003969
v -2.335872 2.382420 0.190483
v -2.843076 1.395102 0.741765
v -2.866147 1.507264 0.894408
v -2.597178 1.830781 0.686936
v -2.546035 1.642342 0.552328
v -4.245147 3.335364 -0.298343
v -4.263233 2.616832 -0.126987
v -4.196213 3.276008 -0.471243
v -4.311783 2.691722 0.032111
v -4.337388 2.652611 0.049037
v -4.283455 2.580553 -0.109463
v -4.362093 2.124858 0.155719
v -4.401448 2.212056 0.301774
v -4.514338 1.666910 0.549123
v -4.342152 2.087249 0.179901
v -4.382519 2.173496 0.325553
v -4.477194 1.577917 0.406261
v -0.482974 -1.691280 0.655334
v -0.482974 -1.697719 0.375891
v -0.660407 -1.697719 0.375891
v -0.660407 -1.691280 0.655334
v 0.482974 -1.691280 0.655334
v 0.482974 -1.697719 0.375891
v 0.660407 -1.697719 0.375891
v 0.660407 -1.691280 0.655334
v -0.526037 -2.036920 0.655334
v -0.692029 -2.036920 0.655334
v -0.526037 -2.046578 0.375891
v -0.692029 -2.046578 0.375891
v 0.526037 -2.036920 0.655334
v 0.692029 -2.036920 0.655334
v 0.526037 -2.046578 0.375891
v 0.692029 -2.046578 0.375891
v 0.439912 -1.348859 0.375891
v 0.628785 -1.348859 0.375891
v 0.439912 -1.345640 0.655334
v 0.628785 -1.345640 0.655334
v -0.439912 -1.348859 0.375891
v -0.628785 -1.348859 0.375891
v -0.439912 -1.345640 0.655334
v -0.628785 -1.345640 0.655334
v -0.545124 -2.520943 -0.811833
v -0.545124 -2.722171 -0.813757
v -0.984458 -2.722171 -0.813757
v -0.984458 -2.520943 -0.811833
v -0.139069 -2.722171 -0.643747
v -0.139069 -2.520943 -0.641822
v -1.271544 -2.722171 -0.643747
v -1.271544 -2.520943 -0.641822
v 0.545124 -2.520943 -0.811833
v 0.545124 -2.722171 -0.813757
v 0.984458 -2.722171 -0.813757
v 0.984458 -2.520943 -0.811833
v 0.139068 -2.722171 -0.643747
v 0.139068 -2.520943 -0.641822
v 1.271543 -2.722171 -0.643747
v 1.271543 -2.520943 -0.641822
v -0.560770 -2.722171 -0.036431
v -0.844909 -2.722171 -0.036431
v -0.844909 -2.430102 -0.029934
v -0.299480 -2.722171 0.044308
v -0.299480 -2.430102 0.050805
v -1.038995 -2.722171 0.044308
v -1.038995 -2.430102 0.050805
v -0.560770 -2.430102 -0.029934
v 0.560770 -2.722171 -0.036431
v 0.844908 -2.722171 -0.036431
v 0.844908 -2.430102 -0.029934
v 0.299480 -2.722171 0.044308
v 0.299480 -2.430102 0.050805
v 1.038994 -2.722171 0.044308
v 1.038994 -2.430102 0.050805
v 0.560770 -2.430102 -0.029934
v 0.173217 0.458526 3.370780
v 0.198382 1.868616 3.526027
v 0.566769 0.555582 3.299129
v -0.000000 0.458526 3.370780
v -0.000000 1.888918 3.523415
v 0.746611 1.035012 3.382464
v 0.537308 1.728365 3.449024
v -0.173217 0.458526 3.370780
v -0.198382 1.868616 3.526027
v -0.566769 0.555582 3.299129
v -0.746611 1.035012 3.382464
v -0.537308 1.728365 3.449024
v 0.885051 1.064202 1.453181
v 0.285572 1.348719 1.675214
v 0.782091 -0.780769 1.336204
v 0.000000 1.322602 1.904660
v 0.454053 -0.912382 1.375658
v 1.154097 0.687947 1.416599
v 1.189295 0.077282 1.607614
v -0.885051 1.064202 1.453181
v -0.285572 1.348719 1.675214
v -0.782091 -0.780769 1.336204
v -0.454053 -0.912382 1.375658
v -1.154097 0.687947 1.416599
v -1.189295 0.077282 1.607614
v 0.293869 5.398407 -2.715978
v 0.242980 5.719874 -2.721582
v -0.000000 5.712645 -2.775249
v -0.000000 5.406680 -2.768583
v -0.293869 5.398407 -2.715978
v -0.242980 5.719874 -2.721582
v -5.947990 3.097193 -0.789667
v -5.754626 3.999336 -1.242344
v -5.897794 2.992811 -0.961191
v -5.702254 3.912401 -1.431218
v -5.951992 2.333657 -0.555219
v -5.994907 2.446432 -0.394042
v -6.024805 2.979862 -0.738891
v -5.958458 2.883976 -0.908617
v -5.892169 2.220827 -0.482673
v -5.938121 2.330753 -0.322704
v -5.955291 1.567862 -0.131697
v -5.991576 1.686024 0.019901
v 5.947990 3.097193 -0.789667
v 5.754626 3.999336 -1.242344
v 5.897794 2.992811 -0.961191
v 5.702254 3.912401 -1.431219
v 5.951992 2.333657 -0.555220
v 5.994907 2.446433 -0.394042
v 6.024805 2.979863 -0.738891
v 5.958458 2.883976 -0.908618
v 5.892169 2.220827 -0.482672
v 5.938121 2.330753 -0.322704
v 5.955291 1.567862 -0.131697
v 5.991576 1.686024 0.019901
vn -0.0000 -0.0743 -0.9972
vn 0.1196 -0.9880 -0.0975
vn 0.0096 0.9953 -0.0968
vn 0.4319 -0.8754 0.2171
vn 0.8104 0.5625 0.1637
vn 0.5233 -0.0634 -0.8498
vn 0.8204 0.5686 0.0607
vn 0.2525 -0.9649 -0.0719
vn -0.0000 -1.0000 -0.0000
vn -0.0000 -0.9995 -0.0312
vn 0.9064 -0.4224 0.0008
vn 0.3964 -0.5196 -0.7569
vn 0.8348 -0.4706 0.2857
vn -0.0000 -0.6748 0.7380
vn 0.1210 0.7083 0.6955
vn 0.9136 0.3798 -0.1454
vn -0.0000 -0.9879 -0.1554
vn 0.9662 0.2477 0.0708
vn 0.3102 -0.6321 0.7101
vn 0.9228 -0.3847 0.0222
vn 0.3480 -0.6800 0.6454
vn -0.0000 -0.9927 0.1207
vn 0.8034 0.5857 -0.1075
vn 0.9842 -0.0106 0.1769
vn 0.2275 0.1339 0.9645
vn -0.9924 -0.1231 0.0050
vn -0.0000 -0.0000 -1.0000
vn -0.0000 -0.0000 1.0000
vn 0.4946 -0.0180 -0.8690
vn -0.5398 -0.0000 0.8418
vn -0.9339 -0.0051 0.3574
vn 0.4488 0.0124 -0.8935
vn -0.9872 -0.0009 0.1597
vn 1.0000 -0.0020 0.0011
vn 0.7080 -0.4269 0.5625
vn 0.9945 0.0903 -0.0530
vn 0.5941 0.1528 0.7897
vn -0.0000 -0.0302 -0.9995
vn 0.7774 -0.0000 0.6290
vn 0.5562 0.0355 0.8303
vn 0.9885 0.0325 -0.1477
vn -0.0869 0.9962 0.0075
vn 0.9898 0.1358 0.0434
vn 0.9705 0.1748 -0.1659
vn 0.5655 0.7313 0.3812
vn -0.0000 -0.3619 0.9322
vn -0.0000 0.0113 -0.9999
vn 0.4030 0.0067 -0.9152
vn 0.9722 0.1545 -0.1760
vn 0.8665 -0.0355 -0.4980
vn 0.2626 -0.3911 0.8821
vn -0.2803 -0.0000 -0.9599
vn -0.0086 0.9951 -0.0990
vn -0.0000 0.9964 -0.0851
vn -0.0939 0.6689 0.7374
vn 0.2254 0.0375 0.9735
vn -0.0000 -0.0587 0.9983
vn 0.9055 0.1998 -0.3744
vn -0.0000 -0.7263 0.6874
vn 0.9686 -0.0014 0.2485
vn 0.8801 -0.0066 0.4747
vn 0.3414 -0.0000 -0.9399
vn 0.0957 -0.5962 -0.7971
vn 0.0830 0.9648 -0.2494
vn -0.0516 0.9955 -0.0791
vn 0.2263 -0.9672 -0.1151
vn 0.9074 -0.3227 -0.2694
vn 0.3145 0.9099 -0.2706
vn 0.9588 0.1460 0.2437
vn 0.2569 -0.0280 0.9660
vn -0.3800 0.8882 0.2582
vn 0.9678 0.0266 0.2501
vn 0.4706 0.0651 -0.8799
vn 0.8462 0.4677 0.2554
vn 0.9179 0.3655 0.1544
vn -0.0000 0.9910 -0.1335
vn 0.2963 -0.9551 -0.0000
vn 0.9959 0.0907 -0.0037
vn 0.0240 0.9994 -0.0259
vn 0.0369 -0.9992 -0.0178
vn 0.6543 0.5106 0.5579
vn 0.0973 0.6967 0.7107
vn 0.7126 0.6933 0.1075
vn 0.9516 0.1846 0.2459
vn 0.5667 0.1879 0.8022
vn 0.2343 0.2123 0.9487
vn 0.0002 0.9879 0.1553
vn 0.7138 0.5511 -0.4321
vn 0.0025 0.7632 -0.6462
vn 0.7282 0.6710 -0.1395
vn 0.5031 0.1820 -0.8448
vn 0.9670 0.1527 -0.2039
vn -0.0000 0.2060 -0.9785
vn 0.0007 0.9796 -0.2010
vn 0.9103 -0.0078 0.4138
vn -0.0000 0.9890 -0.1477
vn -0.0671 0.9886 -0.1350
vn -0.9480 -0.0060 0.3182
vn 0.0967 0.9873 -0.1259
vn 0.1945 -0.4350 0.8792
vn 0.8526 0.5212 -0.0387
vn -0.4389 0.7824 -0.4418
vn 0.0599 -0.4253 -0.9031
vn 0.5546 -0.5877 -0.5891
vn 0.2652 -0.5119 -0.8171
vn -0.2266 0.5231 0.8216
vn -0.4943 0.8468 -0.1965
vn 0.1984 -0.8435 0.4992
vn 0.2980 -0.8528 0.4288
vn -0.0634 0.6061 0.7928
vn 0.4751 -0.5867 -0.6558
vn -0.1872 0.6711 0.7173
vn 0.1804 -0.4956 -0.8496
vn 0.9167 -0.2383 0.3207
vn 0.8329 -0.4457 0.3281
vn 0.7910 0.5526 0.2627
vn 0.3360 0.8473 -0.4112
vn 0.9483 0.3164 -0.0233
vn 0.0514 0.8805 -0.4713
vn 0.9333 -0.0900 -0.3476
vn 0.0285 0.8064 -0.5907
vn -0.2991 0.9523 0.0609
vn 0.4110 0.9092 0.0671
vn 0.3572 -0.7059 -0.6116
vn 0.4479 0.6290 0.6354
vn -0.3575 0.9333 -0.0349
vn -0.1623 0.6276 0.7614
vn 0.9394 -0.0104 -0.3428
vn 0.4688 0.7223 -0.5084
vn -0.5406 0.8055 -0.2427
vn 0.8302 -0.5412 0.1339
vn 0.9743 -0.0966 -0.2034
vn 0.3532 -0.8834 0.3080
vn -0.2719 -0.4671 -0.8414
vn 0.2617 0.4621 0.8473
vn 0.5819 0.5681 -0.5819
vn -0.3496 0.8616 -0.3679
vn 0.7781 -0.5886 0.2193
vn -0.3509 -0.5057 -0.7881
vn 0.3452 -0.8019 0.4876
vn 0.9584 -0.2372 -0.1590
vn 0.2644 0.5149 0.8155
vn 0.5716 0.5760 -0.5844
vn -0.4574 0.8728 -0.1702
vn -0.2971 0.8176 -0.4932
vn 0.4061 -0.8386 0.3630
vn -0.2597 0.8608 -0.4377
vn 0.7878 -0.5462 0.2847
vn 0.9805 -0.1231 -0.1531
vn 0.2195 -0.7806 0.5853
vn -0.3716 -0.4652 -0.8034
vn 0.2788 0.4764 0.8339
vn 0.1811 -0.8552 0.4856
vn -0.3059 0.9016 -0.3058
vn -0.2434 -0.5189 -0.8195
vn -0.2617 -0.4491 -0.8543
vn -0.3649 -0.4881 -0.7928
vn 0.3535 0.4828 0.8012
vn 0.2346 0.5092 0.8281
vn 0.2508 0.4447 0.8598
vn -0.1196 -0.9880 -0.0975
vn -0.0096 0.9953 -0.0968
vn -0.4319 -0.8754 0.2171
vn -0.8104 0.5625 0.1637
vn -0.5233 -0.0634 -0.8498
vn -0.8204 0.5686 0.0607
vn -0.2525 -0.9649 -0.0719
vn -0.9064 -0.4224 0.0008
vn -0.3964 -0.5196 -0.7569
vn -0.8348 -0.4706 0.2857
vn -0.1210 0.7083 0.6955
vn -0.9136 0.3798 -0.1454
vn -0.9662 0.2477 0.0708
vn -0.3102 -0.6321 0.7101
vn -0.9228 -0.3847 0.0222
vn -0.3480 -0.6800 0.6454
vn -0.8034 0.5857 -0.1075
vn -0.9842 -0.0106 0.1769
vn -0.2275 0.1339 0.9645
vn 0.9924 -0.1231 0.0050
vn -0.4946 -0.0180 -0.8690
vn 0.5398 -0.0000 0.8418
vn 0.9339 -0.0051 0.3574
vn -0.4488 0.0124 -0.8935
vn 0.9872 -0.0009 0.1597
vn -1.0000 -0.0020 0.0011
vn -0.7080 -0.4269 0.5625
vn -0.9945 0.0903 -0.0530
vn -0.5941 0.1528 0.7897
vn -0.7774 -0.0000 0.6290
vn -0.5562 0.0355 0.8303
vn -0.9885 0.0325 -0.1477
vn 0.0869 0.9962 0.0075
vn -0.9898 0.1358 0.0434
vn -0.9705 0.1748 -0.1659
vn -0.5655 0.7313 0.3812
vn -0.4030 0.0067 -0.9152
vn -0.9722 0.1545 -0.1760
vn -0.8665 -0.0355 -0.4980
vn -0.2626 -0.3911 0.8821
vn 0.2803 -0.0000 -0.9599
vn 0.0086 0.9951 -0.0990
vn 0.0939 0.6689 0.7374
vn -0.2254 0.0375 0.9735
vn -0.9055 0.1998 -0.3744
vn -0.9686 -0.0014 0.2485
vn -0.8801 -0.0066 0.4747
vn -0.3414 -0.0000 -0.9399
vn -0.0957 -0.5962 -0.7971
vn -0.0830 0.9648 -0.2494
vn 0.0516 0.9955 -0.0791
vn -0.2263 -0.9672 -0.1151
vn -0.9074 -0.3227 -0.2694
vn -0.3145 0.9099 -0.2706
vn -0.9588 0.1460 0.2437
vn -0.2569 -0.0280 0.9660
vn 0.3800 0.8882 0.2582
vn -0.9678 0.0266 0.2501
vn -0.4706 0.0651 -0.8799
vn -0.8462 0.4677 0.2554
vn -0.9179 0.3655 0.1544
vn -0.2963 -0.9551 -0.0000
vn -0.9959 0.0907 -0.0037
vn -0.0240 0.9994 -0.0259
vn -0.0369 -0.9992 -0.0178
vn -0.6543 0.5106 0.5579
vn -0.0973 0.6967 0.7107
vn -0.7126 0.6933 0.1075
vn -0.9516 0.1846 0.2459
vn -0.5667 0.1879 0.8022
vn -0.2343 0.2123 0.9487
vn -0.0002 0.9879 0.1553
vn -0.7138 0.5511 -0.4321
vn -0.0025 0.7632 -0.6462
vn -0.7282 0.6710 -0.1395
vn -0.5031 0.1820 -0.8448
vn -0.9670 0.1527 -0.2039
vn -0.0007 0.9796 -0.2010
vn -0.9103 -0.0078 0.4138
vn 0.0671 0.9886 -0.1350
vn 0.9480 -0.0060 0.3182
vn -0.0967 0.9873 -0.1259
vn -0.1945 -0.4350 0.8792
vn -0.8526 0.5212 -0.0387
vn 0.4389 0.7824 -0.4418
vn -0.0599 -0.4253 -0.9031
vn -0.5546 -0.5877 -0.5891
vn -0.2652 -0.5119 -0.8171
vn 0.2266 0.5231 0.8216
vn 0.4943 0.8468 -0.1965
vn -0.1984 -0.8435 0.4992
vn -0.3027 -0.8428 0.4451
vn 0.0634 0.6061 0.7928
vn -0.4751 -0.5867 -0.6558
vn 0.1872 0.6711 0.7173
vn -0.1804 -0.4956 -0.8496
vn -0.9167 -0.2383 0.3207
vn -0.8329 -0.4457 0.3281
vn -0.7910 0.5526 0.2627
vn -0.3360 0.8473 -0.4112
vn -0.9483 0.3164 -0.0233
vn -0.0514 0.8805 -0.4713
vn -0.9333 -0.0900 -0.3476
vn -0.0285 0.8064 -0.5907
vn 0.2991 0.9523 0.0609
vn -0.4110 0.9092 0.0671
vn -0.3572 -0.7059 -0.6116
vn -0.4479 0.6290 0.6354
vn 0.3575 0.9333 -0.0349
vn 0.1623 0.6276 0.7614
vn -0.9394 -0.0104 -0.3428
vn -0.4688 0.7223 -0.5084
vn 0.5406 0.8055 -0.2427
vn -0.8302 -0.5412 0.1339
vn -0.9743 -0.0966 -0.2033
vn -0.3444 -0.8957 0.2814
vn 0.2692 -0.4722 -0.8393
vn -0.2592 0.4669 0.8455
vn -0.5819 0.5681 -0.5819
vn 0.3496 0.8616 -0.3679
vn -0.7781 -0.5886 0.2193
vn 0.3509 -0.5057 -0.7881
vn -0.3452 -0.8019 0.4876
vn -0.9584 -0.2372 -0.1590
vn -0.2644 0.5149 0.8155
vn -0.5716 0.5760 -0.5844
vn 0.4658 0.8637 -0.1924
vn 0.2971 0.8176 -0.4932
vn -0.4061 -0.8386 0.3630
vn 0.2640 0.8519 -0.4523
vn -0.7878 -0.5462 0.2847
vn -0.9805 -0.1231 -0.1531
vn -0.2195 -0.7806 0.5853
vn 0.3716 -0.4652 -0.8034
vn -0.2788 0.4764 0.8339
vn -0.1879 -0.8397 0.5095
vn 0.3112 0.8940 -0.3223
vn 0.2438 -0.5178 -0.8200
vn 0.2639 -0.4394 -0.8587
vn 0.3649 -0.4881 -0.7928
vn -0.3535 0.4828 0.8012
vn -0.2357 0.5061 0.8296
vn -0.2529 0.4358 0.8638
vn -0.9539 0.0272 0.2988
vn -0.9573 0.0271 0.2879
vn -0.9607 0.0270 0.2762
vn -0.9643 0.0268 0.2636
vn -0.2160 0.0375 0.9757
vn -0.2181 0.0375 0.9752
vn -0.2204 0.0375 0.9747
vn -0.2228 0.0375 0.9741
vn -0.9909 0.0327 -0.1305
vn -0.9903 0.0327 -0.1348
vn -0.9897 0.0326 -0.1391
vn -0.9891 0.0326 -0.1434
vn -0.5965 0.0352 0.8018
vn -0.5867 0.0352 0.8090
vn -0.5767 0.0353 0.8162
vn -0.5665 0.0354 0.8233
vn -0.4656 0.0128 -0.8849
vn -0.4621 0.0127 -0.8868
vn -0.4581 0.0126 -0.8888
vn -0.4538 0.0125 -0.8910
vn 0.9539 0.0272 0.2988
vn 0.9573 0.0271 0.2879
vn 0.9607 0.0270 0.2762
vn 0.9643 0.0268 0.2636
vn 0.2160 0.0375 0.9757
vn 0.2181 0.0375 0.9752
vn 0.2204 0.0375 0.9747
vn 0.2228 0.0375 0.9741
vn 0.9909 0.0327 -0.1305
vn 0.9903 0.0327 -0.1348
vn 0.9897 0.0326 -0.1391
vn 0.9891 0.0326 -0.1434
vn 0.5965 0.0352 0.8018
vn 0.5867 0.0352 0.8090
vn 0.5767 0.0353 0.8162
vn 0.5665 0.0354 0.8233
vn 0.4656 0.0128 -0.8849
vn 0.4621 0.0127 -0.8868
vn 0.4581 0.0126 -0.8888
vn 0.4538 0.0125 -0.8910
vn 0.2482 -0.6384 -0.7286
vn -0.1323 0.5097 0.8501
vn -0.0183 0.4301 0.9026
vn 0.1965 -0.7675 0.6102
vn -0.4735 0.8071 -0.3526
vn -0.3238 0.7232 0.6100
vn 0.3343 -0.6340 -0.6974
vn 0.1396 -0.6556 -0.7421
vn -0.2482 -0.6384 -0.7286
vn 0.1323 0.5097 0.8501
vn 0.0183 0.4301 0.9026
vn -0.1965 -0.7675 0.6102
vn 0.4735 0.8071 -0.3526
vn 0.3238 0.7232 0.6100
vn -0.3343 -0.6340 -0.6974
vn -0.1396 -0.6556 -0.7421
vn 0.4480 0.8819 -0.1464
vn -0.2649 0.4560 0.8496
vn 0.2752 -0.4605 -0.8439
vn -0.3612 -0.8711 0.3328
vn -0.2335 0.5120 0.8267
vn 0.2430 -0.5198 -0.8190
vn 0.3001 0.9094 -0.2881
vn -0.2928 -0.8633 0.4111
vn -0.2490 0.4525 0.8563
vn 0.2598 -0.4574 -0.8504
vn -0.1736 -0.8709 0.4597
vn 0.2550 0.8700 -0.4220
vn -0.9959 0.0907 -0.0016
vn 0.9924 -0.1231 0.0021
vn 0.9959 0.0907 -0.0016
vn -0.9924 -0.1231 0.0021
vn -0.9959 0.0907 -0.0026
vn 0.9924 -0.1231 0.0035
vn 0.9959 0.0907 -0.0026
vn -0.9924 -0.1231 0.0035
vn -0.9924 -0.1231 0.0007
vn 0.9959 0.0907 -0.0005
vn 0.9924 -0.1231 0.0007
vn -0.9959 0.0907 -0.0005
vn -0.0610 0.9894 -0.1318
vn 0.0481 0.9894 -0.1369
vn -0.9686 -0.0031 0.2486
vn 0.9871 -0.0020 0.1598
vn 0.0610 0.9894 -0.1318
vn -0.0480 0.9894 -0.1369
vn 0.9686 -0.0031 0.2486
vn -0.9871 -0.0020 0.1598
vn 0.9480 -0.0080 0.3183
vn -0.9102 -0.0105 0.4139
vn 0.0439 0.9946 -0.0937
vn -0.0574 0.9952 -0.0795
vn -0.9480 -0.0080 0.3183
vn 0.9102 -0.0105 0.4139
vn -0.0439 0.9946 -0.0937
vn 0.0574 0.9952 -0.0795
vn -0.1349 0.8743 -0.4663
vn -0.9631 0.2688 0.0116
vn -0.1982 0.8753 -0.4410
vn -0.8016 -0.3320 0.4973
vn -0.2711 -0.6428 0.7165
vn 0.1349 0.8743 -0.4663
vn 0.9631 0.2688 0.0116
vn 0.1982 0.8753 -0.4410
vn 0.8016 -0.3320 0.4973
vn 0.2711 -0.6428 0.7165
vn -0.4873 0.8701 0.0740
vn 0.2473 0.9654 -0.0831
vn -0.9520 0.2236 0.2092
vn -0.8217 -0.4940 0.2843
vn -0.8093 0.5641 0.1638
vn -0.3388 -0.9185 0.2037
vn 0.4873 0.8701 0.0740
vn -0.2473 0.9654 -0.0831
vn 0.9520 0.2236 0.2092
vn 0.8217 -0.4940 0.2843
vn 0.8093 0.5641 0.1638
vn 0.3388 -0.9185 0.2037
vn -0.9659 0.2541 -0.0498
vn 0.9659 0.2541 -0.0498
vn -0.3582 0.4744 0.8041
vn -0.2865 0.4842 0.8268
vn -0.3392 0.4988 0.7976
vn -0.3590 0.4595 0.8124
vn 0.2845 -0.4898 -0.8241
vn 0.2638 -0.5191 -0.8130
vn 0.2762 -0.4848 -0.8299
vn 0.3699 -0.4793 -0.7959
vn -0.4215 -0.8144 0.3990
vn 0.5255 0.8244 -0.2105
vn -0.3405 0.4954 0.7991
vn -0.3354 -0.8196 0.4644
vn 0.3530 -0.5002 -0.7907
vn 0.3389 0.8759 -0.3435
vn -0.3583 0.4625 0.8110
vn 0.3708 -0.4690 -0.8016
vn -0.2036 -0.8094 0.5508
vn 0.2877 0.8332 -0.4722
vn 0.3582 0.4744 0.8041
vn -0.2845 -0.4898 -0.8241
vn -0.2638 -0.5191 -0.8130
vn -0.2762 -0.4848 -0.8299
vn 0.2865 0.4842 0.8268
vn 0.3392 0.4988 0.7976
vn 0.3590 0.4595 0.8124
vn -0.3699 -0.4793 -0.7959
vn 0.4215 -0.8144 0.3990
vn -0.5255 0.8244 -0.2105
vn 0.3405 0.4954 0.7991
vn 0.3354 -0.8196 0.4644
vn -0.3530 -0.5002 -0.7907
vn -0.3389 0.8759 -0.3435
vn 0.3583 0.4625 0.8110
vn -0.3708 -0.4690 -0.8016
vn 0.2036 -0.8094 0.5508
vn -0.2877 0.8332 -0.4722
vt 0.917991 0.687560
vt 0.916573 0.658106
vt 0.935761 0.657930
vt 0.937179 0.687384
vt 0.937190 0.325646
vt 0.922111 0.323770
vt 0.906923 0.278319
vt 0.924839 0.278757
vt 0.169219 0.739461
vt 0.160012 0.719917
vt 0.169773 0.720365
vt 0.178468 0.733693
vt 0.372694 0.762667
vt 0.378940 0.750727
vt 0.405989 0.775515
vt 0.400140 0.789472
vt 0.125303 0.445666
vt 0.132033 0.428894
vt 0.154958 0.426494
vt 0.149886 0.446812
vt 0.956356 0.656995
vt 0.957774 0.686449
vt 0.847302 0.833750
vt 0.828218 0.829262
vt 0.812773 0.788139
vt 0.847302 0.780566
vt 0.880995 0.278059
vt 0.869256 0.231488
vt 0.884322 0.232174
vt 0.913538 0.229585
vt 0.894122 0.231305
vt 0.891118 0.218147
vt 0.910534 0.216427
vt 0.771743 0.798170
vt 0.792392 0.804434
vt 0.789885 0.822383
vt 0.768032 0.815754
vt 0.308460 0.676134
vt 0.327202 0.630878
vt 0.365450 0.666669
vt 0.342046 0.715589
vt 0.933873 0.756241
vt 0.938598 0.716838
vt 0.959193 0.715903
vt 0.964726 0.751820
vt 0.423843 0.726482
vt 0.433673 0.741524
vt 0.751499 0.803950
vt 0.759545 0.785969
vt 0.901320 0.057255
vt 0.892846 0.058006
vt 0.895053 0.021187
vt 0.903527 0.020436
vt 0.036155 0.997035
vt 0.014958 0.983905
vt 0.014172 0.978230
vt 0.036177 0.980057
vt 0.549653 0.441351
vt 0.523535 0.416249
vt 0.547630 0.420175
vt 0.564431 0.431400
vt 0.345725 0.814826
vt 0.344558 0.792163
vt 0.359360 0.794747
vt 0.360006 0.819705
vt 0.919410 0.717014
vt 0.479269 0.761998
vt 0.467177 0.716070
vt 0.514303 0.742281
vt 0.875691 0.061002
vt 0.883878 0.025104
vt 0.414014 0.711440
vt 0.351891 0.725938
vt 0.869655 0.147773
vt 0.867504 0.096901
vt 0.890639 0.094824
vt 0.882234 0.146178
vt 0.897446 0.144830
vt 0.831099 0.745642
vt 0.439555 0.701386
vt 0.453103 0.724900
vt 0.035790 0.780006
vt 0.017005 0.778355
vt 0.018457 0.762484
vt 0.035766 0.764044
vt 0.493152 0.844524
vt 0.507657 0.844885
vt 0.507657 0.862458
vt 0.493151 0.861932
vt 0.812773 0.802114
vt 0.812773 0.822536
vt 0.795195 0.731823
vt 0.802460 0.734026
vt 0.800261 0.747790
vt 0.792996 0.745587
vt 0.577596 0.688618
vt 0.577596 0.664708
vt 0.584678 0.664351
vt 0.584678 0.688261
vt 0.468157 0.859575
vt 0.476166 0.859054
vt 0.477254 0.875343
vt 0.469245 0.875863
vt 0.932749 0.634557
vt 0.954245 0.633245
vt 0.479642 0.858972
vt 0.480664 0.874279
vt 0.390896 0.806858
vt 0.374163 0.808088
vt 0.374251 0.792902
vt 0.390619 0.792163
vt 0.939449 0.480502
vt 0.922041 0.482611
vt 0.919364 0.444624
vt 0.935750 0.442317
vt 0.385029 0.858218
vt 0.382704 0.879756
vt 0.375265 0.880092
vt 0.374714 0.858784
vt 0.346292 0.612940
vt 0.384065 0.651347
vt 0.496051 0.786703
vt 0.518336 0.771563
vt 0.557403 0.781128
vt 0.532476 0.792163
vt 0.432715 0.817448
vt 0.447234 0.817384
vt 0.453653 0.842605
vt 0.431490 0.842605
vt 0.002573 0.782556
vt 0.005334 0.764414
vt 0.915289 0.634717
vt 0.326676 0.885249
vt 0.310335 0.886315
vt 0.310668 0.883766
vt 0.326646 0.882723
vt 0.016438 0.818330
vt 0.002058 0.822289
vt 0.490039 0.494537
vt 0.461171 0.461282
vt 0.489846 0.437729
vt 0.519055 0.470589
vt 0.783845 0.744950
vt 0.793243 0.733369
vt 0.150200 0.707222
vt 0.152214 0.721304
vt 0.143652 0.725011
vt 0.147334 0.710186
vt 0.426006 0.677872
vt 0.500678 0.429643
vt 0.531416 0.458885
vt 0.055789 0.398733
vt 0.045333 0.418130
vt 0.039802 0.413472
vt 0.051730 0.398683
vt 0.633091 0.824680
vt 0.615162 0.815751
vt 0.619204 0.807715
vt 0.637133 0.816644
vt 0.905963 0.482758
vt 0.903632 0.444768
vt 0.718438 0.791591
vt 0.725808 0.791355
vt 0.724615 0.800920
vt 0.715769 0.805409
vt 0.362741 0.600606
vt 0.330219 0.570951
vt 0.346474 0.555490
vt 0.373977 0.590328
vt 0.289552 0.610210
vt 0.309886 0.590580
vt 0.623375 0.834938
vt 0.602508 0.834938
vt 0.575194 0.639876
vt 0.582276 0.639519
vt 0.154883 0.742011
vt 0.141156 0.740329
vt 0.693115 0.751680
vt 0.698689 0.704465
vt 0.716374 0.710153
vt 0.714384 0.748513
vt 0.805268 0.737017
vt 0.808179 0.752331
vt 0.035867 0.820016
vt 0.586794 0.801553
vt 0.590837 0.793518
vt 0.899113 0.094073
vt 0.311269 0.814461
vt 0.310335 0.792618
vt 0.317315 0.792163
vt 0.320965 0.813927
vt 0.311449 0.867455
vt 0.327235 0.866892
vt 0.582276 0.706560
vt 0.575194 0.706917
vt 0.918332 0.757833
vt 0.170892 0.395903
vt 0.175849 0.382639
vt 0.212562 0.382454
vt 0.212297 0.394251
vt 0.146894 0.396325
vt 0.158091 0.382385
vt 0.892002 0.317611
vt 0.281115 0.639974
vt 0.208025 0.416310
vt 0.539975 0.494511
vt 0.551986 0.483229
vt 0.586830 0.816692
vt 0.076935 0.422546
vt 0.102652 0.420144
vt 0.091067 0.448463
vt 0.079270 0.440328
vt 0.510545 0.520223
vt 0.916904 0.421903
vt 0.930373 0.426926
vt 0.394820 0.629285
vt 0.392827 0.623073
vt 0.570830 0.465712
vt 0.575194 0.447224
vt 0.295162 0.821239
vt 0.307668 0.818447
vt 0.305001 0.844731
vt 0.294599 0.850315
vt 0.881318 0.219016
vt 0.881776 0.182597
vt 0.866252 0.218330
vt 0.479540 0.808886
vt 0.469752 0.809522
vt 0.470284 0.792838
vt 0.480664 0.792163
vt 0.536156 0.840376
vt 0.536153 0.856447
vt 0.521940 0.858366
vt 0.521940 0.842139
vt 0.575194 0.552135
vt 0.583595 0.553650
vt 0.583016 0.570854
vt 0.575194 0.569443
vt 0.157998 0.705835
vt 0.160110 0.707743
vt 0.020887 0.727972
vt 0.010275 0.735856
vt 0.013218 0.714205
vt 0.022589 0.705845
vt 0.035727 0.729371
vt 0.035765 0.705835
vt 0.678867 0.799812
vt 0.668515 0.797840
vt 0.671104 0.777815
vt 0.681612 0.781941
vt 0.655633 0.797150
vt 0.658120 0.777119
vt 0.667257 0.820798
vt 0.678516 0.820033
vt 0.681612 0.842103
vt 0.668302 0.842418
vt 0.654213 0.820103
vt 0.654737 0.841656
vt 0.912678 0.388536
vt 0.924187 0.400396
vt 0.902244 0.422037
vt 0.899050 0.388595
vt 0.311826 0.851879
vt 0.312203 0.836304
vt 0.324615 0.835691
vt 0.325925 0.851292
vt 0.182458 0.778235
vt 0.160292 0.782177
vt 0.157552 0.762718
vt 0.178426 0.759006
vt 0.138660 0.777343
vt 0.138660 0.755648
vt 0.389125 0.821769
vt 0.387354 0.836681
vt 0.374163 0.837476
vt 0.374163 0.822782
vt 0.797580 0.767137
vt 0.810476 0.767012
vt 0.812773 0.781693
vt 0.794899 0.786485
vt 0.784225 0.763087
vt 0.775454 0.780587
vt 0.767590 0.767988
vt 0.775718 0.756469
vt 0.187162 0.747022
vt 0.195799 0.767181
vt 0.676031 0.695746
vt 0.677256 0.748062
vt 0.672908 0.698179
vt 0.837118 0.731823
vt 0.059906 0.421672
vt 0.067211 0.439689
vt 0.767954 0.277721
vt 0.776185 0.227857
vt 0.801556 0.232516
vt 0.788630 0.272881
vt 0.745058 0.354126
vt 0.727601 0.349034
vt 0.726906 0.326692
vt 0.744208 0.336282
vt 0.748451 0.278540
vt 0.726612 0.265784
vt 0.726318 0.204876
vt 0.752693 0.220797
vt 0.723056 0.650495
vt 0.705123 0.656793
vt 0.693872 0.603434
vt 0.719754 0.588224
vt 0.075209 0.488340
vt 0.085680 0.489858
vt 0.092090 0.539387
vt 0.083206 0.536991
vt 0.733687 0.768774
vt 0.743065 0.770709
vt 0.734630 0.806141
vt 0.726357 0.805725
vt 0.715769 0.778132
vt 0.710673 0.861319
vt 0.701475 0.859013
vt 0.707663 0.776424
vt 0.684921 0.657357
vt 0.660901 0.655391
vt 0.760722 0.359150
vt 0.759723 0.327586
vt 0.459627 0.781243
vt 0.191612 0.435777
vt 0.241012 0.409867
vt 0.246706 0.391519
vt 0.281115 0.388787
vt 0.273999 0.403424
vt 0.544748 0.756894
vt 0.575194 0.771506
vt 0.246839 0.381182
vt 0.281115 0.379910
vt 0.536165 0.835047
vt 0.536165 0.792163
vt 0.541857 0.818758
vt 0.122896 0.396746
vt 0.109107 0.431294
vt 0.775704 0.313246
vt 0.772455 0.362417
vt 0.716779 0.776424
vt 0.140332 0.382132
vt 0.065185 0.379728
vt 0.548865 0.802556
vt 0.011039 0.705835
vt 0.000000 0.703712
vt 0.003217 0.676950
vt 0.014424 0.679317
vt 0.024029 0.646507
vt 0.034656 0.648881
vt 0.692830 0.824674
vt 0.681612 0.823413
vt 0.684060 0.801151
vt 0.695421 0.802306
vt 0.690201 0.776424
vt 0.701475 0.778656
vt 0.585014 0.500210
vt 0.575194 0.498629
vt 0.576193 0.416249
vt 0.585014 0.417120
vt 0.728952 0.100281
vt 0.771454 0.118204
vt 0.678094 0.502863
vt 0.720084 0.485721
vt 0.883456 0.937911
vt 0.894097 0.936702
vt 0.897212 0.943953
vt 0.886715 0.945556
vt 0.896192 0.895811
vt 0.886045 0.897055
vt 0.585792 0.824730
vt 0.574714 0.825378
vt 0.573878 0.812005
vt 0.584957 0.811194
vt 0.785121 0.076638
vt 0.813038 0.094513
vt 0.802510 0.132825
vt 0.776068 0.118555
vt 0.713221 0.895980
vt 0.715769 0.930640
vt 0.705477 0.927736
vt 0.703476 0.893374
vt 0.574816 0.792481
vt 0.585793 0.792163
vt 0.649229 0.418182
vt 0.657933 0.421151
vt 0.629416 0.442753
vt 0.634024 0.430264
vt 0.912697 0.925709
vt 0.922641 0.923637
vt 0.926219 0.934221
vt 0.916417 0.936469
vt 0.054887 0.618446
vt 0.044841 0.616065
vt 0.924622 0.886083
vt 0.915178 0.888017
vt 0.686694 0.858113
vt 0.697152 0.859657
vt 0.701475 0.894641
vt 0.691775 0.892812
vt 0.920646 0.757833
vt 0.926603 0.848530
vt 0.917658 0.850325
vt 0.912697 0.759353
vt 0.573878 0.827535
vt 0.563232 0.829245
vt 0.561972 0.816109
vt 0.572674 0.814222
vt 0.563065 0.793420
vt 0.573878 0.792163
vt 0.735730 0.918719
vt 0.745309 0.920138
vt 0.751499 0.953040
vt 0.741485 0.951286
vt 0.817248 0.100778
vt 0.851395 0.117833
vt 0.836538 0.149925
vt 0.805316 0.137002
vt 0.611237 0.446632
vt 0.623450 0.450877
vt 0.586794 0.471828
vt 0.591419 0.459439
vt 0.739119 0.887237
vt 0.729975 0.886152
vt 0.892121 0.757833
vt 0.898286 0.854919
vt 0.888634 0.856200
vt 0.883456 0.759185
vt 0.778201 0.076110
vt 0.727635 0.057187
vt 0.726318 0.014093
vt 0.784948 0.034017
vt 0.723220 0.443918
vt 0.673176 0.462027
vt 0.668259 0.421190
vt 0.726357 0.402114
vt 0.647312 0.517052
vt 0.672931 0.502843
vt 0.671152 0.610248
vt 0.613311 0.533984
vt 0.644329 0.521114
vt 0.645772 0.615037
vt 0.898803 0.687736
vt 0.897385 0.658282
vt 0.942857 0.275134
vt 0.952536 0.321074
vt 0.107804 0.739562
vt 0.098684 0.734188
vt 0.107496 0.720633
vt 0.117413 0.719848
vt 0.926204 0.178659
vt 0.912659 0.143481
vt 0.931230 0.142316
vt 0.944480 0.176269
vt 0.429504 0.343611
vt 0.415010 0.367379
vt 0.396449 0.348306
vt 0.412621 0.330235
vt 0.874076 0.687216
vt 0.872657 0.657762
vt 0.527897 0.260299
vt 0.488962 0.298596
vt 0.470679 0.259420
vt 0.507624 0.238279
vt 0.942754 0.226995
vt 0.960735 0.223381
vt 0.972474 0.269952
vt 0.929949 0.214706
vt 0.932953 0.227864
vt 0.248789 0.782258
vt 0.245239 0.800123
vt 0.224042 0.791628
vt 0.228760 0.774231
vt 0.558406 0.321355
vt 0.523670 0.361179
vt 0.507210 0.316650
vt 0.546520 0.281160
vt 0.901893 0.756534
vt 0.868574 0.752701
vt 0.875494 0.716669
vt 0.900222 0.717189
vt 0.962996 0.128891
vt 0.973238 0.143303
vt 0.263870 0.779537
vt 0.263870 0.800590
vt 0.912002 0.019685
vt 0.909795 0.056503
vt 0.058218 0.978213
vt 0.057408 0.983889
vt 0.318804 0.040881
vt 0.300974 0.023057
vt 0.318326 0.012691
vt 0.343260 0.011630
vt 0.374162 0.819790
vt 0.374162 0.797331
vt 0.384051 0.398598
vt 0.345965 0.368199
vt 0.926345 0.021340
vt 0.931149 0.056087
vt 0.513521 0.371541
vt 0.457316 0.360985
vt 0.907588 0.093322
vt 0.935953 0.090835
vt 0.449624 0.303431
vt 0.445091 0.372894
vt 0.432866 0.384803
vt 0.053106 0.762470
vt 0.054607 0.778341
vt 0.521940 0.844623
vt 0.521940 0.862110
vt 0.507657 0.863408
vt 0.507661 0.845766
vt 0.204435 0.776772
vt 0.212239 0.758847
vt 0.254114 0.708659
vt 0.250732 0.722180
vt 0.243686 0.719357
vt 0.247068 0.705835
vt 0.577596 0.727417
vt 0.584678 0.727060
vt 0.584678 0.750970
vt 0.577596 0.751327
vt 0.493151 0.859637
vt 0.492060 0.875925
vt 0.484053 0.875374
vt 0.485144 0.859086
vt 0.872477 0.633994
vt 0.897829 0.634877
vt 0.480664 0.874299
vt 0.481690 0.858993
vt 0.407331 0.865759
vt 0.406280 0.881108
vt 0.390896 0.881458
vt 0.391536 0.865653
vt 0.869355 0.481144
vt 0.868574 0.442932
vt 0.887900 0.444912
vt 0.889886 0.482905
vt 0.401338 0.813663
vt 0.391628 0.813786
vt 0.390896 0.792322
vt 0.397888 0.792163
vt 0.939503 0.002278
vt 0.945619 0.041091
vt 0.427549 0.818662
vt 0.431490 0.844387
vt 0.407331 0.844387
vt 0.410649 0.818275
vt 0.066319 0.764391
vt 0.069142 0.782531
vt 0.344558 0.792163
vt 0.344173 0.794501
vt 0.327235 0.796427
vt 0.327235 0.794132
vt 0.055329 0.818315
vt 0.069813 0.822263
vt 0.379536 0.107450
vt 0.350731 0.078587
vt 0.378891 0.041925
vt 0.407415 0.070423
vt 0.255191 0.711295
vt 0.258792 0.727615
vt 0.127704 0.706932
vt 0.130830 0.709809
vt 0.133772 0.724307
vt 0.125256 0.720945
vt 0.443998 0.319843
vt 0.366974 0.030031
vt 0.338038 0.063842
vt 0.456477 0.258508
vt 0.457428 0.252065
vt 0.471802 0.251011
vt 0.641175 0.808608
vt 0.623247 0.799680
vt 0.715769 0.776424
vt 0.724615 0.780261
vt 0.494754 0.222900
vt 0.521512 0.184419
vt 0.537664 0.202921
vt 0.577372 0.248606
vt 0.557518 0.225763
vt 0.916719 -0.000000
vt 0.582276 0.773959
vt 0.575194 0.774315
vt 0.122225 0.741579
vt 0.136216 0.739436
vt 0.619958 0.363668
vt 0.598704 0.360487
vt 0.596728 0.322064
vt 0.614366 0.316439
vt 0.235187 0.718156
vt 0.243526 0.706620
vt 0.594879 0.785482
vt 0.331042 0.862516
vt 0.341295 0.861250
vt 0.340147 0.882997
vt 0.332748 0.883838
vt 0.327843 0.811700
vt 0.344454 0.809334
vt 0.575194 0.707274
vt 0.582276 0.706917
vt 0.170892 0.369367
vt 0.212297 0.371339
vt 0.146894 0.367056
vt 0.983480 0.309504
vt 0.586794 0.284576
vt 0.154958 0.343059
vt 0.208025 0.350652
vt 0.326926 0.098771
vt 0.314404 0.084211
vt 0.631125 0.778049
vt 0.607086 0.776424
vt 0.076935 0.330836
vt 0.079270 0.309748
vt 0.091067 0.303460
vt 0.102652 0.338243
vt 0.355901 0.129219
vt 0.887583 0.422171
vt 0.872179 0.427459
vt 0.294582 0.061257
vt 0.289882 0.039476
vt 0.284414 0.844731
vt 0.282765 0.818447
vt 0.939749 0.213837
vt 0.957731 0.210223
vt 0.481784 0.808894
vt 0.480664 0.792163
vt 0.491042 0.792876
vt 0.491569 0.809566
vt 0.453655 0.846168
vt 0.468157 0.846635
vt 0.468157 0.864792
vt 0.453655 0.864160
vt 0.583722 0.622084
vt 0.583134 0.639161
vt 0.575194 0.639519
vt 0.575194 0.622469
vt 0.119860 0.705835
vt 0.117764 0.707812
vt 0.283057 0.056274
vt 0.281115 0.032949
vt 0.048940 0.705835
vt 0.050596 0.727960
vt 0.293866 0.015092
vt 0.061280 0.735836
vt 0.642750 0.796459
vt 0.645137 0.776424
vt 0.312916 0.002228
vt 0.336612 -0.000000
vt 0.641191 0.840966
vt 0.641175 0.819401
vt 0.874174 0.400854
vt 0.885434 0.388786
vt 0.328589 0.826447
vt 0.343448 0.824419
vt 0.342443 0.839503
vt 0.329336 0.841194
vt 0.094217 0.778549
vt 0.098196 0.759276
vt 0.119193 0.762212
vt 0.116514 0.781667
vt 0.138660 0.754565
vt 0.138660 0.776133
vt 0.406060 0.850461
vt 0.391949 0.850451
vt 0.392361 0.835249
vt 0.404788 0.835162
vt 0.238582 0.738095
vt 0.233478 0.756834
vt 0.220043 0.740921
vt 0.227615 0.729539
vt 0.251536 0.743287
vt 0.261331 0.743050
vt 0.263870 0.758484
vt 0.252340 0.764393
vt 0.081185 0.768096
vt 0.089872 0.747743
vt 0.975684 0.643711
vt 0.986811 0.643466
vt 1.000000 0.691601
vt 0.991130 0.700111
vt 0.059906 0.333606
vt 0.067211 0.311509
vt 0.821667 0.647542
vt 0.800183 0.641991
vt 0.786515 0.602117
vt 0.811819 0.596977
vt 0.849522 0.728856
vt 0.848764 0.709001
vt 0.867558 0.701819
vt 0.868574 0.726179
vt 0.842218 0.649630
vt 0.835672 0.590260
vt 0.862335 0.574814
vt 0.864946 0.638316
vt 0.590012 0.262406
vt 0.593231 0.200209
vt 0.619109 0.215424
vt 0.607919 0.268744
vt 0.075209 0.252552
vt 0.083206 0.193595
vt 0.092090 0.191151
vt 0.085680 0.250450
vt 0.970205 0.601411
vt 0.964726 0.559111
vt 0.973093 0.559788
vt 0.979952 0.601627
vt 0.880861 0.901742
vt 0.871833 0.902413
vt 0.868574 0.852564
vt 0.878266 0.851913
vt 0.628095 0.269340
vt 0.652098 0.267386
vt 0.636984 0.307763
vt 0.832170 0.731277
vt 0.831515 0.698108
vt 0.400586 0.416249
vt 0.241012 0.354797
vt 0.273999 0.358942
vt 0.281115 0.371033
vt 0.246706 0.371186
vt 0.313540 0.378774
vt 0.342679 0.402234
vt 0.301307 0.405870
vt 0.281115 0.389350
vt 0.453252 0.283206
vt 0.045333 0.339265
vt 0.055789 0.356843
vt 0.122896 0.364745
vt 0.132033 0.338183
vt 0.109107 0.333307
vt 0.818689 0.731823
vt 0.813851 0.681866
vt 0.596244 0.388536
vt 0.455552 0.261770
vt 0.011039 -0.000000
vt 0.014424 0.021663
vt 0.003217 0.024840
vt 0.000000 0.003030
vt 0.024029 0.062073
vt 0.034656 0.059079
vt 0.267740 0.724496
vt 0.267628 0.706488
vt 0.279062 0.705835
vt 0.279089 0.723876
vt 0.228075 0.800590
vt 0.228075 0.828651
vt 0.217202 0.828228
vt 0.217029 0.801344
vt 0.276517 0.865261
vt 0.279089 0.918137
vt 0.270288 0.918829
vt 0.267079 0.865935
vt 0.827530 0.542999
vt 0.819387 0.495738
vt 0.862352 0.478308
vt 0.862343 0.526561
vt 0.593100 0.148847
vt 0.592970 0.097485
vt 0.634955 0.114628
vt 0.627032 0.165026
vt 0.214670 0.800591
vt 0.217029 0.807341
vt 0.206692 0.807166
vt 0.204435 0.800590
vt 0.860409 0.776246
vt 0.849909 0.776139
vt 0.847302 0.731927
vt 0.858358 0.731823
vt 0.872263 0.770159
vt 0.872371 0.758148
vt 0.883456 0.757833
vt 0.883281 0.769547
vt 0.807345 0.458588
vt 0.814719 0.496088
vt 0.787690 0.509452
vt 0.778727 0.475276
vt 0.880774 0.810730
vt 0.870419 0.811361
vt 0.214895 0.827475
vt 0.204435 0.826338
vt 0.663916 0.029680
vt 0.679110 0.041783
vt 0.683709 0.054299
vt 0.655210 0.032661
vt 0.559073 0.794041
vt 0.561972 0.803574
vt 0.551794 0.801580
vt 0.548865 0.792163
vt 0.064024 0.146450
vt 0.044841 0.099306
vt 0.054887 0.096495
vt 0.073488 0.143823
vt 0.910715 0.798085
vt 0.900829 0.797396
vt 0.898286 0.757833
vt 0.908732 0.758498
vt 0.276517 0.768130
vt 0.273945 0.812384
vt 0.263870 0.813041
vt 0.265805 0.768769
vt 0.909594 0.885923
vt 0.900829 0.885185
vt 0.903372 0.836960
vt 0.912697 0.837673
vt 0.987815 0.400197
vt 0.989482 0.388536
vt 1.000000 0.389706
vt 0.998286 0.401226
vt 0.558847 0.827826
vt 0.548865 0.824971
vt 0.980227 0.435245
vt 0.990172 0.436187
vt 0.774429 0.481264
vt 0.784824 0.513444
vt 0.753334 0.526131
vt 0.739845 0.497725
vt 0.701891 0.058165
vt 0.721701 0.070985
vt 0.726318 0.083398
vt 0.689673 0.062431
vt 0.968683 0.514703
vt 0.972640 0.470294
vt 0.982058 0.471147
vt 0.977576 0.515467
vt 0.859297 0.873677
vt 0.849909 0.873149
vt 0.852517 0.820351
vt 0.862461 0.820669
vt 0.825196 0.543174
vt 0.799754 0.553215
vt 0.798322 0.555211
vt 0.769924 0.564124
vt 0.814346 0.458063
vt 0.809305 0.420388
vt 0.868574 0.400974
vt 0.865463 0.439641
vt 0.589882 0.055559
vt 0.586794 0.013633
vt 0.644885 0.032705
vt 0.639920 0.073667
vt 0.653774 0.175537
vt 0.641824 0.222240
vt 0.629613 0.165015
vt 0.683466 0.186388
vt 0.667211 0.227009
vt 0.655265 0.177570
vt 0.442826 0.220563
vt 0.465950 0.194037
vt 0.413851 0.190115
vt 0.437145 0.165175
vt 0.384876 0.159667
vt 0.408340 0.136312
vt 0.036099 0.940047
vt 0.057496 0.938238
vt 0.036022 0.900037
vt 0.056774 0.898264
vt 0.035944 0.860026
vt 0.056052 0.858290
vt 0.895844 0.596884
vt 0.912958 0.596727
vt 0.893858 0.558891
vt 0.910626 0.558737
vt 0.891872 0.520898
vt 0.908295 0.520748
vt 0.492988 0.155920
vt 0.464464 0.127421
vt 0.435939 0.098922
vt 0.071826 0.941462
vt 0.072497 0.981195
vt 0.071155 0.901729
vt 0.070484 0.861996
vt 0.871697 0.595781
vt 0.870916 0.557569
vt 0.870136 0.519357
vt 0.402993 0.566380
vt 0.422256 0.597360
vt 0.432008 0.542432
vt 0.451686 0.571648
vt 0.461024 0.518485
vt 0.481115 0.545935
vt 0.014739 0.938255
vt 0.015305 0.898280
vt 0.015872 0.858305
vt 0.930072 0.596570
vt 0.927395 0.558584
vt 0.924718 0.520597
vt 0.375148 0.531938
vt 0.403823 0.508386
vt 0.432497 0.484834
vt -0.000000 0.981223
vt 0.000515 0.941489
vt 0.001029 0.901756
vt 0.001544 0.862023
vt 0.950546 0.595059
vt 0.946847 0.556874
vt 0.943148 0.518688
vt 0.741018 0.731823
vt 0.751499 0.735276
vt 0.726357 0.712766
vt 0.586794 0.324603
vt 0.665724 0.128834
vt 0.640117 0.114606
vt 0.856134 0.926685
vt 0.847302 0.925946
vt 0.883456 0.951571
vt 0.875091 0.952262
vt 0.699722 0.145767
vt 0.668706 0.132899
vt 0.906491 0.934173
vt 0.898286 0.933411
vt 0.584897 0.587931
vt 0.584309 0.605007
vt 0.575194 0.605418
vt 0.575194 0.588368
vt 0.453654 0.810184
vt 0.468157 0.810320
vt 0.468157 0.828477
vt 0.453654 0.828176
vt 0.484024 0.842355
vt 0.482904 0.825624
vt 0.492097 0.826256
vt 0.492624 0.842946
vt 0.521940 0.809650
vt 0.521940 0.827136
vt 0.507665 0.828124
vt 0.507669 0.810482
vt 0.575194 0.517519
vt 0.584753 0.519243
vt 0.584174 0.536447
vt 0.575194 0.534827
vt 0.536162 0.808234
vt 0.536159 0.824305
vt 0.521940 0.825913
vt 0.521940 0.809687
vt 0.477291 0.842331
vt 0.468689 0.842891
vt 0.469220 0.826206
vt 0.478415 0.825608
vt 0.493153 0.809706
vt 0.507657 0.809737
vt 0.507657 0.827311
vt 0.493153 0.827115
vt 0.493154 0.792298
vt 0.507657 0.792163
vt 0.536165 0.792163
vt 0.521940 0.793461
vt 0.575194 0.500210
vt 0.585332 0.502039
vt 0.521940 0.792163
vt 0.507672 0.792840
vt 0.453653 0.792192
vt 0.468157 0.792163
vt 0.585485 0.570854
vt 0.575194 0.571318
vt 0.090238 0.797822
vt 0.072497 0.788449
vt 0.113835 0.801122
vt 0.138660 0.797700
vt 0.186491 0.797464
vt 0.204435 0.787340
vt 0.163033 0.801637
vt 0.138660 0.799038
vt 0.361984 0.415690
vt 0.983480 0.157716
vt 0.428793 0.312165
vt 0.100720 0.444521
vt 0.867954 0.183052
vt 0.295725 0.792163
vt 0.281116 0.792163
vt 0.423608 0.792937
vt 0.413967 0.792163
vt 0.374162 0.842250
vt 0.360651 0.844663
vt 0.310335 0.792163
vt 0.433941 0.792292
vt 0.440815 0.792163
vt 0.346892 0.837489
vt 0.611669 0.000000
vt 0.634914 0.013233
vt 0.647664 0.073633
vt 0.674716 0.091566
vt 0.679189 0.097665
vt 0.713020 0.114583
vt 0.819170 0.401912
vt 0.843457 0.388536
vt 0.769765 0.441100
vt 0.774566 0.429518
vt 0.790966 0.418112
vt 0.799971 0.421087
vt 0.726357 0.469318
vt 0.730950 0.457675
vt 0.751683 0.445140
vt 0.764034 0.449083
vt 0.751813 0.000000
vt 0.775656 0.014094
vt 0.823566 0.056201
vt 0.794175 0.034720
vt 0.803212 0.031382
vt 0.819153 0.043634
vt 0.866252 0.085741
vt 0.829179 0.064554
vt 0.841646 0.059997
vt 0.861994 0.073196
vt 0.678244 0.401756
vt 0.701497 0.388536
vt 0.638364 0.479902
vt 0.665432 0.461997
vt 0.600053 0.502906
vt 0.633889 0.485995
s 0
usemtl Material.001
f 86/1/1 54/2/1 39/3/1 88/4/1
f 51/5/2 18/6/2 96/7/2 108/8/2
f 478/9/3 33/10/3 82/11/3 482/12/3
f 500/13/4 498/14/4 4/15/4 42/16/4
f 501/17/5 496/18/5 3/19/5 145/20/5
f 88/4/6 39/3/6 1/21/6 95/22/6
f 99/23/7 105/24/7 10/25/7 92/26/7
f 96/7/8 106/27/8 12/28/8 107/29/8
f 55/30/9 14/31/9 7/32/9 62/33/9
f 96/7/10 107/29/10 14/31/10
f 462/34/9 461/35/9 77/36/9 36/37/9
f 106/38/11 104/39/11 17/40/11 12/41/11
f 18/42/12 35/43/12 13/44/12 2/45/12
f 498/14/13 502/46/13 150/47/13 4/15/13
f 462/34/9 36/37/9 84/48/9 466/49/9
f 487/50/14 484/51/14 8/52/14 61/53/14
f 56/54/15 38/55/15 25/56/15 45/57/15
f 59/58/16 115/59/16 116/60/16 102/61/16
f 509/62/17 21/63/17 72/64/17 512/65/17
f 57/66/1 86/1/1 88/4/1 35/43/1
f 93/67/18 3/68/18 144/69/18
f 484/51/19 486/70/19 22/71/19 8/52/19
f 12/41/20 17/40/20 28/72/20 26/73/20
f 4/74/21 15/75/21 11/76/21 42/77/21
f 62/33/22 7/32/22 42/77/22 53/78/22
f 92/26/23 10/25/23 129/79/23
f 502/46/24 501/80/24 145/81/24 150/47/24
f 73/82/25 76/83/25 5/84/25 70/85/25
f 440/86/26 442/87/26 27/88/26 29/89/26
f 461/35/9 464/90/9 65/91/9 77/36/9
f 32/92/9 79/93/9 6/94/9 30/95/9
f 35/43/6 88/4/6 95/22/6 13/44/6
f 36/96/27 77/97/27 78/98/27 37/99/27
f 34/100/28 29/101/28 79/102/28 32/103/28
f 1/21/29 39/3/29 20/104/29 50/105/29
f 29/101/30 66/106/30 68/107/30 79/102/30
f 67/108/31 69/109/31 68/110/31 66/111/31
f 364/112/32 355/113/32 21/114/32 43/115/32
f 465/116/33 64/117/33 65/118/33 464/119/33
f 104/39/34 99/120/34 92/121/34 17/40/34
f 486/122/35 489/123/35 91/124/35 22/125/35
f 509/126/36 510/127/36 23/128/36 21/129/36
f 76/83/37 46/130/37 41/131/37 5/84/37
f 39/3/38 54/2/38 44/132/38 20/104/38
f 34/133/39 32/134/39 81/135/39 83/136/39
f 359/137/40 363/138/40 46/130/40 76/83/40
f 379/139/41 364/140/41 43/141/41 98/142/41
f 32/92/9 30/95/9 80/143/9 81/144/9
f 29/145/42 27/146/42 67/147/42 66/148/42
f 17/40/43 92/121/43 89/149/43 28/72/43
f 40/150/44 101/151/44 98/142/44 43/141/44
f 38/152/45 10/153/45 47/154/45 25/155/45
f 8/156/46 90/157/46 87/158/46 61/159/46
f 355/113/47 375/160/47 72/161/47 21/114/47
f 75/162/48 74/163/48 48/164/48 49/165/48
f 105/166/49 1/167/49 50/168/49 100/169/49
f 13/170/50 95/171/50 99/120/50 104/39/50
f 22/172/51 91/173/51 90/157/51 8/156/51
f 77/97/52 65/174/52 64/175/52 78/98/52
f 483/176/53 480/177/53 67/147/53 27/146/53
f 478/9/54 483/176/54 27/146/54 33/10/54
f 24/178/55 148/179/55 133/180/55 153/181/55
f 79/93/9 68/182/9 69/183/9 6/94/9
f 371/184/56 359/137/56 76/83/56 73/82/56
f 90/157/57 9/185/57 60/186/57 87/158/57
f 95/171/58 1/167/58 105/166/58 99/120/58
f 42/77/59 11/76/59 58/187/59 53/78/59
f 466/188/60 84/189/60 85/190/60 467/191/60
f 80/192/61 82/193/61 83/136/61 81/135/61
f 36/96/62 37/99/62 85/194/62 84/195/62
f 51/196/63 57/66/63 35/43/63 18/42/63
f 16/197/64 52/198/64 151/199/64 152/200/64
f 497/201/65 499/202/65 52/198/65 16/197/65
f 18/6/66 2/203/66 106/27/66 96/7/66
f 2/204/67 13/170/67 104/39/67 106/38/67
f 3/19/68 16/197/68 152/200/68 144/205/68
f 46/206/69 98/142/69 101/151/69 41/207/69
f 91/173/70 19/208/70 9/185/70 90/157/70
f 155/209/71 153/210/71 133/211/71 131/212/71
f 363/213/72 379/139/72 98/142/72 46/206/72
f 23/214/73 40/215/73 43/115/73 21/114/73
f 10/216/74 105/166/74 100/169/74 47/217/74
f 110/218/75 59/58/75 102/61/75 109/219/75
f 511/220/76 510/221/76 48/222/76 74/223/76
f 7/32/22 94/224/22 500/225/22 42/77/22
f 12/28/77 26/226/77 94/224/77 107/29/77
f 446/227/28 447/228/28 94/229/28 7/230/28
f 441/231/78 34/232/78 33/233/78 443/234/78
f 442/235/27 443/236/27 33/237/27 27/238/27
f 34/239/79 83/240/79 82/11/79 33/10/79
f 108/8/80 96/7/80 14/31/80 55/30/80
f 112/241/81 110/242/81 109/243/81 111/244/81
f 113/245/82 112/241/82 111/244/82 114/246/82
f 102/247/83 103/248/83 111/249/83 109/250/83
f 41/207/84 101/151/84 59/58/84 110/218/84
f 5/84/85 41/131/85 110/242/85 112/241/85
f 70/85/86 5/84/86 112/241/86 113/245/86
f 103/248/87 97/251/87 114/252/87 111/249/87
f 118/253/88 116/254/88 115/255/88 117/256/88
f 119/257/89 118/253/89 117/256/89 120/258/89
f 116/254/90 118/253/90 103/248/90 102/247/90
f 40/215/91 23/214/91 117/259/91 115/260/91
f 101/151/92 40/150/92 115/59/92 59/58/92
f 23/214/93 71/261/93 120/262/93 117/259/93
f 118/253/94 119/257/94 97/251/94 103/248/94
f 481/263/95 127/264/95 128/265/95 482/266/95
f 463/267/96 460/268/96 124/269/96 123/270/96
f 460/268/97 465/271/97 126/272/97 124/269/97
f 480/273/98 126/274/98 125/275/98 479/276/98
f 476/277/9 479/278/9 125/279/9 121/280/9
f 477/281/9 122/282/9 127/283/9 481/284/9
f 477/281/9 476/277/9 121/280/9 122/282/9
f 463/267/99 123/270/99 128/285/99 467/286/99
f 139/287/100 24/178/100 89/288/100 138/289/100
f 89/290/101 92/26/101 129/79/101
f 156/291/102 155/209/102 131/212/102 130/292/102
f 407/293/103 146/294/103 140/295/103 404/296/103
f 154/297/104 156/298/104 130/299/104 132/300/104
f 400/301/105 402/302/105 134/303/105 136/304/105
f 403/305/106 401/306/106 137/307/106 135/308/106
f 402/309/107 403/310/107 135/311/107 134/312/107
f 405/313/108 404/314/108 140/315/108 141/316/108
f 146/317/109 183/318/109 184/319/109 149/320/109
f 406/321/110 148/179/110 139/287/110 405/322/110
f 129/323/111 154/297/111 132/300/111 147/324/111
f 401/306/112 133/180/112 148/179/112 406/321/112
f 400/301/113 136/304/113 146/294/113 407/293/113
f 150/47/114 145/81/114 93/67/114 15/325/114
f 4/15/115 150/47/115 15/325/115
f 145/20/116 3/19/116 93/326/116
f 490/327/117 485/328/117 9/329/117 19/330/117
f 490/331/118 19/332/118 91/124/118 489/123/118
f 485/328/119 488/333/119 60/334/119 9/329/119
f 129/335/120 10/336/120 154/337/120
f 10/153/121 38/152/121 155/209/121 156/291/121
f 38/152/122 31/338/122 153/210/122 155/209/122
f 496/18/123 24/339/123 31/338/123 497/201/123
f 147/324/124 138/340/124 89/341/124 129/323/124
f 31/342/125 24/178/125 153/181/125
f 63/343/126 31/338/126 38/152/126 56/344/126
f 148/179/127 24/178/127 139/287/127
f 154/337/128 10/336/128 156/345/128
f 159/346/129 158/347/129 157/348/129 160/349/129
f 530/350/130 528/351/130 160/349/130 157/348/130
f 163/352/131 162/353/131 161/354/131 164/355/131
f 158/356/132 159/357/132 164/355/132 161/354/132
f 181/358/133 182/359/133 137/360/133 136/361/133
f 136/304/134 134/303/134 143/362/134 181/363/134
f 135/308/135 137/307/135 182/364/135 142/365/135
f 167/366/136 166/367/136 165/368/136 168/369/136
f 533/370/137 166/367/137 167/366/137 534/371/137
f 171/372/138 170/373/138 169/374/138 172/375/138
f 534/376/139 531/377/139 183/378/139 190/379/139
f 531/380/140 170/381/140 171/382/140 532/383/140
f 168/384/141 165/385/141 172/375/141 169/374/141
f 165/386/142 166/387/142 171/388/142 172/389/142
f 173/390/143 176/391/143 175/392/143 174/393/143
f 134/312/144 135/311/144 142/394/144 143/395/144
f 536/396/145 176/391/145 173/390/145 535/397/145
f 529/398/146 527/399/146 182/400/146 181/401/146
f 149/402/147 186/403/147 185/404/147 146/405/147
f 179/406/148 178/407/148 177/408/148 180/409/148
f 174/410/149 175/411/149 180/409/149 177/408/149
f 538/412/150 537/413/150 178/414/150 179/415/150
f 535/416/151 537/417/151 188/418/151 185/419/151
f 175/420/152 176/421/152 179/422/152 180/423/152
f 141/316/153 140/315/153 188/424/153 187/425/153
f 137/426/154 189/427/154 190/428/154 136/429/154
f 190/379/155 183/378/155 146/294/155 136/304/155
f 185/419/156 188/418/156 140/295/156 146/294/156
f 529/430/157 530/431/157 157/432/157 162/433/157
f 528/434/158 527/435/158 163/436/158 160/437/158
f 184/438/159 189/439/159 137/307/159 149/440/159
f 187/441/160 186/442/160 149/440/160 141/443/160
f 86/1/1 256/444/1 229/445/1 54/2/1
f 51/5/161 108/8/161 264/446/161 208/447/161
f 470/448/162 474/449/162 252/450/162 223/451/162
f 506/452/163 232/453/163 194/454/163 505/455/163
f 507/456/164 307/457/164 193/458/164 503/459/164
f 256/444/165 263/460/165 191/461/165 229/445/165
f 266/462/166 260/463/166 200/464/166 272/465/166
f 264/446/167 274/466/167 202/467/167 273/468/167
f 55/30/9 62/33/9 197/469/9 204/470/9
f 264/446/10 204/470/10 274/466/10
f 454/471/9 226/472/9 247/473/9 453/474/9
f 273/475/168 202/476/168 207/477/168 271/478/168
f 208/479/169 192/480/169 203/481/169 225/482/169
f 505/455/170 194/454/170 312/483/170 508/484/170
f 454/471/9 458/485/9 254/486/9 226/472/9
f 487/50/14 61/53/14 198/487/14 491/488/14
f 56/54/171 45/57/171 215/489/171 228/490/171
f 239/491/172 269/492/172 280/493/172 279/494/172
f 513/495/17 512/65/17 72/64/17 211/496/17
f 57/66/1 225/482/1 256/444/1 86/1/1
f 261/497/173 306/498/173 193/458/173
f 491/488/174 198/487/174 212/499/174 493/500/174
f 202/476/175 216/501/175 218/502/175 207/477/175
f 194/454/176 232/453/176 201/503/176 205/504/176
f 62/33/22 53/78/22 232/453/22 197/469/22
f 260/463/177 291/505/177 200/464/177
f 508/506/178 312/507/178 307/457/178 507/456/178
f 73/82/179 70/85/179 195/508/179 246/509/179
f 436/510/180 219/511/180 217/512/180 438/513/180
f 453/474/9 247/473/9 241/514/9 456/515/9
f 222/516/9 220/517/9 196/518/9 249/519/9
f 225/482/165 203/481/165 263/460/165 256/444/165
f 226/520/27 227/521/27 248/522/27 247/523/27
f 224/524/28 222/525/28 249/526/28 219/527/28
f 191/461/181 238/528/181 210/529/181 229/445/181
f 219/527/182 249/526/182 244/530/182 242/531/182
f 243/532/183 242/533/183 244/534/183 245/535/183
f 392/536/184 233/537/184 211/538/184 383/539/184
f 457/540/185 456/541/185 241/542/185 240/543/185
f 271/478/186 207/477/186 260/463/186 266/462/186
f 493/500/187 212/499/187 259/544/187 494/545/187
f 513/546/188 211/547/188 213/548/188 514/549/188
f 246/509/189 195/508/189 231/550/189 234/551/189
f 229/445/38 210/529/38 44/132/38 54/2/38
f 224/552/190 253/553/190 251/554/190 222/555/190
f 387/556/191 246/509/191 234/551/191 391/557/191
f 399/558/192 265/559/192 233/560/192 392/561/192
f 222/516/9 251/562/9 250/563/9 220/517/9
f 219/564/193 242/565/193 243/566/193 217/567/193
f 207/477/194 218/502/194 257/568/194 260/463/194
f 230/569/195 233/560/195 265/559/195 268/570/195
f 228/571/196 215/572/196 235/573/196 200/464/196
f 198/574/46 61/159/46 87/158/46 258/575/46
f 383/539/47 211/538/47 72/161/47 375/160/47
f 75/162/197 237/576/197 236/577/197 74/163/197
f 272/465/198 267/578/198 238/579/198 191/580/198
f 203/581/199 271/478/199 266/462/199 263/582/199
f 212/499/200 198/487/200 258/583/200 259/544/200
f 247/523/201 248/522/201 240/584/201 241/585/201
f 475/586/202 217/567/202 243/566/202 472/587/202
f 470/448/54 223/451/54 217/567/54 475/586/54
f 214/588/203 314/589/203 295/590/203 310/591/203
f 249/519/9 196/518/9 245/592/9 244/593/9
f 371/184/204 73/82/204 246/509/204 387/556/204
f 258/575/57 87/158/57 60/186/57 199/594/57
f 263/582/205 266/462/205 272/465/205 191/580/205
f 232/453/59 53/78/59 58/187/59 201/503/59
f 458/595/206 459/596/206 255/597/206 254/598/206
f 250/599/207 251/554/207 253/553/207 252/600/207
f 226/520/208 254/601/208 255/602/208 227/521/208
f 51/196/209 208/479/209 225/482/209 57/66/209
f 206/603/210 313/604/210 151/199/210 52/198/210
f 504/605/211 206/603/211 52/198/211 499/202/211
f 208/447/212 264/446/212 273/468/212 192/606/212
f 192/607/213 273/475/213 271/478/213 203/581/213
f 193/608/214 306/609/214 313/604/214 206/603/214
f 234/610/215 231/611/215 268/570/215 265/559/215
f 259/612/216 258/575/216 199/594/216 209/613/216
f 316/614/217 293/615/217 295/616/217 314/617/217
f 391/618/218 234/610/218 265/559/218 399/558/218
f 213/619/219 211/538/219 233/537/219 230/620/219
f 200/464/220 235/573/220 267/578/220 272/465/220
f 276/621/221 275/622/221 269/492/221 239/491/221
f 511/220/76 74/223/76 236/623/76 514/624/76
f 197/469/22 232/453/22 506/452/22 262/625/22
f 202/467/222 274/466/222 262/625/222 216/626/222
f 450/627/28 197/628/28 262/629/28 451/630/28
f 437/631/223 439/632/223 223/633/223 224/634/223
f 438/635/27 217/636/27 223/637/27 439/638/27
f 224/639/224 223/451/224 252/450/224 253/640/224
f 108/8/225 55/30/225 204/470/225 264/446/225
f 278/641/226 277/642/226 275/622/226 276/621/226
f 113/245/227 114/246/227 277/643/227 278/644/227
f 269/492/228 275/622/228 277/642/228 270/645/228
f 231/611/229 276/621/229 239/491/229 268/570/229
f 195/508/230 278/644/230 276/646/230 231/550/230
f 70/85/231 113/245/231 278/644/231 195/508/231
f 270/647/232 277/648/232 114/252/232 97/251/232
f 282/649/233 281/650/233 279/494/233 280/493/233
f 119/257/234 120/258/234 281/651/234 282/652/234
f 280/493/235 269/492/235 270/645/235 282/649/235
f 230/620/236 279/653/236 281/654/236 213/619/236
f 268/570/237 239/491/237 279/494/237 230/569/237
f 213/619/93 281/654/93 120/262/93 71/261/93
f 282/652/238 270/647/238 97/251/238 119/257/238
f 473/655/239 474/656/239 290/657/239 289/658/239
f 455/659/96 285/660/96 286/661/96 452/662/96
f 452/662/240 286/661/240 288/663/240 457/664/240
f 472/665/241 471/666/241 287/667/241 288/668/241
f 468/669/9 283/670/9 287/671/9 471/672/9
f 469/673/9 473/674/9 289/675/9 284/676/9
f 469/673/9 284/676/9 283/670/9 468/669/9
f 455/659/242 459/677/242 290/678/242 285/660/242
f 301/679/243 300/680/243 257/681/243 214/682/243
f 257/568/244 291/505/244 260/463/244
f 317/683/245 292/684/245 293/615/245 316/614/245
f 415/685/246 412/686/246 302/687/246 308/688/246
f 315/689/247 294/690/247 292/691/247 317/692/247
f 408/693/248 298/694/248 296/695/248 410/696/248
f 411/697/249 297/698/249 299/699/249 409/700/249
f 410/701/250 296/702/250 297/703/250 411/704/250
f 413/705/251 303/706/251 302/707/251 412/708/251
f 422/709/252 423/710/252 345/711/252 344/712/252
f 414/713/253 413/714/253 301/715/253 310/591/253
f 291/716/254 309/717/254 294/690/254 315/689/254
f 409/700/255 414/713/255 310/591/255 295/590/255
f 408/693/256 415/685/256 308/688/256 298/694/256
f 312/507/257 205/718/257 261/497/257 307/457/257
f 194/454/258 205/504/258 312/483/258
f 307/457/259 261/497/259 193/458/259
f 495/719/260 209/720/260 199/721/260 492/722/260
f 495/723/261 494/724/261 259/725/261 209/726/261
f 492/722/262 199/721/262 60/334/262 488/333/262
f 291/505/263 315/727/263 200/464/263
f 200/728/264 317/683/264 316/614/264 228/729/264
f 228/729/265 316/614/265 314/617/265 221/730/265
f 503/731/266 504/605/266 221/730/266 214/732/266
f 309/717/267 291/716/267 257/733/267 300/734/267
f 221/735/268 314/589/268 214/588/268
f 63/343/269 56/344/269 228/729/269 221/730/269
f 310/591/270 301/715/270 214/588/270
f 315/727/271 317/736/271 200/464/271
f 320/737/272 321/738/272 318/739/272 319/740/272
f 518/741/273 318/739/273 321/738/273 516/742/273
f 324/743/274 325/744/274 322/745/274 323/746/274
f 319/747/275 322/748/275 325/749/275 320/750/275
f 417/751/276 298/752/276 299/753/276 419/754/276
f 417/755/277 342/756/277 305/757/277 418/758/277
f 416/759/278 304/760/278 343/761/278 419/762/278
f 328/763/279 329/764/279 326/765/279 327/766/279
f 521/767/280 522/768/280 328/769/280 327/770/280
f 332/771/281 333/772/281 330/773/281 331/774/281
f 522/775/282 351/776/282 344/777/282 519/778/282
f 519/779/283 520/780/283 332/771/283 331/774/283
f 329/764/284 330/781/284 333/782/284 326/765/284
f 326/783/285 333/784/285 332/785/285 327/786/285
f 334/787/286 335/788/286 336/789/286 337/790/286
f 418/791/287 305/792/287 304/793/287 416/794/287
f 524/795/288 523/796/288 334/797/288 337/798/288
f 517/799/289 342/800/289 343/801/289 515/802/289
f 426/803/290 425/804/290 346/805/290 347/806/290
f 340/807/291 341/808/291 338/809/291 339/810/291
f 335/788/292 338/811/292 341/812/292 336/789/292
f 526/813/293 340/807/293 339/810/293 525/814/293
f 523/815/294 346/816/294 349/817/294 525/818/294
f 336/819/295 341/820/295 340/821/295 337/822/295
f 424/823/296 348/824/296 349/825/296 427/826/296
f 420/827/297 421/828/297 351/829/297 350/830/297
f 421/831/298 298/694/298 308/688/298 422/832/298
f 425/833/299 308/688/299 302/687/299 427/834/299
f 517/835/300 323/836/300 318/837/300 518/838/300
f 516/839/301 321/840/301 324/841/301 515/842/301
f 423/843/302 311/844/302 299/699/302 420/845/302
f 424/846/303 303/847/303 311/844/303 426/848/303
f 235/573/304 388/849/304 396/850/304 267/578/304
f 388/849/305 389/851/305 397/852/305 396/850/305
f 389/851/306 390/853/306 398/854/306 397/852/306
f 390/853/307 391/618/307 399/558/307 398/854/307
f 45/57/308 368/855/308 384/856/308 215/489/308
f 368/855/309 369/857/309 385/858/309 384/856/309
f 369/857/310 370/859/310 386/860/310 385/858/310
f 370/859/311 371/184/311 387/556/311 386/860/311
f 210/529/47 380/861/47 372/862/47 44/132/47
f 380/861/47 381/863/47 373/864/47 372/862/47
f 381/863/47 382/865/47 374/866/47 373/864/47
f 382/865/47 383/539/47 375/160/47 374/866/47
f 267/578/312 396/850/312 395/867/312 238/579/312
f 396/850/313 397/852/313 394/868/313 395/867/313
f 397/852/314 398/854/314 393/869/314 394/868/314
f 398/854/315 399/558/315 392/561/315 393/869/315
f 215/489/316 384/856/316 388/870/316 235/871/316
f 384/856/317 385/858/317 389/872/317 388/870/317
f 385/858/318 386/860/318 390/873/318 389/872/318
f 386/860/319 387/556/319 391/557/319 390/873/319
f 238/528/320 395/874/320 380/861/320 210/529/320
f 395/874/321 394/875/321 381/863/321 380/861/321
f 394/875/322 393/876/322 382/865/322 381/863/322
f 393/876/323 392/536/323 383/539/323 382/865/323
f 47/217/324 100/169/324 376/877/324 360/878/324
f 360/878/325 376/877/325 377/879/325 361/880/325
f 361/880/326 377/879/326 378/881/326 362/882/326
f 362/882/327 378/881/327 379/139/327 363/213/327
f 45/57/328 25/56/328 356/883/328 368/855/328
f 368/855/329 356/883/329 357/884/329 369/857/329
f 369/857/330 357/884/330 358/885/330 370/859/330
f 370/859/331 358/885/331 359/137/331 371/184/331
f 20/104/47 44/132/47 372/862/47 352/886/47
f 352/886/47 372/862/47 373/864/47 353/887/47
f 353/887/47 373/864/47 374/866/47 354/888/47
f 354/888/47 374/866/47 375/160/47 355/113/47
f 100/169/332 50/168/332 367/889/332 376/877/332
f 376/877/333 367/889/333 366/890/333 377/879/333
f 377/879/334 366/890/334 365/891/334 378/881/334
f 378/881/335 365/891/335 364/140/335 379/139/335
f 25/56/336 47/892/336 360/893/336 356/883/336
f 356/883/337 360/893/337 361/894/337 357/884/337
f 357/884/338 361/894/338 362/895/338 358/885/338
f 358/885/339 362/895/339 363/138/339 359/137/339
f 50/105/340 20/104/340 352/886/340 367/896/340
f 367/896/341 352/886/341 353/887/341 366/897/341
f 366/897/342 353/887/342 354/888/342 365/898/342
f 365/898/343 354/888/343 355/113/343 364/112/343
f 132/300/344 400/301/344 407/293/344 147/324/344
f 137/307/345 401/306/345 406/321/345 149/440/345
f 149/440/346 406/321/346 405/322/346 141/443/346
f 139/899/347 138/900/347 404/314/347 405/313/347
f 130/292/348 131/212/348 403/310/348 402/309/348
f 131/901/349 133/180/349 401/306/349 403/305/349
f 132/300/350 130/299/350 402/302/350 400/301/350
f 147/324/351 407/293/351 404/296/351 138/340/351
f 294/690/352 309/717/352 415/685/352 408/693/352
f 299/699/353 311/844/353 414/713/353 409/700/353
f 311/844/354 303/847/354 413/714/354 414/713/354
f 301/679/355 413/705/355 412/708/355 300/680/355
f 292/684/356 410/701/356 411/704/356 293/615/356
f 293/902/357 411/697/357 409/700/357 295/590/357
f 294/690/358 408/693/358 410/696/358 292/691/358
f 309/717/359 300/734/359 412/686/359 415/685/359
f 296/702/360 418/791/360 416/794/360 297/703/360
f 297/698/361 416/759/361 419/762/361 299/699/361
f 298/694/362 417/755/362 418/758/362 296/695/362
f 342/800/363 417/751/363 419/754/363 343/801/363
f 345/903/364 423/843/364 420/845/364 350/904/364
f 351/776/365 421/831/365 422/832/365 344/777/365
f 299/905/366 298/906/366 421/828/366 420/827/366
f 308/907/367 311/908/367 423/710/367 422/709/367
f 348/909/368 424/846/368 426/848/368 347/910/368
f 346/816/369 425/833/369 427/834/369 349/817/369
f 303/706/370 424/823/370 427/826/370 302/707/370
f 311/911/371 308/912/371 425/804/371 426/803/371
f 448/913/27 429/914/27 430/915/27 449/916/27
f 451/917/372 449/918/372 430/919/372 431/920/372
f 436/921/28 428/922/28 431/923/28 437/924/28
f 450/925/373 428/926/373 429/927/373 448/928/373
f 444/929/27 445/930/27 434/931/27 433/932/27
f 447/933/374 435/934/374 434/935/374 445/936/374
f 440/937/28 441/938/28 435/939/28 432/940/28
f 446/941/375 444/942/375 433/943/375 432/944/375
f 219/527/28 436/921/28 437/924/28 224/524/28
f 429/914/27 438/635/27 439/638/27 430/915/27
f 431/920/376 430/919/376 439/632/376 437/631/376
f 428/926/377 436/510/377 438/513/377 429/927/377
f 29/101/28 34/100/28 441/938/28 440/937/28
f 433/932/27 434/931/27 443/236/27 442/235/27
f 435/934/378 441/231/378 443/234/378 434/935/378
f 432/944/379 433/943/379 442/87/379 440/86/379
f 7/945/380 14/946/380 444/942/380 446/941/380
f 94/947/381 447/933/381 445/936/381 107/948/381
f 14/949/27 107/950/27 445/930/27 444/929/27
f 432/940/28 435/939/28 447/228/28 446/227/28
f 197/951/382 450/925/382 448/928/382 204/952/382
f 262/953/383 274/954/383 449/918/383 451/917/383
f 204/955/27 448/913/27 449/916/27 274/956/27
f 428/922/28 450/627/28 451/630/28 431/923/28
f 227/957/384 255/958/384 459/677/384 455/659/384
f 248/959/385 452/662/385 457/664/385 240/960/385
f 227/957/96 455/659/96 452/662/96 248/959/96
f 289/658/386 290/657/386 459/596/386 458/595/386
f 288/668/387 287/667/387 456/541/387 457/540/387
f 283/670/9 453/474/9 456/515/9 287/671/9
f 284/676/9 289/675/9 458/485/9 454/471/9
f 284/676/9 454/471/9 453/474/9 283/670/9
f 37/961/388 463/267/388 467/286/388 85/962/388
f 78/963/389 64/964/389 465/271/389 460/268/389
f 37/961/96 78/963/96 460/268/96 463/267/96
f 127/264/390 466/188/390 467/191/390 128/265/390
f 126/274/391 465/116/391 464/119/391 125/275/391
f 121/280/9 125/279/9 464/90/9 461/35/9
f 122/282/9 462/34/9 466/49/9 127/283/9
f 122/282/9 121/280/9 461/35/9 462/34/9
f 220/517/9 469/673/9 468/669/9 196/518/9
f 220/517/9 250/563/9 473/674/9 469/673/9
f 196/518/9 468/669/9 471/672/9 245/592/9
f 243/532/392 245/535/392 471/666/392 472/665/392
f 250/599/393 252/600/393 474/656/393 473/655/393
f 285/660/54 470/448/54 475/586/54 286/661/54
f 286/661/394 475/586/394 472/587/394 288/663/394
f 285/660/395 290/678/395 474/449/395 470/448/395
f 30/95/9 6/94/9 476/277/9 477/281/9
f 30/95/9 477/281/9 481/284/9 80/143/9
f 6/94/9 69/183/9 479/278/9 476/277/9
f 67/108/396 480/273/396 479/276/396 69/109/396
f 80/192/397 481/263/397 482/266/397 82/193/397
f 123/270/54 124/269/54 483/176/54 478/9/54
f 124/269/398 126/272/398 480/177/398 483/176/398
f 123/270/399 478/9/399 482/12/399 128/285/399
f 313/604/400 492/722/400 488/333/400 151/199/400
f 306/498/401 261/497/401 494/724/401 495/723/401
f 306/609/402 495/719/402 492/722/402 313/604/402
f 205/718/403 493/965/403 494/724/403 261/497/403
f 201/503/404 491/488/404 493/500/404 205/504/404
f 58/187/14 487/50/14 491/488/14 201/503/14
f 152/200/405 151/199/405 488/333/405 485/328/405
f 144/69/406 490/331/406 489/123/406 93/67/406
f 144/205/407 152/200/407 485/328/407 490/327/407
f 15/325/408 93/67/408 489/123/408 486/122/408
f 11/76/409 15/75/409 486/70/409 484/51/409
f 58/187/14 11/76/14 484/51/14 487/50/14
f 193/608/410 206/603/410 504/605/410 503/731/410
f 221/730/411 504/605/411 499/202/411 63/343/411
f 218/502/412 508/506/412 507/456/412 257/568/412
f 216/626/413 505/455/413 508/484/413 218/966/413
f 257/568/414 507/456/414 503/459/414 214/967/414
f 262/625/415 506/452/415 505/455/415 216/626/415
f 3/19/416 496/18/416 497/201/416 16/197/416
f 31/338/417 63/343/417 499/202/417 497/201/417
f 28/72/418 89/149/418 501/80/418 502/46/418
f 26/73/419 28/72/419 502/46/419 498/14/419
f 89/968/420 24/339/420 496/18/420 501/17/420
f 94/224/421 26/226/421 498/969/421 500/225/421
f 71/970/76 511/220/76 514/624/76 213/971/76
f 237/972/422 513/546/422 514/549/422 236/973/422
f 237/974/17 75/975/17 512/65/17 513/495/17
f 71/970/76 23/976/76 510/221/76 511/220/76
f 49/977/423 48/978/423 510/127/423 509/126/423
f 49/979/17 509/62/17 512/65/17 75/975/17
f 304/760/424 516/839/424 515/842/424 343/761/424
f 324/841/425 321/840/425 320/980/425 325/981/425
f 521/982/426 520/983/426 345/903/426 350/904/426
f 524/984/427 526/985/427 348/909/427 347/910/427
f 318/837/428 323/836/428 322/986/428 319/987/428
f 331/988/429 330/989/429 329/990/429 328/991/429
f 339/992/430 338/993/430 335/994/430 334/995/430
f 342/756/431 517/835/431 518/838/431 305/757/431
f 323/746/432 517/799/432 515/802/432 324/743/432
f 305/792/433 518/741/433 516/742/433 304/793/433
f 327/786/434 332/785/434 520/983/434 521/982/434
f 344/712/435 345/711/435 520/780/435 519/779/435
f 328/991/436 522/775/436 519/778/436 331/988/436
f 350/830/437 351/829/437 522/768/437 521/767/437
f 337/822/438 340/821/438 526/985/438 524/984/438
f 334/995/439 523/815/439 525/818/439 339/992/439
f 348/824/440 526/813/440 525/814/440 349/825/440
f 347/806/441 346/805/441 523/796/441 524/795/441
f 142/365/442 182/364/442 527/435/442 528/434/442
f 162/433/443 157/432/443 158/996/443 161/997/443
f 170/998/444 167/999/444 168/1000/444 169/1001/444
f 178/1002/445 173/1003/445 174/1004/445 177/1005/445
f 160/437/446 163/436/446 164/1006/446 159/1007/446
f 532/1008/447 533/1009/447 189/439/447 184/438/447
f 538/1010/448 536/1011/448 186/442/448 187/441/448
f 181/363/449 143/362/449 530/431/449 529/430/449
f 162/353/450 163/352/450 527/399/450 529/398/450
f 143/395/451 142/394/451 528/351/451 530/350/451
f 171/388/452 166/387/452 533/1009/452 532/1008/452
f 183/318/453 531/380/453 532/383/453 184/319/453
f 167/999/454 170/998/454 531/377/454 534/376/454
f 189/427/455 533/370/455 534/371/455 190/428/455
f 179/422/456 176/421/456 536/1011/456 538/1010/456
f 173/1003/457 178/1002/457 537/417/457 535/416/457
f 187/425/458 188/424/458 537/413/458 538/412/458
f 186/403/459 536/396/459 535/397/459 185/404/459
