# Blender 4.5.3 LTS
# www.blender.org
mtllib goose1 (1).mtl
o Cube
v 0.813814 1.048676 -1.987433
v 0.934899 -0.729513 -1.530803
v 0.814057 1.032118 1.917457
v 0.629283 -0.666303 2.019174
v 0.333609 5.848845 -0.424389
v 0.569099 -2.722171 0.366746
v 0.396849 -1.000000 0.655334
v 0.173217 1.029143 3.892548
v 0.173217 2.200604 4.124585
v 0.769480 1.203947 -0.307356
v 0.173217 -0.112091 2.849011
v 0.934899 -0.895235 0.373791
v 0.813814 -0.126559 -1.899816
v 0.396849 -1.000000 0.375891
v 0.699534 0.031039 2.788107
v 0.258910 1.355568 2.150751
v 1.323828 0.000000 0.000000
v 0.310944 -0.860778 -1.659215
v 0.434003 2.019678 4.029811
v 0.339529 1.412129 -2.264893
v 0.305926 5.320530 -2.220784
v 0.434003 1.080125 3.810152
v 0.285093 5.787924 -2.216399
v 0.956045 1.096285 0.988905
v 0.424086 1.435967 -0.240086
v 0.934899 -0.895235 0.653233
v 0.569099 -2.395437 0.375891
v 1.323828 0.089984 1.283344
v 0.569099 -2.382560 0.655334
v 0.723651 -2.722171 0.366746
v 0.312234 1.341870 1.199677
v 0.723651 -2.722171 0.655334
v 0.723651 -2.395437 0.375891
v 0.723651 -2.382560 0.655334
v 0.373133 -0.237192 -2.162973
v 1.002750 -2.722171 -1.187906
v 1.002750 -2.577119 -1.187906
v 0.408716 1.359033 -0.139472
v 0.373133 0.938043 -2.250591
v 0.565826 5.742607 -2.050543
v 0.587188 5.738890 -0.595366
v 0.310944 -0.824764 2.095983
v 0.653159 5.427969 -2.046205
v 0.000000 1.412129 -2.264893
v 0.000000 1.435967 -0.146692
v 0.640947 5.374386 -0.563835
v 0.698027 1.292043 -0.440121
v 0.200866 5.651824 -3.226765
v 0.281812 5.476283 -3.211171
v 0.795037 1.522762 -2.022583
v 0.000000 -0.907558 -1.706358
v 0.000000 1.379026 2.243289
v 0.000000 -0.824764 2.095983
v 0.000000 0.938043 -2.250591
v 0.000000 -1.000000 0.375891
v 0.000000 1.180926 0.093453
v 0.000000 -0.237192 -2.162973
v 0.000000 -0.112091 2.849011
v 0.650854 6.277966 -1.246308
v 0.000000 2.200604 4.124585
v 0.000000 1.029143 3.892548
v 0.000000 -1.000000 0.655334
v 0.000000 1.266178 1.566031
v 0.072861 -2.577119 -1.052134
v 0.072861 -2.722171 -1.052134
v 0.502407 -2.403041 0.612564
v 0.393684 -2.395437 0.333121
v 0.502407 -2.722171 0.612564
v 0.393684 -2.722171 0.323976
v 0.000000 5.848845 -0.344658
v 0.000000 5.787924 -2.216399
v 0.000000 5.320530 -2.220784
v 0.000000 5.534207 -0.302007
v 0.000000 5.637366 -3.334098
v 0.000000 5.492829 -3.316382
v 0.362046 5.534207 -0.386383
v 0.537805 -2.722171 -1.187906
v 0.537805 -2.577119 -1.187906
v 0.569099 -2.722171 0.655334
v 0.911412 -2.722171 0.323976
v 0.758259 -2.722171 0.612564
v 0.911412 -2.395437 0.333121
v 0.758259 -2.390124 0.612564
v 1.376510 -2.722171 -1.052134
v 1.376510 -2.577119 -1.052134
v 0.000000 0.350425 -2.206782
v 0.000000 1.524410 4.084812
v 0.373133 0.350425 -2.206782
v 1.173032 0.813112 0.895292
v 0.173217 1.524410 4.084812
v 0.613137 1.540819 3.988448
v 1.323828 0.500000 0.000000
v 0.880085 0.529206 2.776481
v 0.597163 -1.000000 0.655334
v 0.813814 0.461059 -1.943624
v 0.367241 -0.968327 -0.639724
v 0.000000 6.915695 -1.274946
v 0.790729 5.341055 -1.157864
v 1.325916 0.480529 -1.052063
v 0.915189 1.388901 -1.128904
v 0.748423 5.712222 -1.189216
v 0.426018 6.734768 -1.256327
v 0.251743 6.915695 -1.274946
v 1.323828 -0.063280 -1.018785
v 1.044097 1.019837 -1.088367
v 0.934899 -0.835781 -0.642367
v 0.597163 -1.000000 0.375891
v 0.000000 -0.995988 -0.670225
v 0.434625 6.666630 -0.880862
v 0.491090 6.312947 -0.644341
v 0.253717 6.850022 -0.857512
v 0.286049 6.510011 -0.563274
v 0.000000 6.510676 -0.490131
v 0.000000 6.850127 -0.857514
v 0.486277 6.311278 -1.983871
v 0.440187 6.636755 -1.632982
v 0.264897 6.528576 -2.060476
v 0.254836 6.826413 -1.709182
v 0.000000 6.826760 -1.709338
v 0.000000 6.530048 -2.060143
v 0.552442 -2.722171 -0.439608
v 0.966166 -2.722171 -0.439608
v 0.966166 -2.464767 -0.435759
v 0.552442 -2.464767 -0.435759
v 0.205276 -2.722171 -0.235360
v 0.205276 -2.464767 -0.231511
v 1.166577 -2.722171 -0.235360
v 1.166577 -2.464767 -0.231511
v 1.079094 0.944203 0.591123
v 1.250638 1.666224 0.008299
v 1.274055 1.788935 0.216414
v 1.290716 1.384997 0.350111
v 1.414776 1.739499 0.463831
v 3.350474 2.930337 -0.000361
v 3.397689 2.975904 0.164552
v 3.353235 2.401368 0.281009
v 3.400961 2.461512 0.433895
v 2.040725 1.234733 0.817397
v 2.049292 1.384649 0.984188
v 3.645428 1.555470 0.666134
v 3.683002 1.629878 0.804628
v 5.092605 3.694824 -0.761238
v 5.041952 3.621678 -0.942125
v 0.640612 1.437052 2.868237
v 1.135162 0.562783 1.937906
v 3.474425 1.992985 0.502082
v 1.617646 1.291700 0.602575
v 1.682357 1.594167 0.733296
v 3.512000 2.067394 0.640577
v 1.054762 0.064579 1.931885
v 0.000000 1.577231 2.922245
v 0.223547 1.536629 2.927469
v 0.799100 1.423083 0.776046
v 0.976529 1.153762 0.261523
v 0.894796 1.587340 0.222097
v 0.859253 1.396080 -0.067175
v 6.362556 4.203124 -1.920312
v 6.836462 3.902438 -1.906573
v 6.886742 4.007900 -1.714280
v 6.416647 4.303847 -1.723450
v 6.847283 3.434962 -1.631110
v 6.622356 3.153327 -1.387398
v 6.673375 3.272455 -1.209662
v 6.896945 3.558278 -1.453242
v 6.910758 3.003242 -1.114653
v 6.775795 3.116015 -1.141960
v 6.703241 3.008214 -1.317300
v 6.845930 2.892704 -1.289854
v 6.809804 2.564437 -1.068512
v 6.654223 2.410583 -0.919794
v 6.698919 2.536147 -0.751055
v 6.860424 2.690345 -0.900628
v 6.574460 2.260142 -0.823065
v 6.769196 2.097205 -0.793762
v 6.813954 2.220183 -0.628200
v 6.623203 2.381907 -0.655939
v 6.759344 1.688980 -0.550940
v 6.601620 1.535361 -0.409782
v 6.637476 1.668108 -0.253816
v 6.797138 1.824662 -0.395750
v 5.173232 2.832296 -0.534984
v 5.222605 2.921932 -0.369672
v 5.249761 2.256732 -0.190645
v 5.290896 2.356719 -0.037028
v 5.209879 2.181512 -0.142280
v 5.253038 2.279598 0.010530
v 5.345676 1.703941 0.293617
v 5.308961 1.600363 0.146387
v 5.273815 2.843712 -0.335822
v 5.213675 2.759739 -0.499935
v -0.813814 1.048676 -1.987433
v -0.934899 -0.729513 -1.530803
v -0.814057 1.032118 1.917457
v -0.629283 -0.666303 2.019174
v -0.333609 5.848845 -0.424389
v -0.569099 -2.722171 0.366746
v -0.396849 -1.000000 0.655334
v -0.173217 1.029143 3.892548
v -0.173217 2.200604 4.124585
v -0.769480 1.203947 -0.307356
v -0.173217 -0.112091 2.849011
v -0.934899 -0.895235 0.373791
v -0.813814 -0.126559 -1.899816
v -0.396849 -1.000000 0.375891
v -0.699534 0.031039 2.788107
v -0.258910 1.355568 2.150751
v -1.323828 0.000000 0.000000
v -0.310944 -0.860778 -1.659215
v -0.434003 2.019678 4.029811
v -0.339529 1.412129 -2.264893
v -0.305926 5.320530 -2.220784
v -0.434003 1.080125 3.810152
v -0.285093 5.787924 -2.216399
v -0.956045 1.096285 0.988905
v -0.424086 1.435967 -0.240086
v -0.934899 -0.895235 0.653233
v -0.569099 -2.395437 0.375891
v -1.323828 0.089984 1.283344
v -0.569099 -2.382560 0.655334
v -0.723651 -2.722171 0.366746
v -0.312234 1.341870 1.199677
v -0.723651 -2.722171 0.655334
v -0.723651 -2.395437 0.375891
v -0.723651 -2.382560 0.655334
v -0.373133 -0.237192 -2.162973
v -1.002750 -2.722171 -1.187906
v -1.002750 -2.577119 -1.187906
v -0.408716 1.359033 -0.139472
v -0.373133 0.938043 -2.250591
v -0.565826 5.742607 -2.050543
v -0.587188 5.738890 -0.595366
v -0.310944 -0.824764 2.095983
v -0.653159 5.427969 -2.046205
v -0.640947 5.374386 -0.563835
v -0.698027 1.292043 -0.440121
v -0.200866 5.651824 -3.226765
v -0.281812 5.476283 -3.211171
v -0.795037 1.522762 -2.022583
v -0.650854 6.277966 -1.246308
v -0.072861 -2.577119 -1.052134
v -0.072861 -2.722171 -1.052134
v -0.502407 -2.403041 0.612564
v -0.393684 -2.395437 0.333121
v -0.502407 -2.722171 0.612564
v -0.393684 -2.722171 0.323976
v -0.362046 5.534207 -0.386383
v -0.537805 -2.722171 -1.187906
v -0.537805 -2.577119 -1.187906
v -0.569099 -2.722171 0.655334
v -0.911412 -2.722171 0.323976
v -0.758259 -2.722171 0.612564
v -0.911412 -2.395437 0.333121
v -0.758259 -2.390124 0.612564
v -1.376510 -2.722171 -1.052134
v -1.376510 -2.577119 -1.052134
v -0.373133 0.350425 -2.206782
v -1.173032 0.813112 0.895292
v -0.173217 1.524410 4.084812
v -0.613137 1.540819 3.988448
v -1.323828 0.500000 0.000000
v -0.880085 0.529206 2.776481
v -0.597163 -1.000000 0.655334
v -0.813814 0.461059 -1.943624
v -0.367241 -0.968327 -0.639724
v -0.790729 5.341055 -1.157864
v -1.325916 0.480529 -1.052063
v -0.915189 1.388901 -1.128904
v -0.748423 5.712222 -1.189216
v -0.426018 6.734768 -1.256327
v -0.251743 6.915695 -1.274946
v -1.323828 -0.063280 -1.018785
v -1.044097 1.019837 -1.088367
v -0.934899 -0.835781 -0.642367
v -0.597163 -1.000000 0.375891
v -0.434625 6.666630 -0.880862
v -0.491090 6.312947 -0.644341
v -0.253717 6.850022 -0.857512
v -0.286049 6.510011 -0.563274
v -0.486277 6.311278 -1.983871
v -0.440187 6.636755 -1.632982
v -0.264897 6.528576 -2.060476
v -0.254836 6.826413 -1.709182
v -0.552442 -2.722171 -0.439608
v -0.966166 -2.722171 -0.439608
v -0.966166 -2.464767 -0.435759
v -0.552442 -2.464767 -0.435759
v -0.205276 -2.722171 -0.235360
v -0.205276 -2.464767 -0.231511
v -1.166577 -2.722171 -0.235360
v -1.166577 -2.464767 -0.231511
v -1.079094 0.944203 0.591123
v -1.250638 1.666224 0.008299
v -1.274055 1.788935 0.216414
v -1.290716 1.384997 0.350111
v -1.414776 1.739499 0.463831
v -3.350474 2.930337 -0.000361
v -3.397689 2.975904 0.164552
v -3.353235 2.401368 0.281009
v -3.400961 2.461512 0.433895
v -2.040725 1.234733 0.817397
v -2.049292 1.384649 0.984188
v -3.645428 1.555470 0.666134
v -3.683002 1.629878 0.804628
v -5.092605 3.694824 -0.761238
v -5.041952 3.621678 -0.942125
v -0.640612 1.437052 2.868237
v -1.135162 0.562783 1.937906
v -3.474425 1.992985 0.502082
v -1.617646 1.291700 0.602575
v -1.682357 1.594167 0.733296
v -3.512000 2.067394 0.640577
v -1.054762 0.064579 1.931885
v -0.223547 1.536629 2.927469
v -0.799100 1.423083 0.776046
v -0.976529 1.153762 0.261523
v -0.894796 1.587340 0.222097
v -0.859253 1.396080 -0.067175
v -6.362556 4.203124 -1.920312
v -6.836462 3.902438 -1.906573
v -6.886742 4.007900 -1.714280
v -6.416647 4.303847 -1.723450
v -6.847283 3.434962 -1.631110
v -6.622356 3.153327 -1.387398
v -6.673375 3.272455 -1.209662
v -6.896945 3.558278 -1.453242
v -6.910758 3.003242 -1.114653
v -6.775795 3.116015 -1.141960
v -6.703241 3.008214 -1.317300
v -6.845930 2.892704 -1.289854
v -6.809804 2.564437 -1.068512
v -6.654223 2.410583 -0.919794
v -6.698919 2.536147 -0.751055
v -6.860424 2.690345 -0.900628
v -6.574460 2.260142 -0.823065
v -6.769196 2.097205 -0.793762
v -6.813954 2.220183 -0.628200
v -6.623203 2.381907 -0.655939
v -6.759344 1.688980 -0.550940
v -6.601620 1.535361 -0.409782
v -6.637476 1.668108 -0.253816
v -6.797138 1.824662 -0.395750
v -5.173232 2.832296 -0.534984
v -5.222605 2.921932 -0.369672
v -5.249761 2.256732 -0.190645
v -5.290896 2.356719 -0.037028
v -5.209879 2.181512 -0.142280
v -5.253038 2.279598 0.010530
v -5.345676 1.703941 0.293617
v -5.308961 1.600363 0.146387
v -5.273815 2.843712 -0.335822
v -5.213675 2.759739 -0.499935
v 0.332809 2.193809 -2.256071
v 0.326088 2.975489 -2.247249
v 0.319367 3.757170 -2.238427
v 0.312647 4.538850 -2.229606
v 0.411678 2.255615 -0.269345
v 0.399270 3.075263 -0.298605
v 0.386862 3.894911 -0.327864
v 0.374454 4.714559 -0.357124
v 0.686611 2.108511 -0.464864
v 0.675195 2.924980 -0.489607
v 0.663779 3.741449 -0.514350
v 0.652363 4.557918 -0.539092
v 0.681534 4.646928 -2.041481
v 0.709910 3.865886 -2.036757
v 0.738286 3.084845 -2.032032
v 0.766662 2.303803 -2.027308
v 0.000000 2.255615 -0.177755
v 0.000000 3.075263 -0.208818
v 0.000000 3.894911 -0.239881
v 0.000000 4.714559 -0.270944
v 0.000000 2.193809 -2.256071
v 0.000000 2.975489 -2.247249
v 0.000000 3.757170 -2.238427
v 0.000000 4.538850 -2.229606
v 0.890297 2.179332 -1.134696
v 0.865405 2.969763 -1.140488
v 0.840513 3.760194 -1.146280
v 0.815621 4.550625 -1.152072
v -0.332809 2.193809 -2.256071
v -0.326088 2.975489 -2.247249
v -0.319367 3.757170 -2.238427
v -0.312647 4.538850 -2.229606
v -0.411678 2.255615 -0.269345
v -0.399270 3.075263 -0.298605
v -0.386862 3.894911 -0.327864
v -0.374454 4.714559 -0.357124
v -0.686611 2.108511 -0.464864
v -0.675195 2.924980 -0.489607
v -0.663779 3.741449 -0.514350
v -0.652363 4.557918 -0.539092
v -0.681534 4.646928 -2.041481
v -0.709910 3.865886 -2.036757
v -0.738286 3.084845 -2.032032
v -0.766662 2.303803 -2.027308
v -0.890297 2.179332 -1.134696
v -0.865405 2.969763 -1.140488
v -0.840513 3.760194 -1.146280
v -0.815621 4.550625 -1.152072
v 2.321976 1.893183 0.315560
v 2.407869 2.100505 0.448863
v 2.300556 2.298280 0.003969
v 2.335872 2.382420 0.190483
v 2.843077 1.395102 0.741765
v 2.866147 1.507264 0.894408
v 2.597178 1.830781 0.686936
v 2.546035 1.642342 0.552328
v -2.321976 1.893183 0.315560
v -2.407869 2.100505 0.448863
v -2.300556 2.298280 0.003969
v -2.335872 2.382420 0.190483
v -2.843077 1.395102 0.741765
v -2.866147 1.507264 0.894408
v -2.597178 1.830781 0.686936
v -2.546035 1.642342 0.552328
v -4.245147 3.335364 -0.298343
v -4.263233 2.616832 -0.126987
v -4.196213 3.276008 -0.471243
v -4.311783 2.691722 0.032111
v -4.337388 2.652612 0.049037
v -4.283455 2.580554 -0.109463
v -4.362092 2.124859 0.155719
v -4.401448 2.212056 0.301774
v -4.514339 1.666910 0.549123
v -4.342152 2.087249 0.179901
v -4.382519 2.173496 0.325553
v -4.477195 1.577917 0.406261
v -0.482974 -1.691280 0.655334
v -0.482974 -1.697719 0.375891
v -0.660407 -1.697719 0.375891
v -0.660407 -1.691280 0.655334
v 0.482974 -1.691280 0.655334
v 0.482974 -1.697719 0.375891
v 0.660407 -1.697719 0.375891
v 0.660407 -1.691280 0.655334
v -0.526037 -2.036920 0.655334
v -0.692029 -2.036920 0.655334
v -0.526037 -2.046578 0.375891
v -0.692029 -2.046578 0.375891
v 0.526037 -2.036920 0.655334
v 0.692029 -2.036920 0.655334
v 0.526037 -2.046578 0.375891
v 0.692029 -2.046578 0.375891
v 0.439912 -1.348859 0.375891
v 0.628785 -1.348859 0.375891
v 0.439912 -1.345640 0.655334
v 0.628785 -1.345640 0.655334
v -0.439912 -1.348859 0.375891
v -0.628785 -1.348859 0.375891
v -0.439912 -1.345640 0.655334
v -0.628785 -1.345640 0.655334
v -0.545124 -2.520943 -0.811833
v -0.545124 -2.722171 -0.813757
v -0.984458 -2.722171 -0.813757
v -0.984458 -2.520943 -0.811833
v -0.139068 -2.722171 -0.643747
v -0.139068 -2.520943 -0.641822
v -1.271544 -2.722171 -0.643747
v -1.271544 -2.520943 -0.641822
v 0.545124 -2.520943 -0.811833
v 0.545124 -2.722171 -0.813757
v 0.984458 -2.722171 -0.813757
v 0.984458 -2.520943 -0.811833
v 0.139068 -2.722171 -0.643747
v 0.139068 -2.520943 -0.641822
v 1.271544 -2.722171 -0.643747
v 1.271544 -2.520943 -0.641822
v -0.560770 -2.722171 -0.036431
v -0.844909 -2.722171 -0.036431
v -0.844909 -2.430102 -0.029934
v -0.299480 -2.722171 0.044308
v -0.299480 -2.430102 0.050805
v -1.038995 -2.722171 0.044308
v -1.038995 -2.430102 0.050805
v -0.560770 -2.430102 -0.029934
v 0.560770 -2.722171 -0.036431
v 0.844909 -2.722171 -0.036431
v 0.844909 -2.430102 -0.029934
v 0.299480 -2.722171 0.044308
v 0.299480 -2.430102 0.050805
v 1.038995 -2.722171 0.044308
v 1.038995 -2.430102 0.050805
v 0.560770 -2.430102 -0.029934
v 0.173217 0.458526 3.370780
v 0.198382 1.868617 3.526027
v 0.566769 0.555582 3.299129
v 0.000000 0.458526 3.370780
v 0.000000 1.888918 3.523415
v 0.746611 1.035013 3.382464
v 0.537308 1.728365 3.449024
v -0.173217 0.458526 3.370780
v -0.198382 1.868617 3.526027
v -0.566769 0.555582 3.299129
v -0.746611 1.035013 3.382464
v -0.537308 1.728365 3.449024
v 0.885051 1.064202 1.453181
v 0.285572 1.348719 1.675214
v 0.782091 -0.780769 1.336204
v 0.000000 1.322602 1.904660
v 0.454053 -0.912382 1.375658
v 1.154097 0.687947 1.416599
v 1.189295 0.077282 1.607614
v -0.885051 1.064202 1.453181
v -0.285572 1.348719 1.675214
v -0.782091 -0.780769 1.336204
v -0.454053 -0.912382 1.375658
v -1.154097 0.687947 1.416599
v -1.189295 0.077282 1.607614
v 0.293869 5.398407 -2.715978
v 0.242980 5.719874 -2.721582
v 0.000000 5.712645 -2.775249
v 0.000000 5.406680 -2.768583
v -0.293869 5.398407 -2.715978
v -0.242980 5.719874 -2.721582
v -5.947990 3.097193 -0.789667
v -5.754626 3.999336 -1.242344
v -5.897794 2.992811 -0.961191
v -5.702254 3.912401 -1.431218
v -5.951992 2.333657 -0.555219
v -5.994907 2.446433 -0.394042
v -6.024805 2.979863 -0.738891
v -5.958458 2.883976 -0.908618
v -5.892169 2.220827 -0.482673
v -5.938121 2.330753 -0.322704
v -5.955291 1.567862 -0.131697
v -5.991576 1.686024 0.019901
v 5.947990 3.097193 -0.789667
v 5.754626 3.999336 -1.242344
v 5.897794 2.992811 -0.961191
v 5.702254 3.912401 -1.431218
v 5.951992 2.333657 -0.555219
v 5.994907 2.446433 -0.394042
v 6.024805 2.979863 -0.738891
v 5.958458 2.883976 -0.908618
v 5.892169 2.220827 -0.482673
v 5.938121 2.330753 -0.322704
v 5.955291 1.567862 -0.131697
v 5.991576 1.686024 0.019901
v 4.926675 0.281227 -5.263319
v 2.870871 10.959241 -11.047276
v 4.449716 0.236340 -5.176660
v 2.393911 10.914353 -10.960617
v 4.872624 0.042781 -5.684313
v 2.901251 10.282256 -11.230728
v 4.395665 -0.002106 -5.597655
v 2.424291 10.237370 -11.144068
v 4.674438 1.591367 -5.972982
v 4.422201 2.901506 -6.682645
v 4.169964 4.211646 -7.392308
v 3.917727 5.521786 -8.101972
v 3.665490 6.831926 -8.811635
v 3.413253 8.142066 -9.521298
v 3.038677 10.087639 -10.575156
v 2.561718 10.042752 -10.488497
v 2.936293 8.097178 -9.434639
v 3.188530 6.787039 -8.724976
v 3.440768 5.476900 -8.015312
v 3.693005 4.166759 -7.305649
v 3.945242 2.856619 -6.595986
v 4.197478 1.546480 -5.886322
v 2.549022 9.589512 -10.793143
v 2.882243 7.858733 -9.855634
v 3.134480 6.548593 -9.145970
v 3.386717 5.238453 -8.436307
v 3.638954 3.928314 -7.726644
v 3.891191 2.618173 -7.016980
v 4.143428 1.308033 -6.307317
v 3.025981 9.634398 -10.879803
v 3.359202 7.903620 -9.942293
v 3.611439 6.593480 -9.232630
v 3.863676 5.283340 -8.522966
v 4.115913 3.973201 -7.813303
v 4.368151 2.663060 -7.103639
v 4.620388 1.352920 -6.393976
v 3.171196 13.300155 -8.181799
v 2.694237 13.255269 -8.095140
v 3.274858 12.761729 -7.890148
v 2.797899 12.716840 -7.803490
v 2.948632 12.467225 -9.838196
v 3.145731 11.443479 -9.283663
v 2.668772 11.398590 -9.197003
v 2.471673 12.422338 -9.751536
v 3.071814 10.871464 -9.986775
v 2.594855 10.826577 -9.900116
v 2.415561 11.757842 -10.404554
v 2.892521 11.802730 -10.491213
v 3.020617 13.087806 -9.120560
v 3.237531 11.961137 -8.510277
v 2.760571 11.916249 -8.423617
v 2.543657 13.042918 -9.033901
v 3.086938 13.429591 -8.578499
v 3.300879 12.318362 -7.976580
v 2.823920 12.273475 -7.889921
v 2.609979 13.384704 -8.491840
vn -0.0000 -0.0743 -0.9972
vn 0.1196 -0.9880 -0.0975
vn 0.0096 0.9953 -0.0968
vn 0.4319 -0.8754 0.2171
vn 0.8104 0.5625 0.1637
vn 0.5233 -0.0634 -0.8498
vn 0.8204 0.5686 0.0607
vn 0.2525 -0.9649 -0.0719
vn -0.0000 -1.0000 -0.0000
vn -0.0000 -0.9995 -0.0312
vn 0.9064 -0.4224 0.0008
vn 0.3964 -0.5196 -0.7569
vn 0.8348 -0.4706 0.2857
vn -0.0000 -0.6748 0.7380
vn 0.1210 0.7083 0.6955
vn 0.9136 0.3798 -0.1454
vn -0.0000 -0.9879 -0.1554
vn 0.9662 0.2477 0.0708
vn 0.3102 -0.6321 0.7101
vn 0.9228 -0.3847 0.0222
vn 0.3480 -0.6800 0.6454
vn -0.0000 -0.9927 0.1207
vn 0.8034 0.5857 -0.1075
vn 0.9842 -0.0106 0.1769
vn 0.2275 0.1339 0.9645
vn -0.9924 -0.1231 0.0050
vn -0.0000 -0.0000 -1.0000
vn -0.0000 -0.0000 1.0000
vn 0.4946 -0.0180 -0.8690
vn -0.5398 -0.0000 0.8418
vn -0.9339 -0.0051 0.3574
vn 0.4488 0.0124 -0.8935
vn -0.9872 -0.0009 0.1597
vn 1.0000 -0.0020 0.0011
vn 0.7080 -0.4269 0.5625
vn 0.9945 0.0903 -0.0530
vn 0.5941 0.1528 0.7897
vn -0.0000 -0.0302 -0.9995
vn 0.7774 -0.0000 0.6290
vn 0.5562 0.0355 0.8303
vn 0.9885 0.0325 -0.1477
vn -0.0869 0.9962 0.0075
vn 0.9898 0.1358 0.0434
vn 0.9705 0.1748 -0.1659
vn 0.5655 0.7313 0.3812
vn -0.0000 -0.3619 0.9322
vn -0.0000 0.0113 -0.9999
vn 0.4030 0.0067 -0.9152
vn 0.9722 0.1545 -0.1760
vn 0.8665 -0.0355 -0.4980
vn 0.2626 -0.3911 0.8821
vn -0.2803 -0.0000 -0.9599
vn -0.0086 0.9951 -0.0990
vn -0.0000 0.9964 -0.0851
vn -0.0939 0.6689 0.7374
vn 0.2254 0.0375 0.9735
vn -0.0000 -0.0587 0.9983
vn 0.9055 0.1998 -0.3744
vn -0.0000 -0.7263 0.6874
vn 0.9686 -0.0014 0.2485
vn 0.8801 -0.0066 0.4747
vn 0.3414 -0.0000 -0.9399
vn 0.0957 -0.5962 -0.7971
vn 0.0830 0.9648 -0.2494
vn -0.0516 0.9955 -0.0791
vn 0.2263 -0.9672 -0.1151
vn 0.9074 -0.3227 -0.2694
vn 0.3145 0.9099 -0.2706
vn 0.9588 0.1460 0.2437
vn 0.2569 -0.0280 0.9660
vn -0.3800 0.8882 0.2582
vn 0.9678 0.0266 0.2501
vn 0.4706 0.0651 -0.8799
vn 0.8462 0.4677 0.2554
vn 0.9179 0.3655 0.1544
vn -0.0000 0.9910 -0.1335
vn 0.2963 -0.9551 -0.0000
vn 0.9959 0.0907 -0.0037
vn 0.0240 0.9994 -0.0259
vn 0.0369 -0.9992 -0.0178
vn 0.6543 0.5106 0.5579
vn 0.0973 0.6967 0.7107
vn 0.7126 0.6933 0.1075
vn 0.9516 0.1846 0.2459
vn 0.5667 0.1879 0.8022
vn 0.2343 0.2123 0.9487
vn 0.0002 0.9879 0.1553
vn 0.7138 0.5511 -0.4321
vn 0.0025 0.7632 -0.6462
vn 0.7282 0.6710 -0.1395
vn 0.5031 0.1820 -0.8448
vn 0.9670 0.1527 -0.2039
vn -0.0000 0.2060 -0.9785
vn 0.0007 0.9796 -0.2010
vn 0.9103 -0.0078 0.4138
vn -0.0000 0.9890 -0.1477
vn -0.0671 0.9886 -0.1350
vn -0.9480 -0.0060 0.3182
vn 0.0967 0.9873 -0.1259
vn 0.1945 -0.4350 0.8792
vn 0.8526 0.5212 -0.0387
vn -0.4389 0.7824 -0.4418
vn 0.0599 -0.4253 -0.9031
vn 0.5546 -0.5877 -0.5891
vn 0.2652 -0.5119 -0.8171
vn -0.2266 0.5231 0.8216
vn -0.4943 0.8468 -0.1965
vn 0.1984 -0.8435 0.4992
vn 0.2980 -0.8528 0.4288
vn -0.0634 0.6061 0.7928
vn 0.4751 -0.5867 -0.6558
vn -0.1872 0.6711 0.7173
vn 0.1804 -0.4956 -0.8496
vn 0.9167 -0.2383 0.3207
vn 0.8329 -0.4457 0.3281
vn 0.7910 0.5526 0.2627
vn 0.3360 0.8473 -0.4112
vn 0.9483 0.3164 -0.0233
vn 0.0514 0.8805 -0.4713
vn 0.9333 -0.0900 -0.3476
vn 0.0285 0.8064 -0.5907
vn -0.2991 0.9523 0.0609
vn 0.4110 0.9092 0.0671
vn 0.3572 -0.7059 -0.6116
vn 0.4479 0.6290 0.6354
vn -0.3575 0.9333 -0.0349
vn -0.1623 0.6276 0.7614
vn 0.9394 -0.0104 -0.3428
vn 0.4688 0.7223 -0.5084
vn -0.5406 0.8055 -0.2427
vn 0.8302 -0.5412 0.1339
vn 0.9743 -0.0966 -0.2034
vn 0.3532 -0.8834 0.3080
vn -0.2719 -0.4671 -0.8414
vn 0.2617 0.4621 0.8473
vn 0.5819 0.5681 -0.5819
vn -0.3496 0.8616 -0.3679
vn 0.7781 -0.5886 0.2193
vn -0.3509 -0.5057 -0.7881
vn 0.3452 -0.8019 0.4876
vn 0.9584 -0.2372 -0.1590
vn 0.2644 0.5149 0.8155
vn 0.5716 0.5760 -0.5844
vn -0.4574 0.8728 -0.1702
vn -0.2971 0.8176 -0.4932
vn 0.4061 -0.8386 0.3630
vn -0.2597 0.8608 -0.4377
vn 0.7878 -0.5462 0.2847
vn 0.9805 -0.1231 -0.1531
vn 0.2195 -0.7806 0.5853
vn -0.3716 -0.4652 -0.8034
vn 0.2788 0.4764 0.8339
vn 0.1811 -0.8552 0.4856
vn -0.3059 0.9016 -0.3058
vn -0.2434 -0.5189 -0.8195
vn -0.2617 -0.4491 -0.8543
vn -0.3649 -0.4881 -0.7928
vn 0.3535 0.4828 0.8012
vn 0.2346 0.5092 0.8281
vn 0.2508 0.4447 0.8598
vn -0.1196 -0.9880 -0.0975
vn -0.0096 0.9953 -0.0968
vn -0.4319 -0.8754 0.2171
vn -0.8104 0.5625 0.1637
vn -0.5233 -0.0634 -0.8498
vn -0.8204 0.5686 0.0607
vn -0.2525 -0.9649 -0.0719
vn -0.9064 -0.4224 0.0008
vn -0.3964 -0.5196 -0.7569
vn -0.8348 -0.4706 0.2857
vn -0.1210 0.7083 0.6955
vn -0.9136 0.3798 -0.1454
vn -0.9662 0.2477 0.0708
vn -0.3102 -0.6321 0.7101
vn -0.9228 -0.3847 0.0222
vn -0.3480 -0.6800 0.6454
vn -0.8034 0.5857 -0.1075
vn -0.9842 -0.0106 0.1769
vn -0.2275 0.1339 0.9645
vn 0.9924 -0.1231 0.0050
vn -0.4946 -0.0180 -0.8690
vn 0.5398 -0.0000 0.8418
vn 0.9339 -0.0051 0.3574
vn -0.4488 0.0124 -0.8935
vn 0.9872 -0.0009 0.1597
vn -1.0000 -0.0020 0.0011
vn -0.7080 -0.4269 0.5625
vn -0.9945 0.0903 -0.0530
vn -0.5941 0.1528 0.7897
vn -0.7774 -0.0000 0.6290
vn -0.5562 0.0355 0.8303
vn -0.9885 0.0325 -0.1477
vn 0.0869 0.9962 0.0075
vn -0.9898 0.1358 0.0434
vn -0.9705 0.1748 -0.1659
vn -0.5655 0.7313 0.3812
vn -0.4030 0.0067 -0.9152
vn -0.9722 0.1545 -0.1760
vn -0.8665 -0.0355 -0.4980
vn -0.2626 -0.3911 0.8821
vn 0.2803 -0.0000 -0.9599
vn 0.0086 0.9951 -0.0990
vn 0.0939 0.6689 0.7374
vn -0.2254 0.0375 0.9735
vn -0.9055 0.1998 -0.3744
vn -0.9686 -0.0014 0.2485
vn -0.8801 -0.0066 0.4747
vn -0.3414 -0.0000 -0.9399
vn -0.0957 -0.5962 -0.7971
vn -0.0830 0.9648 -0.2494
vn 0.0516 0.9955 -0.0791
vn -0.2263 -0.9672 -0.1151
vn -0.9074 -0.3227 -0.2694
vn -0.3145 0.9099 -0.2706
vn -0.9588 0.1460 0.2437
vn -0.2569 -0.0280 0.9660
vn 0.3800 0.8882 0.2582
vn -0.9678 0.0266 0.2501
vn -0.4706 0.0651 -0.8799
vn -0.8462 0.4677 0.2554
vn -0.9179 0.3655 0.1544
vn -0.2963 -0.9551 -0.0000
vn -0.9959 0.0907 -0.0037
vn -0.0240 0.9994 -0.0259
vn -0.0369 -0.9992 -0.0178
vn -0.6543 0.5106 0.5579
vn -0.0973 0.6967 0.7107
vn -0.7126 0.6933 0.1075
vn -0.9516 0.1846 0.2459
vn -0.5667 0.1879 0.8022
vn -0.2343 0.2123 0.9487
vn -0.0002 0.9879 0.1553
vn -0.7138 0.5511 -0.4321
vn -0.0025 0.7632 -0.6462
vn -0.7282 0.6710 -0.1395
vn -0.5031 0.1820 -0.8448
vn -0.9670 0.1527 -0.2039
vn -0.0007 0.9796 -0.2010
vn -0.9103 -0.0078 0.4138
vn 0.0671 0.9886 -0.1350
vn 0.9480 -0.0060 0.3182
vn -0.0967 0.9873 -0.1259
vn -0.1945 -0.4350 0.8792
vn -0.8526 0.5212 -0.0387
vn 0.4389 0.7824 -0.4418
vn -0.0599 -0.4253 -0.9031
vn -0.5546 -0.5877 -0.5891
vn -0.2652 -0.5119 -0.8171
vn 0.2266 0.5231 0.8216
vn 0.4943 0.8468 -0.1965
vn -0.1984 -0.8435 0.4992
vn -0.3027 -0.8428 0.4451
vn 0.0634 0.6061 0.7928
vn -0.4751 -0.5867 -0.6558
vn 0.1872 0.6711 0.7173
vn -0.1804 -0.4956 -0.8496
vn -0.9167 -0.2383 0.3207
vn -0.8329 -0.4457 0.3281
vn -0.7910 0.5526 0.2627
vn -0.3360 0.8473 -0.4112
vn -0.9483 0.3164 -0.0233
vn -0.0514 0.8805 -0.4713
vn -0.9333 -0.0900 -0.3476
vn -0.0285 0.8064 -0.5907
vn 0.2991 0.9523 0.0609
vn -0.4110 0.9092 0.0671
vn -0.3572 -0.7059 -0.6116
vn -0.4479 0.6290 0.6354
vn 0.3575 0.9333 -0.0349
vn 0.1623 0.6276 0.7614
vn -0.9394 -0.0104 -0.3428
vn -0.4688 0.7223 -0.5084
vn 0.5406 0.8055 -0.2427
vn -0.8302 -0.5412 0.1339
vn -0.9743 -0.0966 -0.2033
vn -0.3444 -0.8957 0.2814
vn 0.2692 -0.4722 -0.8393
vn -0.2592 0.4669 0.8455
vn -0.5819 0.5681 -0.5819
vn 0.3496 0.8616 -0.3679
vn -0.7781 -0.5886 0.2193
vn 0.3509 -0.5057 -0.7881
vn -0.3452 -0.8019 0.4876
vn -0.9584 -0.2372 -0.1590
vn -0.2644 0.5149 0.8155
vn -0.5716 0.5760 -0.5844
vn 0.4658 0.8637 -0.1924
vn 0.2971 0.8176 -0.4932
vn -0.4061 -0.8386 0.3630
vn 0.2640 0.8519 -0.4523
vn -0.7878 -0.5462 0.2847
vn -0.9805 -0.1231 -0.1531
vn -0.2195 -0.7806 0.5853
vn 0.3716 -0.4652 -0.8034
vn -0.2788 0.4764 0.8339
vn -0.1879 -0.8397 0.5095
vn 0.3112 0.8940 -0.3223
vn 0.2438 -0.5178 -0.8200
vn 0.2639 -0.4394 -0.8587
vn 0.3649 -0.4881 -0.7928
vn -0.3535 0.4828 0.8012
vn -0.2357 0.5061 0.8296
vn -0.2529 0.4358 0.8638
vn -0.9539 0.0272 0.2988
vn -0.9573 0.0271 0.2879
vn -0.9607 0.0270 0.2762
vn -0.9643 0.0268 0.2636
vn -0.2160 0.0375 0.9757
vn -0.2181 0.0375 0.9752
vn -0.2204 0.0375 0.9747
vn -0.2228 0.0375 0.9741
vn -0.9909 0.0327 -0.1305
vn -0.9903 0.0327 -0.1348
vn -0.9897 0.0326 -0.1391
vn -0.9891 0.0326 -0.1434
vn -0.5965 0.0352 0.8018
vn -0.5867 0.0352 0.8090
vn -0.5767 0.0353 0.8162
vn -0.5665 0.0354 0.8233
vn -0.4656 0.0128 -0.8849
vn -0.4621 0.0127 -0.8868
vn -0.4581 0.0126 -0.8888
vn -0.4538 0.0125 -0.8910
vn 0.9539 0.0272 0.2988
vn 0.9573 0.0271 0.2879
vn 0.9607 0.0270 0.2762
vn 0.9643 0.0268 0.2636
vn 0.2160 0.0375 0.9757
vn 0.2181 0.0375 0.9752
vn 0.2204 0.0375 0.9747
vn 0.2228 0.0375 0.9741
vn 0.9909 0.0327 -0.1305
vn 0.9903 0.0327 -0.1348
vn 0.9897 0.0326 -0.1391
vn 0.9891 0.0326 -0.1434
vn 0.5965 0.0352 0.8018
vn 0.5867 0.0352 0.8090
vn 0.5767 0.0353 0.8162
vn 0.5665 0.0354 0.8233
vn 0.4656 0.0128 -0.8849
vn 0.4621 0.0127 -0.8868
vn 0.4581 0.0126 -0.8888
vn 0.4538 0.0125 -0.8910
vn 0.2482 -0.6384 -0.7286
vn -0.1323 0.5097 0.8501
vn -0.0183 0.4301 0.9026
vn 0.1965 -0.7675 0.6102
vn -0.4735 0.8071 -0.3526
vn -0.3238 0.7232 0.6100
vn 0.3343 -0.6340 -0.6974
vn 0.1396 -0.6556 -0.7421
vn -0.2482 -0.6384 -0.7286
vn 0.1323 0.5097 0.8501
vn 0.0183 0.4301 0.9026
vn -0.1965 -0.7675 0.6102
vn 0.4735 0.8071 -0.3526
vn 0.3238 0.7232 0.6100
vn -0.3343 -0.6340 -0.6974
vn -0.1396 -0.6556 -0.7421
vn 0.4480 0.8819 -0.1464
vn -0.2649 0.4560 0.8496
vn 0.2752 -0.4605 -0.8439
vn -0.3612 -0.8711 0.3328
vn -0.2335 0.5120 0.8267
vn 0.2430 -0.5198 -0.8190
vn 0.3001 0.9094 -0.2881
vn -0.2928 -0.8633 0.4111
vn -0.2490 0.4525 0.8563
vn 0.2598 -0.4574 -0.8504
vn -0.1736 -0.8709 0.4597
vn 0.2550 0.8700 -0.4220
vn -0.9959 0.0907 -0.0016
vn 0.9924 -0.1231 0.0021
vn 0.9959 0.0907 -0.0016
vn -0.9924 -0.1231 0.0021
vn -0.9959 0.0907 -0.0026
vn 0.9924 -0.1231 0.0035
vn 0.9959 0.0907 -0.0026
vn -0.9924 -0.1231 0.0035
vn -0.9924 -0.1231 0.0007
vn 0.9959 0.0907 -0.0005
vn 0.9924 -0.1231 0.0007
vn -0.9959 0.0907 -0.0005
vn -0.0610 0.9894 -0.1318
vn 0.0481 0.9894 -0.1369
vn -0.9686 -0.0031 0.2486
vn 0.9871 -0.0020 0.1598
vn 0.0610 0.9894 -0.1318
vn -0.0481 0.9894 -0.1369
vn 0.9686 -0.0031 0.2486
vn -0.9871 -0.0020 0.1598
vn 0.9480 -0.0080 0.3183
vn -0.9102 -0.0105 0.4139
vn 0.0439 0.9946 -0.0937
vn -0.0574 0.9952 -0.0795
vn -0.9480 -0.0080 0.3183
vn 0.9102 -0.0105 0.4139
vn -0.0439 0.9946 -0.0937
vn 0.0574 0.9952 -0.0795
vn -0.1349 0.8743 -0.4663
vn -0.9631 0.2688 0.0116
vn -0.1982 0.8753 -0.4410
vn -0.8016 -0.3320 0.4973
vn -0.2711 -0.6428 0.7165
vn 0.1349 0.8743 -0.4663
vn 0.9631 0.2688 0.0116
vn 0.1982 0.8753 -0.4410
vn 0.8016 -0.3320 0.4973
vn 0.2711 -0.6428 0.7165
vn -0.4873 0.8701 0.0740
vn 0.2473 0.9654 -0.0831
vn -0.9520 0.2236 0.2092
vn -0.8217 -0.4940 0.2843
vn -0.8093 0.5641 0.1638
vn -0.3388 -0.9185 0.2037
vn 0.4873 0.8701 0.0740
vn -0.2473 0.9654 -0.0831
vn 0.9520 0.2236 0.2092
vn 0.8217 -0.4940 0.2843
vn 0.8093 0.5641 0.1638
vn 0.3388 -0.9185 0.2037
vn -0.9659 0.2541 -0.0498
vn 0.9659 0.2541 -0.0498
vn -0.3582 0.4744 0.8041
vn -0.2865 0.4842 0.8268
vn -0.3392 0.4988 0.7976
vn -0.3590 0.4595 0.8124
vn 0.2845 -0.4898 -0.8241
vn 0.2638 -0.5191 -0.8130
vn 0.2762 -0.4848 -0.8299
vn 0.3699 -0.4793 -0.7959
vn -0.4215 -0.8144 0.3990
vn 0.5255 0.8244 -0.2105
vn -0.3405 0.4954 0.7991
vn -0.3354 -0.8196 0.4644
vn 0.3530 -0.5002 -0.7907
vn 0.3389 0.8759 -0.3435
vn -0.3583 0.4625 0.8110
vn 0.3708 -0.4690 -0.8016
vn -0.2036 -0.8094 0.5508
vn 0.2877 0.8332 -0.4722
vn 0.3582 0.4744 0.8041
vn -0.2845 -0.4898 -0.8241
vn -0.2638 -0.5191 -0.8130
vn -0.2762 -0.4848 -0.8299
vn 0.2865 0.4842 0.8268
vn 0.3392 0.4988 0.7976
vn 0.3590 0.4595 0.8124
vn -0.3699 -0.4793 -0.7959
vn 0.4215 -0.8144 0.3990
vn -0.5255 0.8244 -0.2105
vn 0.3405 0.4954 0.7991
vn 0.3354 -0.8196 0.4644
vn -0.3530 -0.5002 -0.7907
vn -0.3389 0.8759 -0.3435
vn 0.3583 0.4625 0.8110
vn -0.3708 -0.4690 -0.8016
vn 0.2036 -0.8094 0.5508
vn -0.2877 0.8332 -0.4722
vn 0.9797 0.0922 -0.1780
vn -0.9797 -0.0922 0.1780
vn -0.1110 -0.4898 -0.8647
vn 0.1669 -0.8670 0.4696
vn -0.1957 0.2483 -0.9487
vn 0.1110 0.4898 0.8647
vn 0.1920 -0.1769 0.9653
vn -0.0318 0.9482 0.3161
vn -0.1912 0.6962 -0.6920
vn 0.1832 -0.7719 0.6087
vn 0.1976 -0.5938 0.7800
vn -0.1993 0.5429 -0.8158
vn -0.1856 0.7524 -0.6320
vn 0.1748 -0.8277 0.5333
vn -0.1720 0.8426 -0.5103
vt 0.913350 0.264280
vt 0.912087 0.238191
vt 0.929187 0.238064
vt 0.930450 0.264153
vt 0.189963 0.919289
vt 0.176531 0.917618
vt 0.163002 0.877131
vt 0.178962 0.877521
vt 0.577142 0.736011
vt 0.568932 0.718617
vt 0.577634 0.719011
vt 0.585385 0.730874
vt 0.507921 0.679811
vt 0.513485 0.669175
vt 0.537579 0.691256
vt 0.532369 0.703688
vt 0.110884 0.396501
vt 0.116944 0.381628
vt 0.137339 0.379470
vt 0.132735 0.397482
vt 0.947584 0.237523
vt 0.948847 0.263612
vt 0.521554 0.881683
vt 0.504655 0.877576
vt 0.490922 0.840942
vt 0.521554 0.834354
vt 0.139906 0.876900
vt 0.129449 0.835415
vt 0.142870 0.836026
vt 0.168895 0.833719
vt 0.151600 0.835252
vt 0.148923 0.823531
vt 0.166219 0.821998
vt 0.626565 0.849593
vt 0.644959 0.855173
vt 0.642726 0.871161
vt 0.623260 0.865257
vt 0.450701 0.602728
vt 0.467397 0.562415
vt 0.501468 0.594297
vt 0.480620 0.637874
vt 0.927574 0.325564
vt 0.931713 0.290242
vt 0.950110 0.289701
vt 0.955092 0.321827
vt 0.553483 0.647578
vt 0.562239 0.660977
vt 0.608533 0.854742
vt 0.615699 0.838725
vt 0.158011 0.680210
vt 0.150462 0.680879
vt 0.152428 0.648082
vt 0.159977 0.647413
vt 0.458782 0.964711
vt 0.439830 0.952913
vt 0.439100 0.947820
vt 0.458746 0.949513
vt 0.665553 0.393587
vt 0.642288 0.371226
vt 0.663751 0.374724
vt 0.678717 0.384722
vt 0.624626 0.891485
vt 0.623586 0.871297
vt 0.636772 0.873599
vt 0.637347 0.895831
vt 0.914613 0.290369
vt 0.602856 0.679215
vt 0.592085 0.638303
vt 0.634064 0.661651
vt 0.135181 0.683548
vt 0.142474 0.651570
vt 0.544728 0.634178
vt 0.489390 0.647093
vt 0.129805 0.760843
vt 0.127889 0.715526
vt 0.148496 0.713676
vt 0.141009 0.759422
vt 0.154560 0.758221
vt 0.507201 0.803184
vt 0.567479 0.625222
vt 0.579548 0.646169
vt 0.459317 0.772160
vt 0.442544 0.770631
vt 0.443895 0.756544
vt 0.459352 0.757989
vt 0.864447 0.940855
vt 0.877353 0.941117
vt 0.877353 0.956954
vt 0.864446 0.956543
vt 0.663114 0.853107
vt 0.663114 0.871297
vt 0.647456 0.790492
vt 0.653927 0.792454
vt 0.651968 0.804715
vt 0.645498 0.802752
vt 0.690560 0.673068
vt 0.690560 0.651760
vt 0.696822 0.651433
vt 0.696822 0.672741
vt 0.955092 0.700757
vt 0.962224 0.700253
vt 0.963198 0.714685
vt 0.956066 0.715189
vt 0.926507 0.217378
vt 0.945703 0.216484
vt 0.965292 0.700136
vt 0.966207 0.713698
vt 0.505931 0.894889
vt 0.490922 0.895742
vt 0.490978 0.882104
vt 0.505651 0.881683
vt 0.932556 0.081380
vt 0.917011 0.083037
vt 0.914637 0.049451
vt 0.929269 0.047604
vt 0.500515 0.940796
vt 0.498278 0.960000
vt 0.491609 0.960191
vt 0.491265 0.941150
vt 0.484402 0.546435
vt 0.518050 0.580648
vt 0.617806 0.701221
vt 0.637657 0.687735
vt 0.672457 0.696256
vt 0.650252 0.706085
vt 0.845795 0.916130
vt 0.858728 0.916073
vt 0.864446 0.938539
vt 0.844703 0.938539
vt 0.429563 0.774229
vt 0.432095 0.758136
vt 0.910947 0.217493
vt 0.623089 0.954217
vt 0.608533 0.955167
vt 0.608829 0.952896
vt 0.623062 0.951967
vt 0.441855 0.806068
vt 0.428919 0.809450
vt 0.612450 0.440964
vt 0.586735 0.411341
vt 0.612278 0.390361
vt 0.638297 0.419632
vt 0.637346 0.802185
vt 0.645717 0.791869
vt 0.560181 0.707324
vt 0.561981 0.719856
vt 0.554350 0.723159
vt 0.557624 0.709967
vt 0.555410 0.604276
vt 0.621927 0.383157
vt 0.649308 0.409206
vt 0.049155 0.354844
vt 0.039821 0.372106
vt 0.034917 0.367976
vt 0.045559 0.354818
vt 0.590765 0.834316
vt 0.575026 0.826387
vt 0.578579 0.819205
vt 0.594318 0.827134
vt 0.902683 0.083142
vt 0.900617 0.049555
vt 0.690767 0.727980
vt 0.697301 0.727758
vt 0.696143 0.736300
vt 0.688305 0.740315
vt 0.499054 0.535449
vt 0.470084 0.509032
vt 0.484564 0.495260
vt 0.509064 0.526293
vt 0.433859 0.544004
vt 0.451972 0.526518
vt 0.582128 0.843524
vt 0.563804 0.843571
vt 0.688305 0.629655
vt 0.694567 0.629327
vt 0.564364 0.738288
vt 0.552126 0.736799
vt 0.793411 0.872345
vt 0.798357 0.830251
vt 0.814159 0.835158
vt 0.812371 0.869457
vt 0.656429 0.795119
vt 0.659023 0.808760
vt 0.459203 0.807631
vt 0.549902 0.813842
vt 0.553455 0.806660
vt 0.156045 0.713007
vt 0.609365 0.891160
vt 0.608533 0.871703
vt 0.614750 0.871297
vt 0.618002 0.890684
vt 0.609525 0.938367
vt 0.623586 0.937865
vt 0.694567 0.689073
vt 0.688305 0.689400
vt 0.913716 0.326903
vt 0.151579 0.352263
vt 0.155995 0.340442
vt 0.188702 0.340302
vt 0.188459 0.350810
vt 0.130223 0.352649
vt 0.140182 0.340212
vt 0.149711 0.912132
vt 0.426344 0.570518
vt 0.184638 0.370454
vt 0.656932 0.440941
vt 0.667631 0.430891
vt 0.549902 0.827362
vt 0.068016 0.376111
vt 0.090869 0.373921
vt 0.080621 0.399240
vt 0.070132 0.392006
vt 0.630716 0.463845
vt 0.912452 0.029360
vt 0.924481 0.033983
vt 0.527630 0.560996
vt 0.525854 0.555462
vt 0.684418 0.415287
vt 0.688305 0.398818
vt 0.676309 0.886329
vt 0.687457 0.883843
vt 0.685078 0.907245
vt 0.675805 0.912217
vt 0.140194 0.824305
vt 0.140601 0.791863
vt 0.126773 0.823694
vt 0.965211 0.655768
vt 0.956496 0.656384
vt 0.956964 0.641593
vt 0.966207 0.640940
vt 0.902739 0.936554
vt 0.902736 0.950870
vt 0.890076 0.952579
vt 0.890076 0.938125
vt 0.688305 0.491956
vt 0.695787 0.493328
vt 0.695272 0.508547
vt 0.688305 0.507269
vt 0.567132 0.706085
vt 0.569014 0.707784
vt 0.446152 0.725878
vt 0.436612 0.732804
vt 0.439204 0.713471
vt 0.447607 0.706085
vt 0.459407 0.727175
vt 0.459343 0.706085
vt 0.583430 0.864341
vt 0.574239 0.862573
vt 0.576481 0.844761
vt 0.585817 0.848446
vt 0.562754 0.861983
vt 0.564905 0.844165
vt 0.573154 0.883022
vt 0.583146 0.882354
vt 0.585887 0.902047
vt 0.574072 0.902313
vt 0.561525 0.882427
vt 0.561979 0.901659
vt 0.908720 0.000000
vt 0.918986 0.010579
vt 0.899387 0.029457
vt 0.896575 0.000032
vt 0.609861 0.924492
vt 0.610196 0.910618
vt 0.621253 0.910071
vt 0.622420 0.923968
vt 0.588947 0.770526
vt 0.569188 0.774046
vt 0.566746 0.756720
vt 0.585353 0.753405
vt 0.549902 0.769756
vt 0.549902 0.750439
vt 0.504341 0.908241
vt 0.502751 0.921592
vt 0.490922 0.922109
vt 0.490922 0.908925
vt 0.649581 0.821950
vt 0.661068 0.821838
vt 0.663114 0.834916
vt 0.647193 0.839184
vt 0.637684 0.818341
vt 0.629871 0.833930
vt 0.622866 0.822708
vt 0.630106 0.812446
vt 0.593136 0.742736
vt 0.600834 0.760682
vt 0.778133 0.822614
vt 0.779327 0.868982
vt 0.775402 0.824620
vt 0.512537 0.790915
vt 0.052826 0.375298
vt 0.059379 0.391415
vt 0.287072 0.871234
vt 0.294688 0.826901
vt 0.317299 0.831116
vt 0.305613 0.867012
vt 0.265949 0.939025
vt 0.250208 0.934371
vt 0.249825 0.914540
vt 0.265407 0.923196
vt 0.269558 0.871865
vt 0.250005 0.860403
vt 0.250185 0.806266
vt 0.273710 0.820533
vt 0.820075 0.782008
vt 0.804075 0.787730
vt 0.793991 0.740302
vt 0.817049 0.726699
vt 0.066616 0.434919
vt 0.075950 0.436285
vt 0.081768 0.480564
vt 0.073854 0.478423
vt 0.875933 0.359819
vt 0.884286 0.361542
vt 0.876773 0.393105
vt 0.869403 0.392734
vt 0.418903 0.814760
vt 0.414364 0.888862
vt 0.406170 0.886808
vt 0.411682 0.813239
vt 0.786052 0.788334
vt 0.764639 0.786650
vt 0.280102 0.943617
vt 0.279456 0.915567
vt 0.585359 0.696358
vt 0.169858 0.387618
vt 0.214047 0.364759
vt 0.219142 0.348430
vt 0.249825 0.346051
vt 0.243457 0.359063
vt 0.661184 0.674668
vt 0.688305 0.687684
vt 0.219263 0.339220
vt 0.249825 0.338138
vt 0.919558 0.538299
vt 0.919558 0.500098
vt 0.924629 0.523788
vt 0.108867 0.353036
vt 0.096550 0.383786
vt 0.293927 0.902907
vt 0.290758 0.946637
vt 0.814438 0.894595
vt 0.124368 0.339983
vt 0.057482 0.337858
vt 0.930872 0.509356
vt 0.009843 0.629208
vt -0.000000 0.627298
vt 0.002921 0.603506
vt 0.012913 0.605632
vt 0.021385 0.576294
vt 0.030857 0.578424
vt 0.241191 0.845644
vt 0.231199 0.844521
vt 0.233379 0.824690
vt 0.243499 0.825718
vt 0.238849 0.802664
vt 0.248892 0.804651
vt 0.697052 0.446018
vt 0.688305 0.444609
vt 0.689195 0.371226
vt 0.697052 0.372002
vt 0.252424 0.712967
vt 0.290348 0.729068
vt 0.780005 0.650293
vt 0.817414 0.634947
vt 0.932815 0.487469
vt 0.942314 0.486423
vt 0.945050 0.492878
vt 0.935678 0.494276
vt 0.944179 0.449962
vt 0.935122 0.451042
vt 0.913360 0.922616
vt 0.903492 0.923194
vt 0.902747 0.911281
vt 0.912616 0.910559
vt 0.302428 0.691999
vt 0.327372 0.708030
vt 0.318090 0.742206
vt 0.294468 0.729396
vt 0.416633 0.919737
vt 0.418903 0.950612
vt 0.409736 0.948025
vt 0.407953 0.917416
vt 0.903582 0.893889
vt 0.913360 0.893606
vt 0.754393 0.574375
vt 0.762143 0.577027
vt 0.736722 0.596394
vt 0.740838 0.585206
vt 0.534397 0.940572
vt 0.543279 0.938753
vt 0.546416 0.948171
vt 0.537660 0.950148
vt 0.048801 0.551216
vt 0.039848 0.549082
vt 0.545044 0.905274
vt 0.536610 0.906972
vt 0.235725 0.875431
vt 0.245041 0.876806
vt 0.248892 0.907969
vt 0.240251 0.906341
vt 0.541491 0.790915
vt 0.546810 0.871795
vt 0.538822 0.873372
vt 0.534397 0.792251
vt 0.608477 0.822882
vt 0.598993 0.824405
vt 0.597871 0.812703
vt 0.607404 0.811023
vt 0.598845 0.792493
vt 0.608477 0.791373
vt 0.877752 0.493388
vt 0.886285 0.494652
vt 0.891799 0.523960
vt 0.882879 0.522398
vt 0.331124 0.713627
vt 0.361596 0.728931
vt 0.348443 0.757545
vt 0.320592 0.745937
vt 0.720533 0.599854
vt 0.731406 0.603656
vt 0.698744 0.622416
vt 0.702873 0.611323
vt 0.880771 0.465344
vt 0.872626 0.464377
vt 0.940543 0.326903
vt 0.946044 0.413500
vt 0.937430 0.414614
vt 0.932815 0.328086
vt 0.296248 0.691507
vt 0.251124 0.674489
vt 0.249825 0.636012
vt 0.302148 0.653946
vt 0.820258 0.597457
vt 0.775673 0.613674
vt 0.771342 0.577054
vt 0.823102 0.559966
vt 0.752573 0.663020
vt 0.775405 0.650279
vt 0.773747 0.746416
vt 0.722283 0.678165
vt 0.749915 0.666651
vt 0.751145 0.750685
vt 0.896250 0.264406
vt 0.894987 0.238317
vt 0.195012 0.874294
vt 0.203634 0.915216
vt 0.522397 0.736105
vt 0.514265 0.731320
vt 0.522119 0.719253
vt 0.530958 0.718558
vt 0.180178 0.788356
vt 0.168112 0.757020
vt 0.184654 0.755982
vt 0.196458 0.786227
vt 0.558294 0.305424
vt 0.545381 0.326616
vt 0.529007 0.310228
vt 0.543388 0.294013
vt 0.874256 0.264163
vt 0.872993 0.238074
vt 0.645954 0.231179
vt 0.611229 0.265162
vt 0.595235 0.231373
vt 0.628028 0.212055
vt 0.194920 0.831413
vt 0.210937 0.828193
vt 0.221394 0.869678
vt 0.183514 0.820466
vt 0.186190 0.832187
vt 0.648043 0.774162
vt 0.644880 0.790076
vt 0.625998 0.782509
vt 0.630201 0.767012
vt 0.673426 0.286842
vt 0.642446 0.322211
vt 0.627515 0.281403
vt 0.662577 0.249934
vt 0.899074 0.325775
vt 0.869403 0.322460
vt 0.875519 0.290252
vt 0.897513 0.290495
vt 0.606710 0.349938
vt 0.580025 0.368471
vt 0.561365 0.342482
vt 0.572189 0.331596
vt 0.661477 0.771738
vt 0.661477 0.790492
vt 0.167526 0.646744
vt 0.165560 0.679541
vt 0.478334 0.947835
vt 0.477643 0.952927
vt 0.459735 0.035496
vt 0.443955 0.020000
vt 0.459426 0.010810
vt 0.481645 0.009903
vt 0.649957 0.895908
vt 0.649957 0.875901
vt 0.517921 0.354927
vt 0.484073 0.328108
vt 0.180303 0.648218
vt 0.184582 0.679170
vt 0.633394 0.331406
vt 0.583013 0.320709
vt 0.163594 0.712338
vt 0.188862 0.710123
vt 0.576279 0.269828
vt 0.474759 0.756556
vt 0.476039 0.770643
vt 0.890076 0.940337
vt 0.890076 0.955914
vt 0.877353 0.957071
vt 0.877356 0.941355
vt 0.608533 0.769275
vt 0.615484 0.753307
vt 0.652786 0.708601
vt 0.649774 0.720646
vt 0.643497 0.718130
vt 0.646509 0.706085
vt 0.690560 0.587508
vt 0.696822 0.587181
vt 0.696822 0.608489
vt 0.690560 0.608816
vt 0.966238 0.626507
vt 0.965270 0.640939
vt 0.958135 0.640484
vt 0.959103 0.626052
vt 0.872833 0.217023
vt 0.895387 0.217608
vt 0.955092 0.639516
vt 0.956002 0.625954
vt 0.520571 0.947242
vt 0.519635 0.960914
vt 0.505931 0.961227
vt 0.506501 0.947147
vt 0.870089 0.081842
vt 0.869403 0.048047
vt 0.886597 0.049658
vt 0.888355 0.083248
vt 0.515232 0.900835
vt 0.506583 0.900945
vt 0.505931 0.881825
vt 0.512159 0.881683
vt 0.192024 0.631237
vt 0.197472 0.665812
vt 0.841191 0.917076
vt 0.844703 0.939951
vt 0.823102 0.939951
vt 0.826156 0.916779
vt 0.486419 0.758157
vt 0.488861 0.774252
vt 0.601464 0.843571
vt 0.601117 0.845675
vt 0.585887 0.846826
vt 0.585887 0.844748
vt 0.476498 0.806082
vt 0.489273 0.809473
vt 0.513843 0.094943
vt 0.488149 0.069042
vt 0.513344 0.036786
vt 0.538786 0.062352
vt 0.653745 0.710949
vt 0.656953 0.725486
vt 0.540125 0.707063
vt 0.542909 0.709628
vt 0.545542 0.722530
vt 0.537950 0.719536
vt 0.571207 0.284232
vt 0.502761 0.026296
vt 0.476845 0.055893
vt 0.582779 0.231332
vt 0.583617 0.225545
vt 0.596277 0.224038
vt 0.597871 0.819952
vt 0.582132 0.812023
vt 0.688305 0.714485
vt 0.696143 0.717889
vt 0.616618 0.198545
vt 0.640552 0.164614
vt 0.654957 0.181197
vt 0.690398 0.222252
vt 0.672678 0.201724
vt 0.171729 0.629208
vt 0.694567 0.629000
vt 0.688305 0.629327
vt 0.535252 0.737904
vt 0.547722 0.736001
vt 0.852913 0.871551
vt 0.833932 0.868683
vt 0.832120 0.834480
vt 0.847995 0.829475
vt 0.635927 0.717061
vt 0.643354 0.706785
vt 0.557008 0.799478
vt 0.588236 0.906270
vt 0.597458 0.905484
vt 0.595941 0.924894
vt 0.589288 0.925397
vt 0.586262 0.860593
vt 0.601214 0.859039
vt 0.688305 0.569582
vt 0.694567 0.569254
vt 0.151579 0.328608
vt 0.188459 0.330386
vt 0.130223 0.326558
vt 0.231199 0.904910
vt 0.698744 0.254156
vt 0.137339 0.305093
vt 0.184638 0.311925
vt 0.467005 0.087287
vt 0.455861 0.074332
vt 0.588957 0.792728
vt 0.567706 0.791373
vt 0.068016 0.294357
vt 0.070132 0.275602
vt 0.080621 0.269979
vt 0.090869 0.300911
vt 0.492859 0.114637
vt 0.886321 0.029553
vt 0.872619 0.034366
vt 0.438225 0.053934
vt 0.434059 0.034581
vt 0.666726 0.907245
vt 0.665258 0.883843
vt 0.192244 0.819692
vt 0.208261 0.816472
vt 0.956095 0.581605
vt 0.955092 0.566790
vt 0.964340 0.567381
vt 0.964814 0.582163
vt 0.649960 0.919472
vt 0.662861 0.919904
vt 0.662861 0.936106
vt 0.649961 0.935526
vt 0.695905 0.553844
vt 0.695381 0.568944
vt 0.688305 0.569254
vt 0.688305 0.554178
vt 0.533133 0.706085
vt 0.531264 0.707846
vt 0.428063 0.049901
vt 0.426344 0.029128
vt 0.471080 0.706094
vt 0.472616 0.725888
vt 0.437716 0.013256
vt 0.482045 0.732821
vt 0.551269 0.861393
vt 0.553331 0.843571
vt 0.454707 0.001871
vt 0.475842 0.000000
vt 0.549902 0.901071
vt 0.549902 0.881827
vt 0.874415 0.010908
vt 0.884441 0.000179
vt 0.586723 0.873868
vt 0.600095 0.872557
vt 0.598975 0.886074
vt 0.587183 0.887143
vt 0.510289 0.770812
vt 0.513837 0.753652
vt 0.532555 0.756271
vt 0.530166 0.773593
vt 0.549902 0.749471
vt 0.549902 0.768674
vt 0.519438 0.933615
vt 0.506868 0.933606
vt 0.507235 0.920064
vt 0.518305 0.919987
vt 0.638950 0.734822
vt 0.634403 0.751515
vt 0.622436 0.737340
vt 0.629181 0.727200
vt 0.650490 0.739447
vt 0.659215 0.739236
vt 0.661477 0.752985
vt 0.651206 0.758248
vt 0.498666 0.761506
vt 0.506411 0.743386
vt 0.384509 0.850813
vt 0.394421 0.850594
vt 0.406170 0.893472
vt 0.398268 0.901052
vt 0.052826 0.296793
vt 0.059379 0.277150
vt 0.084441 0.861240
vt 0.065252 0.856393
vt 0.053035 0.820843
vt 0.075544 0.816197
vt 0.109668 0.933450
vt 0.108847 0.915837
vt 0.125714 0.909252
vt 0.126773 0.930882
vt 0.102825 0.862973
vt 0.096803 0.810109
vt 0.120557 0.796219
vt 0.123135 0.852735
vt 0.826259 0.781324
vt 0.829416 0.725895
vt 0.852476 0.739494
vt 0.842298 0.786987
vt 0.066616 0.224728
vt 0.073854 0.172306
vt 0.081768 0.170134
vt 0.075950 0.222868
vt 0.379629 0.813132
vt 0.374748 0.775452
vt 0.382201 0.776054
vt 0.388311 0.813324
vt 0.930503 0.455095
vt 0.922461 0.455693
vt 0.919558 0.411288
vt 0.928192 0.410708
vt 0.860361 0.787541
vt 0.881799 0.785841
vt 0.868280 0.821771
vt 0.094068 0.935792
vt 0.093339 0.906282
vt 0.532786 0.371226
vt 0.214047 0.315667
vt 0.243457 0.319410
vt 0.249825 0.330225
vt 0.219142 0.330305
vt 0.455209 0.337607
vt 0.481089 0.358243
vt 0.444257 0.361559
vt 0.426344 0.347105
vt 0.579571 0.252025
vt 0.039821 0.301802
vt 0.049155 0.317501
vt 0.108867 0.324508
vt 0.116944 0.300765
vt 0.096550 0.296437
vt 0.081906 0.936455
vt 0.077468 0.891943
vt 0.831965 0.893606
vt 0.581686 0.233167
vt 0.009843 -0.000000
vt 0.012913 0.019374
vt 0.002921 0.022190
vt 0.000000 0.002684
vt 0.021385 0.055307
vt 0.030857 0.052652
vt 0.409617 0.640129
vt 0.409517 0.624088
vt 0.419702 0.623506
vt 0.419726 0.639577
vt 0.698142 0.689400
vt 0.698142 0.714485
vt 0.688459 0.713931
vt 0.688305 0.689897
vt 0.417435 0.765521
vt 0.419726 0.812622
vt 0.411887 0.813239
vt 0.409028 0.766121
vt 0.089695 0.767781
vt 0.082587 0.725452
vt 0.120864 0.709737
vt 0.120710 0.752978
vt 0.829179 0.680188
vt 0.828943 0.634482
vt 0.866356 0.649831
vt 0.859416 0.694663
vt 0.707851 0.894825
vt 0.709965 0.900528
vt 0.700766 0.900161
vt 0.698744 0.894595
vt 0.242878 0.668750
vt 0.233521 0.668647
vt 0.231199 0.629291
vt 0.241052 0.629208
vt 0.922844 0.337883
vt 0.922941 0.327184
vt 0.932815 0.326903
vt 0.932659 0.337338
vt 0.072044 0.692137
vt 0.078429 0.725779
vt 0.054320 0.737835
vt 0.046510 0.707177
vt 0.930425 0.374023
vt 0.921201 0.374585
vt 0.708053 0.918626
vt 0.698744 0.917433
vt 0.891815 0.574328
vt 0.905385 0.585128
vt 0.909517 0.596274
vt 0.884068 0.576961
vt 0.521554 0.798314
vt 0.523752 0.790915
vt 0.532950 0.791663
vt 0.530865 0.798923
vt 0.056851 0.130365
vt 0.039848 0.088424
vt 0.048801 0.085929
vt 0.065285 0.128032
vt 0.532631 0.834181
vt 0.523820 0.833553
vt 0.417435 0.678998
vt 0.415145 0.718419
vt 0.406170 0.719004
vt 0.407893 0.679567
vt 0.531632 0.912409
vt 0.523820 0.911742
vt 0.526086 0.868791
vt 0.534397 0.869439
vt 0.395316 0.633893
vt 0.396801 0.623506
vt 0.406170 0.624548
vt 0.404643 0.634810
vt 0.697523 0.741082
vt 0.697523 0.762988
vt 0.688380 0.761451
vt 0.688305 0.740315
vt 0.388557 0.665114
vt 0.397415 0.665952
vt 0.042675 0.712546
vt 0.051764 0.741414
vt 0.023716 0.752848
vt 0.011858 0.727374
vt 0.925699 0.599758
vt 0.943368 0.611209
vt 0.947510 0.622265
vt 0.914835 0.603526
vt 0.378273 0.735893
vt 0.381798 0.696335
vt 0.390188 0.697095
vt 0.386194 0.736574
vt 0.241886 0.755478
vt 0.233521 0.755004
vt 0.235843 0.708004
vt 0.244704 0.708292
vt 0.087616 0.767944
vt 0.064932 0.777016
vt 0.063654 0.778806
vt 0.038376 0.786846
vt 0.078280 0.691646
vt 0.073974 0.657841
vt 0.126773 0.640301
vt 0.123818 0.675019
vt 0.826022 0.597181
vt 0.823102 0.559880
vt 0.874869 0.576980
vt 0.870613 0.613405
vt 0.883266 0.704071
vt 0.872727 0.745607
vt 0.861716 0.694658
vt 0.909708 0.713797
vt 0.895317 0.749911
vt 0.884596 0.705884
vt 0.570423 0.196688
vt 0.590924 0.172644
vt 0.544568 0.169338
vt 0.565230 0.146744
vt 0.518714 0.141988
vt 0.539536 0.120843
vt 0.458860 0.914043
vt 0.477875 0.912396
vt 0.458975 0.878572
vt 0.477416 0.876958
vt 0.459089 0.843101
vt 0.476957 0.841520
vt 0.893629 0.184018
vt 0.908881 0.183905
vt 0.891871 0.150428
vt 0.906815 0.150318
vt 0.890113 0.116838
vt 0.904749 0.116730
vt 0.615110 0.139048
vt 0.589669 0.113483
vt 0.564227 0.087917
vt 0.490510 0.915137
vt 0.490922 0.950358
vt 0.490098 0.879916
vt 0.489685 0.844694
vt 0.872147 0.183227
vt 0.871461 0.149432
vt 0.870775 0.115637
vt 0.534910 0.504961
vt 0.552070 0.532558
vt 0.560757 0.483629
vt 0.578285 0.509653
vt 0.586604 0.462296
vt 0.604501 0.486749
vt 0.439788 0.912382
vt 0.440477 0.876944
vt 0.441166 0.841506
vt 0.924133 0.183792
vt 0.921759 0.150207
vt 0.919385 0.116622
vt 0.510107 0.474280
vt 0.535649 0.453300
vt 0.561192 0.432320
vt 0.426344 0.950333
vt 0.426988 0.915113
vt 0.427631 0.879892
vt 0.428275 0.844671
vt 0.942417 0.182708
vt 0.939130 0.148932
vt 0.935843 0.115156
vt 0.882462 0.326903
vt 0.891799 0.329979
vt 0.823102 0.837318
vt 0.823102 0.836754
vt 0.893806 0.662536
vt 0.870956 0.649822
vt 0.239067 0.802664
vt 0.231199 0.802004
vt 0.932815 0.499482
vt 0.925363 0.500098
vt 0.924098 0.677683
vt 0.896465 0.666161
vt 0.528866 0.955379
vt 0.521554 0.954692
vt 0.696952 0.523646
vt 0.696429 0.538745
vt 0.688305 0.539102
vt 0.688305 0.524025
vt 0.649958 0.887364
vt 0.662861 0.887499
vt 0.662861 0.903702
vt 0.649959 0.903418
vt 0.958101 0.611236
vt 0.957098 0.596421
vt 0.965289 0.596944
vt 0.965764 0.611726
vt 0.890076 0.909183
vt 0.890076 0.924760
vt 0.877359 0.925640
vt 0.877363 0.909925
vt 0.688305 0.461331
vt 0.696819 0.462892
vt 0.696303 0.478110
vt 0.688305 0.476644
vt 0.902744 0.907922
vt 0.902742 0.922238
vt 0.890076 0.923671
vt 0.890076 0.909216
vt 0.963220 0.685425
vt 0.955560 0.685966
vt 0.956028 0.671175
vt 0.964215 0.670596
vt 0.864450 0.909477
vt 0.877353 0.909443
vt 0.877353 0.925280
vt 0.864449 0.925166
vt 0.864451 0.893788
vt 0.877353 0.893606
vt 0.902747 0.893606
vt 0.890076 0.894762
vt 0.688305 0.446018
vt 0.697334 0.447674
vt 0.890076 0.893606
vt 0.877366 0.894210
vt 0.649957 0.871310
vt 0.662861 0.871297
vt 0.697476 0.508547
vt 0.688305 0.508949
vt 0.506741 0.787972
vt 0.490922 0.779626
vt 0.527776 0.790915
vt 0.549902 0.787877
vt 0.592541 0.787647
vt 0.608533 0.778628
vt 0.571630 0.791373
vt 0.549902 0.789074
vt 0.498424 0.370810
vt 0.222075 0.756861
vt 0.231199 0.769700
vt 0.557769 0.277797
vt 0.089032 0.395519
vt 0.128289 0.792268
vt 0.676813 0.860441
vt 0.663789 0.860441
vt 0.837678 0.894201
vt 0.829209 0.893606
vt 0.649957 0.915914
vt 0.637922 0.918064
vt 0.689837 0.860441
vt 0.846886 0.893721
vt 0.853010 0.893606
vt 0.625665 0.911673
vt 0.845205 0.547806
vt 0.865937 0.559631
vt 0.877512 0.613392
vt 0.901661 0.629405
vt 0.905650 0.634844
vt 0.935804 0.649974
vt 0.082812 0.641256
vt 0.104468 0.629208
vt 0.038699 0.676519
vt 0.043012 0.666124
vt 0.057652 0.655853
vt 0.065659 0.658495
vt -0.000000 0.701900
vt 0.004123 0.691454
vt 0.022610 0.680172
vt 0.033586 0.683678
vt 0.272544 0.623506
vt 0.293833 0.636146
vt 0.336653 0.673854
vt 0.310388 0.654602
vt 0.318449 0.651650
vt 0.332696 0.662629
vt 0.374749 0.700317
vt 0.341656 0.681316
vt 0.352770 0.677284
vt 0.370936 0.689115
vt 0.780252 0.559648
vt 0.800973 0.547806
vt 0.744647 0.629707
vt 0.768774 0.613653
vt 0.710513 0.650291
vt 0.740660 0.635153
vt 0.861461 0.046486
vt 0.845199 0.000000
vt 0.861524 0.006329
vt 0.869403 0.028853
vt 0.398255 0.129690
vt 0.411448 0.086385
vt 0.426344 0.114767
vt 0.416538 0.146955
vt 0.955122 0.060674
vt 0.955124 0.026488
vt 0.977645 0.026485
vt 0.977643 0.060670
vt 0.708224 0.146564
vt 0.698744 0.119462
vt 0.713145 0.092683
vt 0.725900 0.129144
vt 0.889295 0.523960
vt 0.889295 0.546243
vt 0.869403 0.547776
vt 0.869403 0.525493
vt 0.955092 0.000004
vt 0.977613 0.000000
vt 0.848584 0.547806
vt 0.829412 0.492999
vt 0.850231 0.484565
vt 0.869403 0.539371
vt 0.810240 0.438193
vt 0.831059 0.429758
vt 0.791068 0.383386
vt 0.811887 0.374952
vt 0.771896 0.328580
vt 0.792715 0.320145
vt 0.752724 0.273773
vt 0.773543 0.265339
vt 0.733552 0.218967
vt 0.754371 0.210532
vt 0.955092 0.566790
vt 0.955096 0.497659
vt 0.977617 0.497655
vt 0.977613 0.566787
vt 0.955100 0.428527
vt 0.977621 0.428523
vt 0.955104 0.359395
vt 0.977625 0.359392
vt 0.955109 0.290264
vt 0.977629 0.290260
vt 0.955113 0.221132
vt 0.977633 0.221129
vt 0.955117 0.152001
vt 0.977638 0.151997
vt 0.249825 0.616912
vt 0.269655 0.551819
vt 0.291189 0.558413
vt 0.271358 0.623506
vt 0.289485 0.486726
vt 0.311019 0.493320
vt 0.309316 0.421633
vt 0.330849 0.428227
vt 0.329146 0.356540
vt 0.350680 0.363134
vt 0.348976 0.291447
vt 0.370510 0.298040
vt 0.368807 0.226354
vt 0.390340 0.232947
vt 0.977645 0.521132
vt 0.977645 0.451543
vt 1.000000 0.451283
vt 1.000000 0.520872
vt 0.977645 0.381955
vt 1.000000 0.381695
vt 0.977645 0.312366
vt 1.000000 0.312106
vt 0.977645 0.242777
vt 1.000000 0.242517
vt 0.977645 0.173189
vt 1.000000 0.172929
vt 0.977645 0.103600
vt 1.000000 0.103340
vt 0.977645 0.000260
vt 1.000000 0.000000
vt 0.891799 0.514232
vt 0.892808 0.485651
vt 0.915158 0.486180
vt 0.914150 0.514761
vt 0.915158 0.532103
vt 0.892808 0.531574
vt 0.274859 0.000000
vt 0.258039 0.055210
vt 0.249825 0.036301
vt 0.257974 0.009549
vt 0.914329 0.346219
vt 0.892965 0.343217
vt 0.898194 0.326903
vt 0.919558 0.329905
vt 0.915070 0.450924
vt 0.893706 0.447922
vt 0.892195 0.410913
vt 0.913559 0.413915
vt 0.377921 0.054150
vt 0.363826 0.100419
vt 0.326190 0.081672
vt 0.341686 0.030808
vt 0.688305 0.817681
vt 0.668653 0.821122
vt 0.668102 0.780871
vt 0.687754 0.777430
vt 0.759186 0.099191
vt 0.745559 0.060233
vt 0.780591 0.035272
vt 0.795572 0.078098
vt 0.683441 0.857000
vt 0.663790 0.860441
vt 0.919558 0.485651
vt 0.898194 0.482650
vt 0.891800 0.371510
vt 0.913163 0.374512
vt 0.285866 0.066015
vt 0.302919 0.010037
vt 0.665550 0.738657
vt 0.685202 0.735216
vt 0.818070 0.012262
vt 0.834558 0.059393
vt 0.663790 0.709526
vt 0.683441 0.706085
s 0
usemtl Material.001
f 86/1/1 54/2/1 39/3/1 88/4/1
f 51/5/2 18/6/2 96/7/2 108/8/2
f 478/9/3 33/10/3 82/11/3 482/12/3
f 500/13/4 498/14/4 4/15/4 42/16/4
f 501/17/5 496/18/5 3/19/5 145/20/5
f 88/4/6 39/3/6 1/21/6 95/22/6
f 99/23/7 105/24/7 10/25/7 92/26/7
f 96/7/8 106/27/8 12/28/8 107/29/8
f 55/30/9 14/31/9 7/32/9 62/33/9
f 96/7/10 107/29/10 14/31/10
f 462/34/9 461/35/9 77/36/9 36/37/9
f 106/38/11 104/39/11 17/40/11 12/41/11
f 18/42/12 35/43/12 13/44/12 2/45/12
f 498/14/13 502/46/13 150/47/13 4/15/13
f 462/34/9 36/37/9 84/48/9 466/49/9
f 487/50/14 484/51/14 8/52/14 61/53/14
f 56/54/15 38/55/15 25/56/15 45/57/15
f 59/58/16 115/59/16 116/60/16 102/61/16
f 509/62/17 21/63/17 72/64/17 512/65/17
f 57/66/1 86/1/1 88/4/1 35/43/1
f 93/67/18 3/68/18 144/69/18
f 484/51/19 486/70/19 22/71/19 8/52/19
f 12/41/20 17/40/20 28/72/20 26/73/20
f 4/74/21 15/75/21 11/76/21 42/77/21
f 62/33/22 7/32/22 42/77/22 53/78/22
f 92/26/23 10/25/23 129/79/23
f 502/46/24 501/80/24 145/81/24 150/47/24
f 73/82/25 76/83/25 5/84/25 70/85/25
f 440/86/26 442/87/26 27/88/26 29/89/26
f 461/35/9 464/90/9 65/91/9 77/36/9
f 32/92/9 79/93/9 6/94/9 30/95/9
f 35/43/6 88/4/6 95/22/6 13/44/6
f 36/96/27 77/97/27 78/98/27 37/99/27
f 34/100/28 29/101/28 79/102/28 32/103/28
f 1/21/29 39/3/29 20/104/29 50/105/29
f 29/101/30 66/106/30 68/107/30 79/102/30
f 67/108/31 69/109/31 68/110/31 66/111/31
f 364/112/32 355/113/32 21/114/32 43/115/32
f 465/116/33 64/117/33 65/118/33 464/119/33
f 104/39/34 99/120/34 92/121/34 17/40/34
f 486/122/35 489/123/35 91/124/35 22/125/35
f 509/126/36 510/127/36 23/128/36 21/129/36
f 76/83/37 46/130/37 41/131/37 5/84/37
f 39/3/38 54/2/38 44/132/38 20/104/38
f 34/133/39 32/134/39 81/135/39 83/136/39
f 359/137/40 363/138/40 46/130/40 76/83/40
f 379/139/41 364/140/41 43/141/41 98/142/41
f 32/92/9 30/95/9 80/143/9 81/144/9
f 29/145/42 27/146/42 67/147/42 66/148/42
f 17/40/43 92/121/43 89/149/43 28/72/43
f 40/150/44 101/151/44 98/142/44 43/141/44
f 38/152/45 10/153/45 47/154/45 25/155/45
f 8/156/46 90/157/46 87/158/46 61/159/46
f 355/113/47 375/160/47 72/161/47 21/114/47
f 75/162/48 74/163/48 48/164/48 49/165/48
f 105/166/49 1/167/49 50/168/49 100/169/49
f 13/170/50 95/171/50 99/120/50 104/39/50
f 22/172/51 91/173/51 90/157/51 8/156/51
f 77/97/52 65/174/52 64/175/52 78/98/52
f 483/176/53 480/177/53 67/147/53 27/146/53
f 478/9/54 483/176/54 27/146/54 33/10/54
f 24/178/55 148/179/55 133/180/55 153/181/55
f 79/93/9 68/182/9 69/183/9 6/94/9
f 371/184/56 359/137/56 76/83/56 73/82/56
f 90/157/57 9/185/57 60/186/57 87/158/57
f 95/171/58 1/167/58 105/166/58 99/120/58
f 42/77/59 11/76/59 58/187/59 53/78/59
f 466/188/60 84/189/60 85/190/60 467/191/60
f 80/192/61 82/193/61 83/136/61 81/135/61
f 36/96/62 37/99/62 85/194/62 84/195/62
f 51/196/63 57/66/63 35/43/63 18/42/63
f 16/197/64 52/198/64 151/199/64 152/200/64
f 497/201/65 499/202/65 52/198/65 16/197/65
f 18/6/66 2/203/66 106/27/66 96/7/66
f 2/204/67 13/170/67 104/39/67 106/38/67
f 3/19/68 16/197/68 152/200/68 144/205/68
f 46/206/69 98/142/69 101/151/69 41/207/69
f 91/173/70 19/208/70 9/185/70 90/157/70
f 155/209/71 153/210/71 133/211/71 131/212/71
f 363/213/72 379/139/72 98/142/72 46/206/72
f 23/214/73 40/215/73 43/115/73 21/114/73
f 10/216/74 105/166/74 100/169/74 47/217/74
f 110/218/75 59/58/75 102/61/75 109/219/75
f 511/220/76 510/221/76 48/222/76 74/223/76
f 7/32/22 94/224/22 500/225/22 42/77/22
f 12/28/77 26/226/77 94/224/77 107/29/77
f 446/227/28 447/228/28 94/229/28 7/230/28
f 441/231/78 34/232/78 33/233/78 443/234/78
f 442/235/27 443/236/27 33/237/27 27/238/27
f 34/239/79 83/240/79 82/11/79 33/10/79
f 108/8/80 96/7/80 14/31/80 55/30/80
f 112/241/81 110/242/81 109/243/81 111/244/81
f 113/245/82 112/241/82 111/244/82 114/246/82
f 102/247/83 103/248/83 111/249/83 109/250/83
f 41/207/84 101/151/84 59/58/84 110/218/84
f 5/84/85 41/131/85 110/242/85 112/241/85
f 70/85/86 5/84/86 112/241/86 113/245/86
f 103/248/87 97/251/87 114/252/87 111/249/87
f 118/253/88 116/254/88 115/255/88 117/256/88
f 119/257/89 118/253/89 117/256/89 120/258/89
f 116/254/90 118/253/90 103/248/90 102/247/90
f 40/215/91 23/214/91 117/259/91 115/260/91
f 101/151/92 40/150/92 115/59/92 59/58/92
f 23/214/93 71/261/93 120/262/93 117/259/93
f 118/253/94 119/257/94 97/251/94 103/248/94
f 481/263/95 127/264/95 128/265/95 482/266/95
f 463/267/96 460/268/96 124/269/96 123/270/96
f 460/268/97 465/271/97 126/272/97 124/269/97
f 480/273/98 126/274/98 125/275/98 479/276/98
f 476/277/9 479/278/9 125/279/9 121/280/9
f 477/281/9 122/282/9 127/283/9 481/284/9
f 477/281/9 476/277/9 121/280/9 122/282/9
f 463/267/99 123/270/99 128/285/99 467/286/99
f 139/287/100 24/178/100 89/288/100 138/289/100
f 89/290/101 92/26/101 129/79/101
f 156/291/102 155/209/102 131/212/102 130/292/102
f 407/293/103 146/294/103 140/295/103 404/296/103
f 154/297/104 156/298/104 130/299/104 132/300/104
f 400/301/105 402/302/105 134/303/105 136/304/105
f 403/305/106 401/306/106 137/307/106 135/308/106
f 402/309/107 403/310/107 135/311/107 134/312/107
f 405/313/108 404/314/108 140/315/108 141/316/108
f 146/317/109 183/318/109 184/319/109 149/320/109
f 406/321/110 148/179/110 139/287/110 405/322/110
f 129/323/111 154/297/111 132/300/111 147/324/111
f 401/306/112 133/180/112 148/179/112 406/321/112
f 400/301/113 136/304/113 146/294/113 407/293/113
f 150/47/114 145/81/114 93/67/114 15/325/114
f 4/15/115 150/47/115 15/325/115
f 145/20/116 3/19/116 93/326/116
f 490/327/117 485/328/117 9/329/117 19/330/117
f 490/331/118 19/332/118 91/124/118 489/123/118
f 485/328/119 488/333/119 60/334/119 9/329/119
f 129/335/120 10/336/120 154/337/120
f 10/153/121 38/152/121 155/209/121 156/291/121
f 38/152/122 31/338/122 153/210/122 155/209/122
f 496/18/123 24/339/123 31/338/123 497/201/123
f 147/324/124 138/340/124 89/341/124 129/323/124
f 31/342/125 24/178/125 153/181/125
f 63/343/126 31/338/126 38/152/126 56/344/126
f 148/179/127 24/178/127 139/287/127
f 154/337/128 10/336/128 156/345/128
f 159/346/129 158/347/129 157/348/129 160/349/129
f 530/350/130 528/351/130 160/349/130 157/348/130
f 163/352/131 162/353/131 161/354/131 164/355/131
f 158/356/132 159/357/132 164/355/132 161/354/132
f 181/358/133 182/359/133 137/360/133 136/361/133
f 136/304/134 134/303/134 143/362/134 181/363/134
f 135/308/135 137/307/135 182/364/135 142/365/135
f 167/366/136 166/367/136 165/368/136 168/369/136
f 533/370/137 166/367/137 167/366/137 534/371/137
f 171/372/138 170/373/138 169/374/138 172/375/138
f 534/376/139 531/377/139 183/378/139 190/379/139
f 531/380/140 170/381/140 171/382/140 532/383/140
f 168/384/141 165/385/141 172/375/141 169/374/141
f 165/386/142 166/387/142 171/388/142 172/389/142
f 173/390/143 176/391/143 175/392/143 174/393/143
f 134/312/144 135/311/144 142/394/144 143/395/144
f 536/396/145 176/391/145 173/390/145 535/397/145
f 529/398/146 527/399/146 182/400/146 181/401/146
f 149/402/147 186/403/147 185/404/147 146/405/147
f 179/406/148 178/407/148 177/408/148 180/409/148
f 174/410/149 175/411/149 180/409/149 177/408/149
f 538/412/150 537/413/150 178/414/150 179/415/150
f 535/416/151 537/417/151 188/418/151 185/419/151
f 175/420/152 176/421/152 179/422/152 180/423/152
f 141/316/153 140/315/153 188/424/153 187/425/153
f 137/426/154 189/427/154 190/428/154 136/429/154
f 190/379/155 183/378/155 146/294/155 136/304/155
f 185/419/156 188/418/156 140/295/156 146/294/156
f 529/430/157 530/431/157 157/432/157 162/433/157
f 528/434/158 527/435/158 163/436/158 160/437/158
f 184/438/159 189/439/159 137/307/159 149/440/159
f 187/441/160 186/442/160 149/440/160 141/443/160
f 86/1/1 256/444/1 229/445/1 54/2/1
f 51/5/161 108/8/161 264/446/161 208/447/161
f 470/448/162 474/449/162 252/450/162 223/451/162
f 506/452/163 232/453/163 194/454/163 505/455/163
f 507/456/164 307/457/164 193/458/164 503/459/164
f 256/444/165 263/460/165 191/461/165 229/445/165
f 266/462/166 260/463/166 200/464/166 272/465/166
f 264/446/167 274/466/167 202/467/167 273/468/167
f 55/30/9 62/33/9 197/469/9 204/470/9
f 264/446/10 204/470/10 274/466/10
f 454/471/9 226/472/9 247/473/9 453/474/9
f 273/475/168 202/476/168 207/477/168 271/478/168
f 208/479/169 192/480/169 203/481/169 225/482/169
f 505/483/170 194/484/170 312/485/170 508/486/170
f 454/471/9 458/487/9 254/488/9 226/472/9
f 487/50/14 61/53/14 198/489/14 491/490/14
f 56/54/171 45/57/171 215/491/171 228/492/171
f 239/493/172 269/494/172 280/495/172 279/496/172
f 513/497/17 512/65/17 72/64/17 211/498/17
f 57/66/1 225/482/1 256/444/1 86/1/1
f 261/499/173 306/500/173 193/458/173
f 491/490/174 198/489/174 212/501/174 493/502/174
f 202/476/175 216/503/175 218/504/175 207/477/175
f 194/454/176 232/453/176 201/505/176 205/506/176
f 62/33/22 53/78/22 232/453/22 197/469/22
f 260/463/177 291/507/177 200/464/177
f 508/486/178 312/485/178 307/457/178 507/456/178
f 73/82/179 70/85/179 195/508/179 246/509/179
f 436/510/180 219/511/180 217/512/180 438/513/180
f 453/474/9 247/473/9 241/514/9 456/515/9
f 222/516/9 220/517/9 196/518/9 249/519/9
f 225/482/165 203/481/165 263/460/165 256/444/165
f 226/520/27 227/521/27 248/522/27 247/523/27
f 224/524/28 222/525/28 249/526/28 219/527/28
f 191/461/181 238/528/181 210/529/181 229/445/181
f 219/527/182 249/526/182 244/530/182 242/531/182
f 243/532/183 242/533/183 244/534/183 245/535/183
f 392/536/184 233/537/184 211/538/184 383/539/184
f 457/540/185 456/541/185 241/542/185 240/543/185
f 271/478/186 207/477/186 260/463/186 266/462/186
f 493/502/187 212/501/187 259/544/187 494/545/187
f 513/546/188 211/547/188 213/548/188 514/549/188
f 246/509/189 195/508/189 231/550/189 234/551/189
f 229/445/38 210/529/38 44/132/38 54/2/38
f 224/552/190 253/553/190 251/554/190 222/555/190
f 387/556/191 246/509/191 234/551/191 391/557/191
f 399/558/192 265/559/192 233/560/192 392/561/192
f 222/516/9 251/562/9 250/563/9 220/517/9
f 219/564/193 242/565/193 243/566/193 217/567/193
f 207/477/194 218/504/194 257/568/194 260/463/194
f 230/569/195 233/560/195 265/559/195 268/570/195
f 228/571/196 215/572/196 235/573/196 200/464/196
f 198/574/46 61/159/46 87/158/46 258/575/46
f 383/539/47 211/538/47 72/161/47 375/160/47
f 75/162/197 237/576/197 236/577/197 74/163/197
f 272/465/198 267/578/198 238/579/198 191/580/198
f 203/581/199 271/478/199 266/462/199 263/582/199
f 212/501/200 198/489/200 258/583/200 259/544/200
f 247/523/201 248/522/201 240/584/201 241/585/201
f 475/586/202 217/567/202 243/566/202 472/587/202
f 470/448/54 223/451/54 217/567/54 475/586/54
f 214/588/203 314/589/203 295/590/203 310/591/203
f 249/519/9 196/518/9 245/592/9 244/593/9
f 371/184/204 73/82/204 246/509/204 387/556/204
f 258/575/57 87/158/57 60/186/57 199/594/57
f 263/582/205 266/462/205 272/465/205 191/580/205
f 232/453/59 53/78/59 58/187/59 201/505/59
f 458/595/206 459/596/206 255/597/206 254/598/206
f 250/599/207 251/554/207 253/553/207 252/600/207
f 226/520/208 254/601/208 255/602/208 227/521/208
f 51/196/209 208/479/209 225/482/209 57/66/209
f 206/603/210 313/604/210 151/199/210 52/198/210
f 504/605/211 206/603/211 52/198/211 499/202/211
f 208/447/212 264/446/212 273/468/212 192/606/212
f 192/607/213 273/475/213 271/478/213 203/581/213
f 193/608/214 306/609/214 313/604/214 206/603/214
f 234/610/215 231/611/215 268/570/215 265/559/215
f 259/612/216 258/575/216 199/594/216 209/613/216
f 316/614/217 293/615/217 295/616/217 314/617/217
f 391/618/218 234/610/218 265/559/218 399/558/218
f 213/619/219 211/538/219 233/537/219 230/620/219
f 200/464/220 235/573/220 267/578/220 272/465/220
f 276/621/221 275/622/221 269/494/221 239/493/221
f 511/220/76 74/223/76 236/623/76 514/624/76
f 197/469/22 232/453/22 506/452/22 262/625/22
f 202/467/222 274/466/222 262/625/222 216/626/222
f 450/627/28 197/628/28 262/629/28 451/630/28
f 437/631/223 439/632/223 223/633/223 224/634/223
f 438/635/27 217/636/27 223/637/27 439/638/27
f 224/639/224 223/451/224 252/450/224 253/640/224
f 108/8/225 55/30/225 204/470/225 264/446/225
f 278/641/226 277/642/226 275/622/226 276/621/226
f 113/245/227 114/246/227 277/643/227 278/644/227
f 269/494/228 275/622/228 277/642/228 270/645/228
f 231/611/229 276/621/229 239/493/229 268/570/229
f 195/508/230 278/644/230 276/646/230 231/550/230
f 70/85/231 113/245/231 278/644/231 195/508/231
f 270/647/232 277/648/232 114/252/232 97/251/232
f 282/649/233 281/650/233 279/496/233 280/495/233
f 119/257/234 120/258/234 281/651/234 282/652/234
f 280/495/235 269/494/235 270/645/235 282/649/235
f 230/620/236 279/653/236 281/654/236 213/619/236
f 268/570/237 239/493/237 279/496/237 230/569/237
f 213/619/93 281/654/93 120/262/93 71/261/93
f 282/652/238 270/647/238 97/251/238 119/257/238
f 473/655/239 474/656/239 290/657/239 289/658/239
f 455/659/96 285/660/96 286/661/96 452/662/96
f 452/662/240 286/661/240 288/663/240 457/664/240
f 472/665/241 471/666/241 287/667/241 288/668/241
f 468/669/9 283/670/9 287/671/9 471/672/9
f 469/673/9 473/674/9 289/675/9 284/676/9
f 469/673/9 284/676/9 283/670/9 468/669/9
f 455/659/242 459/677/242 290/678/242 285/660/242
f 301/679/243 300/680/243 257/681/243 214/682/243
f 257/568/244 291/507/244 260/463/244
f 317/683/245 292/684/245 293/615/245 316/614/245
f 415/685/246 412/686/246 302/687/246 308/688/246
f 315/689/247 294/690/247 292/691/247 317/692/247
f 408/693/248 298/694/248 296/695/248 410/696/248
f 411/697/249 297/698/249 299/699/249 409/700/249
f 410/701/250 296/702/250 297/703/250 411/704/250
f 413/705/251 303/706/251 302/707/251 412/708/251
f 422/709/252 423/710/252 345/711/252 344/712/252
f 414/713/253 413/714/253 301/715/253 310/591/253
f 291/716/254 309/717/254 294/690/254 315/689/254
f 409/700/255 414/713/255 310/591/255 295/590/255
f 408/693/256 415/685/256 308/688/256 298/694/256
f 312/485/257 205/718/257 261/499/257 307/457/257
f 194/484/258 205/718/258 312/485/258
f 307/457/259 261/499/259 193/458/259
f 495/719/260 209/720/260 199/721/260 492/722/260
f 495/723/261 494/724/261 259/725/261 209/726/261
f 492/722/262 199/721/262 60/334/262 488/333/262
f 291/507/263 315/727/263 200/464/263
f 200/728/264 317/683/264 316/614/264 228/729/264
f 228/729/265 316/614/265 314/617/265 221/730/265
f 503/731/266 504/605/266 221/730/266 214/732/266
f 309/717/267 291/716/267 257/733/267 300/734/267
f 221/735/268 314/589/268 214/588/268
f 63/343/269 56/344/269 228/729/269 221/730/269
f 310/591/270 301/715/270 214/588/270
f 315/727/271 317/736/271 200/464/271
f 320/737/272 321/738/272 318/739/272 319/740/272
f 518/741/273 318/739/273 321/738/273 516/742/273
f 324/743/274 325/744/274 322/745/274 323/746/274
f 319/747/275 322/748/275 325/749/275 320/750/275
f 417/751/276 298/752/276 299/753/276 419/754/276
f 417/755/277 342/756/277 305/757/277 418/758/277
f 416/759/278 304/760/278 343/761/278 419/762/278
f 328/763/279 329/764/279 326/765/279 327/766/279
f 521/767/280 522/768/280 328/769/280 327/770/280
f 332/771/281 333/772/281 330/773/281 331/774/281
f 522/775/282 351/776/282 344/777/282 519/778/282
f 519/779/283 520/780/283 332/771/283 331/774/283
f 329/764/284 330/781/284 333/782/284 326/765/284
f 326/783/285 333/784/285 332/785/285 327/786/285
f 334/787/286 335/788/286 336/789/286 337/790/286
f 418/791/287 305/792/287 304/793/287 416/794/287
f 524/795/288 523/796/288 334/787/288 337/790/288
f 517/797/289 342/798/289 343/799/289 515/800/289
f 426/801/290 425/802/290 346/803/290 347/804/290
f 340/805/291 341/806/291 338/807/291 339/808/291
f 335/809/292 338/810/292 341/811/292 336/812/292
f 526/813/293 340/805/293 339/808/293 525/814/293
f 523/815/294 346/816/294 349/817/294 525/818/294
f 336/819/295 341/820/295 340/821/295 337/822/295
f 424/823/296 348/824/296 349/825/296 427/826/296
f 420/827/297 421/828/297 351/829/297 350/830/297
f 421/831/298 298/694/298 308/688/298 422/832/298
f 425/833/299 308/688/299 302/687/299 427/834/299
f 517/835/300 323/836/300 318/837/300 518/838/300
f 516/839/301 321/840/301 324/841/301 515/842/301
f 423/843/302 311/844/302 299/699/302 420/845/302
f 424/846/303 303/847/303 311/844/303 426/848/303
f 235/573/304 388/849/304 396/850/304 267/578/304
f 388/849/305 389/851/305 397/852/305 396/850/305
f 389/851/306 390/853/306 398/854/306 397/852/306
f 390/853/307 391/618/307 399/558/307 398/854/307
f 45/57/308 368/855/308 384/856/308 215/491/308
f 368/855/309 369/857/309 385/858/309 384/856/309
f 369/857/310 370/859/310 386/860/310 385/858/310
f 370/859/311 371/184/311 387/556/311 386/860/311
f 210/529/47 380/861/47 372/862/47 44/132/47
f 380/861/47 381/863/47 373/864/47 372/862/47
f 381/863/47 382/865/47 374/866/47 373/864/47
f 382/865/47 383/539/47 375/160/47 374/866/47
f 267/578/312 396/850/312 395/867/312 238/579/312
f 396/850/313 397/852/313 394/868/313 395/867/313
f 397/852/314 398/854/314 393/869/314 394/868/314
f 398/854/315 399/558/315 392/561/315 393/869/315
f 215/491/316 384/856/316 388/870/316 235/871/316
f 384/856/317 385/858/317 389/872/317 388/870/317
f 385/858/318 386/860/318 390/873/318 389/872/318
f 386/860/319 387/556/319 391/557/319 390/873/319
f 238/528/320 395/874/320 380/861/320 210/529/320
f 395/874/321 394/875/321 381/863/321 380/861/321
f 394/875/322 393/876/322 382/865/322 381/863/322
f 393/876/323 392/536/323 383/539/323 382/865/323
f 47/217/324 100/169/324 376/877/324 360/878/324
f 360/878/325 376/877/325 377/879/325 361/880/325
f 361/880/326 377/879/326 378/881/326 362/882/326
f 362/882/327 378/881/327 379/139/327 363/213/327
f 45/57/328 25/56/328 356/883/328 368/855/328
f 368/855/329 356/883/329 357/884/329 369/857/329
f 369/857/330 357/884/330 358/885/330 370/859/330
f 370/859/331 358/885/331 359/137/331 371/184/331
f 20/104/47 44/132/47 372/862/47 352/886/47
f 352/886/47 372/862/47 373/864/47 353/887/47
f 353/887/47 373/864/47 374/866/47 354/888/47
f 354/888/47 374/866/47 375/160/47 355/113/47
f 100/169/332 50/168/332 367/889/332 376/877/332
f 376/877/333 367/889/333 366/890/333 377/879/333
f 377/879/334 366/890/334 365/891/334 378/881/334
f 378/881/335 365/891/335 364/140/335 379/139/335
f 25/56/336 47/892/336 360/893/336 356/883/336
f 356/883/337 360/893/337 361/894/337 357/884/337
f 357/884/338 361/894/338 362/895/338 358/885/338
f 358/885/339 362/895/339 363/138/339 359/137/339
f 50/105/340 20/104/340 352/886/340 367/896/340
f 367/896/341 352/886/341 353/887/341 366/897/341
f 366/897/342 353/887/342 354/888/342 365/898/342
f 365/898/343 354/888/343 355/113/343 364/112/343
f 132/300/344 400/301/344 407/293/344 147/324/344
f 137/307/345 401/306/345 406/321/345 149/440/345
f 149/440/346 406/321/346 405/322/346 141/443/346
f 139/899/347 138/900/347 404/314/347 405/313/347
f 130/292/348 131/212/348 403/310/348 402/309/348
f 131/901/349 133/180/349 401/306/349 403/305/349
f 132/300/350 130/299/350 402/302/350 400/301/350
f 147/324/351 407/293/351 404/296/351 138/340/351
f 294/690/352 309/717/352 415/685/352 408/693/352
f 299/699/353 311/844/353 414/713/353 409/700/353
f 311/844/354 303/847/354 413/714/354 414/713/354
f 301/679/355 413/705/355 412/708/355 300/680/355
f 292/684/356 410/701/356 411/704/356 293/615/356
f 293/902/357 411/697/357 409/700/357 295/590/357
f 294/690/358 408/693/358 410/696/358 292/691/358
f 309/717/359 300/734/359 412/686/359 415/685/359
f 296/702/360 418/791/360 416/794/360 297/703/360
f 297/698/361 416/759/361 419/762/361 299/699/361
f 298/694/362 417/755/362 418/758/362 296/695/362
f 342/798/363 417/751/363 419/754/363 343/799/363
f 345/903/364 423/843/364 420/845/364 350/904/364
f 351/776/365 421/831/365 422/832/365 344/777/365
f 299/905/366 298/906/366 421/828/366 420/827/366
f 308/907/367 311/908/367 423/710/367 422/709/367
f 348/909/368 424/846/368 426/848/368 347/910/368
f 346/816/369 425/833/369 427/834/369 349/817/369
f 303/706/370 424/823/370 427/826/370 302/707/370
f 311/911/371 308/912/371 425/802/371 426/801/371
f 448/913/27 429/914/27 430/915/27 449/916/27
f 451/917/372 449/918/372 430/919/372 431/920/372
f 436/921/28 428/922/28 431/923/28 437/924/28
f 450/925/373 428/926/373 429/927/373 448/928/373
f 444/929/27 445/930/27 434/931/27 433/932/27
f 447/933/374 435/934/374 434/935/374 445/936/374
f 440/937/28 441/938/28 435/939/28 432/940/28
f 446/941/375 444/942/375 433/943/375 432/944/375
f 219/527/28 436/921/28 437/924/28 224/524/28
f 429/914/27 438/635/27 439/638/27 430/915/27
f 431/920/376 430/919/376 439/632/376 437/631/376
f 428/926/377 436/510/377 438/513/377 429/927/377
f 29/101/28 34/100/28 441/938/28 440/937/28
f 433/932/27 434/931/27 443/236/27 442/235/27
f 435/934/378 441/231/378 443/234/378 434/935/378
f 432/944/379 433/943/379 442/87/379 440/86/379
f 7/945/380 14/946/380 444/942/380 446/941/380
f 94/947/381 447/933/381 445/936/381 107/948/381
f 14/949/27 107/950/27 445/930/27 444/929/27
f 432/940/28 435/939/28 447/228/28 446/227/28
f 197/951/382 450/925/382 448/928/382 204/952/382
f 262/953/383 274/954/383 449/918/383 451/917/383
f 204/955/27 448/913/27 449/916/27 274/956/27
f 428/922/28 450/627/28 451/630/28 431/923/28
f 227/957/384 255/958/384 459/677/384 455/659/384
f 248/959/385 452/662/385 457/664/385 240/960/385
f 227/957/96 455/659/96 452/662/96 248/959/96
f 289/658/386 290/657/386 459/596/386 458/595/386
f 288/668/387 287/667/387 456/541/387 457/540/387
f 283/670/9 453/474/9 456/515/9 287/671/9
f 284/676/9 289/675/9 458/487/9 454/471/9
f 284/676/9 454/471/9 453/474/9 283/670/9
f 37/961/388 463/267/388 467/286/388 85/962/388
f 78/963/389 64/964/389 465/271/389 460/268/389
f 37/961/96 78/963/96 460/268/96 463/267/96
f 127/264/390 466/188/390 467/191/390 128/265/390
f 126/274/391 465/116/391 464/119/391 125/275/391
f 121/280/9 125/279/9 464/90/9 461/35/9
f 122/282/9 462/34/9 466/49/9 127/283/9
f 122/282/9 121/280/9 461/35/9 462/34/9
f 220/517/9 469/673/9 468/669/9 196/518/9
f 220/517/9 250/563/9 473/674/9 469/673/9
f 196/518/9 468/669/9 471/672/9 245/592/9
f 243/532/392 245/535/392 471/666/392 472/665/392
f 250/599/393 252/600/393 474/656/393 473/655/393
f 285/660/54 470/448/54 475/586/54 286/661/54
f 286/661/394 475/586/394 472/587/394 288/663/394
f 285/660/395 290/678/395 474/449/395 470/448/395
f 30/95/9 6/94/9 476/277/9 477/281/9
f 30/95/9 477/281/9 481/284/9 80/143/9
f 6/94/9 69/183/9 479/278/9 476/277/9
f 67/108/396 480/273/396 479/276/396 69/109/396
f 80/192/397 481/263/397 482/266/397 82/193/397
f 123/270/54 124/269/54 483/176/54 478/9/54
f 124/269/398 126/272/398 480/177/398 483/176/398
f 123/270/399 478/9/399 482/12/399 128/285/399
f 313/604/400 492/722/400 488/333/400 151/199/400
f 306/500/401 261/499/401 494/724/401 495/723/401
f 306/609/402 495/719/402 492/722/402 313/604/402
f 205/718/403 493/965/403 494/724/403 261/499/403
f 201/505/404 491/490/404 493/502/404 205/506/404
f 58/187/14 487/50/14 491/490/14 201/505/14
f 152/200/405 151/199/405 488/333/405 485/328/405
f 144/69/406 490/331/406 489/123/406 93/67/406
f 144/205/407 152/200/407 485/328/407 490/327/407
f 15/325/408 93/67/408 489/123/408 486/122/408
f 11/76/409 15/75/409 486/70/409 484/51/409
f 58/187/14 11/76/14 484/51/14 487/50/14
f 193/608/410 206/603/410 504/605/410 503/731/410
f 221/730/411 504/605/411 499/202/411 63/343/411
f 218/504/412 508/486/412 507/456/412 257/568/412
f 216/626/413 505/455/413 508/966/413 218/967/413
f 257/568/414 507/456/414 503/459/414 214/968/414
f 262/625/415 506/452/415 505/455/415 216/626/415
f 3/19/416 496/18/416 497/201/416 16/197/416
f 31/338/417 63/343/417 499/202/417 497/201/417
f 28/72/418 89/149/418 501/80/418 502/46/418
f 26/73/419 28/72/419 502/46/419 498/14/419
f 89/969/420 24/339/420 496/18/420 501/17/420
f 94/224/421 26/226/421 498/970/421 500/225/421
f 71/971/76 511/220/76 514/624/76 213/972/76
f 237/973/422 513/546/422 514/549/422 236/974/422
f 237/975/17 75/976/17 512/65/17 513/497/17
f 71/971/76 23/977/76 510/221/76 511/220/76
f 49/978/423 48/979/423 510/127/423 509/126/423
f 49/980/17 509/62/17 512/65/17 75/976/17
f 304/760/424 516/839/424 515/842/424 343/761/424
f 324/841/425 321/840/425 320/981/425 325/982/425
f 521/983/426 520/984/426 345/903/426 350/904/426
f 524/985/427 526/986/427 348/909/427 347/910/427
f 318/837/428 323/836/428 322/987/428 319/988/428
f 331/989/429 330/990/429 329/991/429 328/992/429
f 339/993/430 338/994/430 335/995/430 334/996/430
f 342/756/431 517/835/431 518/838/431 305/757/431
f 323/746/432 517/797/432 515/800/432 324/743/432
f 305/792/433 518/741/433 516/742/433 304/793/433
f 327/786/434 332/785/434 520/984/434 521/983/434
f 344/712/435 345/711/435 520/780/435 519/779/435
f 328/992/436 522/775/436 519/778/436 331/989/436
f 350/830/437 351/829/437 522/768/437 521/767/437
f 337/822/438 340/821/438 526/986/438 524/985/438
f 334/996/439 523/815/439 525/818/439 339/993/439
f 348/824/440 526/813/440 525/814/440 349/825/440
f 347/804/441 346/803/441 523/796/441 524/795/441
f 142/365/442 182/364/442 527/435/442 528/434/442
f 162/433/443 157/432/443 158/997/443 161/998/443
f 170/999/444 167/1000/444 168/1001/444 169/1002/444
f 178/1003/445 173/1004/445 174/1005/445 177/1006/445
f 160/437/446 163/436/446 164/1007/446 159/1008/446
f 532/1009/447 533/1010/447 189/439/447 184/438/447
f 538/1011/448 536/1012/448 186/442/448 187/441/448
f 181/363/449 143/362/449 530/431/449 529/430/449
f 162/353/450 163/352/450 527/399/450 529/398/450
f 143/395/451 142/394/451 528/351/451 530/350/451
f 171/388/452 166/387/452 533/1010/452 532/1009/452
f 183/318/453 531/380/453 532/383/453 184/319/453
f 167/1000/454 170/999/454 531/377/454 534/376/454
f 189/427/455 533/370/455 534/371/455 190/428/455
f 179/422/456 176/421/456 536/1012/456 538/1011/456
f 173/1004/457 178/1003/457 537/417/457 535/416/457
f 187/425/458 188/424/458 537/413/458 538/412/458
f 186/403/459 536/396/459 535/397/459 185/404/459
f 592/1013/460 591/1014/460 575/1015/460 577/1016/460
f 554/1017/461 542/1018/461 546/1019/461 561/1020/461
f 561/1021/462 546/1022/462 544/1023/462 568/1024/462
f 568/1025/460 544/1026/460 540/1027/460 553/1028/460
f 541/1029/463 545/1030/463 543/1031/463 539/1032/463
f 546/1022/464 542/1033/464 540/1034/464 544/1023/464
f 543/1035/460 574/1036/460 547/1037/460 539/1038/460
f 574/1036/460 573/1039/460 548/1040/460 547/1037/460
f 573/1039/460 572/1041/460 549/1042/460 548/1040/460
f 572/1041/460 571/1043/460 550/1044/460 549/1042/460
f 571/1043/460 570/1045/460 551/1046/460 550/1044/460
f 570/1045/460 569/1047/460 552/1048/460 551/1046/460
f 569/1047/460 568/1025/460 553/1028/460 552/1048/460
f 545/1049/462 567/1050/462 574/1051/462 543/1052/462
f 567/1050/462 566/1053/462 573/1054/462 574/1051/462
f 566/1053/462 565/1055/462 572/1056/462 573/1054/462
f 565/1055/462 564/1057/462 571/1058/462 572/1056/462
f 564/1057/462 563/1059/462 570/1060/462 571/1058/462
f 563/1059/462 562/1061/462 569/1062/462 570/1060/462
f 562/1061/462 561/1021/462 568/1024/462 569/1062/462
f 541/1063/461 560/1064/461 567/1065/461 545/1066/461
f 560/1064/461 559/1067/461 566/1068/461 567/1065/461
f 559/1067/461 558/1069/461 565/1070/461 566/1068/461
f 558/1069/461 557/1071/461 564/1072/461 565/1070/461
f 557/1071/461 556/1073/461 563/1074/461 564/1072/461
f 556/1073/461 555/1075/461 562/1076/461 563/1074/461
f 555/1075/461 554/1017/461 561/1020/461 562/1076/461
f 539/1077/465 547/1078/465 560/1079/465 541/1080/465
f 547/1078/465 548/1081/465 559/1082/465 560/1079/465
f 548/1081/465 549/1083/465 558/1084/465 559/1082/465
f 549/1083/465 550/1085/465 557/1086/465 558/1084/465
f 550/1085/465 551/1087/465 556/1088/465 557/1086/465
f 551/1087/465 552/1089/465 555/1090/465 556/1088/465
f 552/1089/465 553/1091/465 554/1092/465 555/1090/465
f 577/1093/465 575/1094/465 576/1095/465 578/1096/465
f 593/1097/466 592/1098/466 577/1093/466 578/1096/466
f 594/1099/461 593/1100/461 578/1101/461 576/1102/461
f 591/1103/467 594/1104/467 576/1105/467 575/1106/467
f 586/1107/468 585/1108/468 582/1109/468 579/1110/468
f 585/1111/461 584/1112/461 581/1113/461 582/1114/461
f 584/1115/469 583/1116/469 580/1117/469 581/1118/469
f 583/1119/460 586/1120/460 579/1121/460 580/1122/460
f 553/1028/460 540/1027/460 586/1120/460 583/1119/460
f 554/1123/470 553/1124/470 583/1116/470 584/1115/470
f 542/1018/461 554/1017/461 584/1112/461 585/1111/461
f 540/1125/471 542/1126/471 585/1108/471 586/1107/471
f 579/1110/472 582/1109/472 590/1127/472 587/1128/472
f 582/1114/461 581/1113/461 589/1129/461 590/1130/461
f 581/1118/473 580/1117/473 588/1131/473 589/1132/473
f 580/1122/460 579/1121/460 587/1133/460 588/1134/460
f 587/1128/474 590/1127/474 594/1104/474 591/1103/474
f 590/1130/461 589/1129/461 593/1100/461 594/1099/461
f 589/1132/473 588/1131/473 592/1135/473 593/1136/473
f 588/1134/460 587/1133/460 591/1014/460 592/1013/460
